M48
; DRILL file {KiCad 9.0.6} date 2025-12-25T22:54:48+0100
; FORMAT={-:-/ absolute / metric / decimal}
; #@! TF.CreationDate,2025-12-25T22:54:48+01:00
; #@! TF.GenerationSoftware,Kicad,Pcbnew,9.0.6
; #@! TF.FileFunction,Plated,1,2,PTH
FMAT,2
METRIC
; #@! TA.AperFunction,Plated,PTH,ViaDrill
T1C0.300
; #@! TA.AperFunction,Plated,PTH,ComponentDrill
T2C0.600
; #@! TA.AperFunction,Plated,PTH,ComponentDrill
T3C0.750
; #@! TA.AperFunction,Plated,PTH,ComponentDrill
T4C0.800
; #@! TA.AperFunction,Plated,PTH,ComponentDrill
T5C0.900
; #@! TA.AperFunction,Plated,PTH,ComponentDrill
T6C1.000
; #@! TA.AperFunction,Plated,PTH,ComponentDrill
T7C1.100
; #@! TA.AperFunction,Plated,PTH,ComponentDrill
T8C1.150
; #@! TA.AperFunction,Plated,PTH,ComponentDrill
T9C1.300
%
G90
G05
T1
X118.5Y-90.5
X123.5Y-99.5
X123.5Y-99.5
X124.0Y-81.5
X125.2Y-131.8
X127.0Y-133.0
X128.5Y-105.75
X128.5Y-105.75
X129.0Y-114.5
X130.75Y-115.75
X132.0Y-104.0
X132.4Y-130.6
X137.5Y-142.0
X140.46Y-63.8
X149.5Y-111.0
X151.0Y-118.75
X153.8Y-67.4
X155.5Y-110.0
X155.5Y-139.0
X155.73Y-122.0
X161.2Y-137.8
X162.2Y-67.4
X165.8Y-131.8
X173.0Y-78.5
T2
X149.5Y-118.5
X149.5Y-120.5
X151.0Y-113.5
X153.0Y-113.5
X162.0Y-118.5
X162.0Y-120.5
X167.027Y-101.5
X169.027Y-101.5
X178.5Y-118.973
X178.5Y-120.973
T3
X132.0Y-119.0
X133.27Y-119.0
X134.54Y-119.0
X138.0Y-111.0
X139.27Y-111.0
X139.98Y-119.0
X140.54Y-111.0
X141.25Y-119.0
X142.52Y-119.0
X154.46Y-120.0
X155.73Y-120.0
X157.0Y-120.0
X170.73Y-120.0
X172.0Y-120.0
X173.27Y-120.0
T4
X117.0Y-128.25
X117.0Y-133.25
X117.75Y-120.0
X117.75Y-122.5
X118.0Y-58.0
X123.42Y-64.5
X130.0Y-126.42
X130.0Y-136.58
X130.46Y-143.04
X130.7Y-58.0
X133.0Y-140.5
X133.58Y-64.5
X134.0Y-126.42
X134.0Y-136.58
X135.54Y-143.04
X138.32Y-64.4
X142.24Y-129.6
X148.48Y-64.4
X152.4Y-129.6
X156.25Y-112.0
X156.25Y-114.5
X158.5Y-131.5
X160.92Y-135.5
X166.19Y-107.695
X166.19Y-115.315
X168.66Y-131.5
X168.73Y-107.695
X168.73Y-115.315
X171.08Y-135.5
X171.27Y-107.695
X171.27Y-115.315
X172.0Y-129.25
X173.81Y-107.695
X173.81Y-115.315
X174.2Y-93.24
X174.2Y-103.4
X174.5Y-129.25
X179.0Y-94.92
X179.0Y-105.08
X180.0Y-109.75
X180.0Y-112.25
T5
X138.69Y-59.0
X146.31Y-59.0
X169.12Y-64.6
X179.28Y-64.6
T6
X115.54Y-142.4
X118.08Y-142.4
X118.13Y-137.75
X120.62Y-142.4
X120.67Y-137.75
X122.05Y-85.0
X123.16Y-142.4
X123.21Y-137.75
X125.7Y-142.4
X125.75Y-137.75
X126.0Y-93.5
X128.54Y-93.5
X134.05Y-85.0
X139.92Y-126.0
X139.92Y-141.0
X142.46Y-126.0
X142.46Y-141.0
X143.05Y-85.0
X145.0Y-126.0
X145.0Y-141.0
X147.54Y-126.0
X147.54Y-141.0
X150.08Y-126.0
X150.08Y-141.0
X152.62Y-126.0
X152.62Y-141.0
X155.05Y-85.0
X155.16Y-126.0
X155.16Y-141.0
X157.7Y-126.0
X157.7Y-141.0
X160.24Y-126.0
X160.24Y-141.0
X160.96Y-145.5
X162.78Y-126.0
X162.78Y-141.0
X163.5Y-145.5
X164.05Y-85.05
X165.32Y-126.0
X165.32Y-141.0
X167.86Y-126.0
X167.86Y-141.0
X170.4Y-126.0
X170.4Y-141.0
X172.94Y-126.0
X172.94Y-141.0
X175.48Y-126.0
X175.48Y-141.0
X176.05Y-85.05
X177.0Y-145.5
X179.54Y-145.5
T7
X114.2Y-118.0
X114.25Y-124.5
X116.0Y-73.74
X116.0Y-80.0
X116.0Y-93.5
X116.0Y-99.5
X116.0Y-105.5
X125.0Y-111.0
X125.0Y-119.0
X134.0Y-45.5
X134.0Y-52.0
X139.0Y-94.42
X139.0Y-104.58
X142.5Y-45.0
X142.5Y-52.0
X146.5Y-94.34
X146.5Y-104.5
X153.5Y-52.0
X153.5Y-94.42
X153.5Y-104.58
X155.34Y-61.5
X160.82Y-45.2
X162.0Y-52.0
X165.5Y-61.5
X169.96Y-53.5
X170.98Y-45.2
X172.5Y-53.5
X175.04Y-53.5
T8
X116.0Y-87.0
T9
X122.0Y-72.75
X128.0Y-86.95
X134.05Y-72.8
X143.0Y-72.75
X149.0Y-86.95
X155.05Y-72.8
X164.0Y-72.8
X170.0Y-87.0
X176.05Y-72.85
M30
