%TF.GenerationSoftware,KiCad,Pcbnew,9.0.6*%
%TF.CreationDate,2025-12-25T22:54:44+01:00*%
%TF.ProjectId,dummyload,64756d6d-796c-46f6-9164-2e6b69636164,rev?*%
%TF.SameCoordinates,Original*%
%TF.FileFunction,Legend,Top*%
%TF.FilePolarity,Positive*%
%FSLAX46Y46*%
G04 Gerber Fmt 4.6, Leading zero omitted, Abs format (unit mm)*
G04 Created by KiCad (PCBNEW 9.0.6) date 2025-12-25 22:54:44*
%MOMM*%
%LPD*%
G01*
G04 APERTURE LIST*
%ADD10C,0.150000*%
%ADD11C,0.120000*%
G04 APERTURE END LIST*
D10*
X127809523Y-64954819D02*
X127238095Y-64954819D01*
X127523809Y-64954819D02*
X127523809Y-63954819D01*
X127523809Y-63954819D02*
X127428571Y-64097676D01*
X127428571Y-64097676D02*
X127333333Y-64192914D01*
X127333333Y-64192914D02*
X127238095Y-64240533D01*
X128428571Y-63954819D02*
X128523809Y-63954819D01*
X128523809Y-63954819D02*
X128619047Y-64002438D01*
X128619047Y-64002438D02*
X128666666Y-64050057D01*
X128666666Y-64050057D02*
X128714285Y-64145295D01*
X128714285Y-64145295D02*
X128761904Y-64335771D01*
X128761904Y-64335771D02*
X128761904Y-64573866D01*
X128761904Y-64573866D02*
X128714285Y-64764342D01*
X128714285Y-64764342D02*
X128666666Y-64859580D01*
X128666666Y-64859580D02*
X128619047Y-64907200D01*
X128619047Y-64907200D02*
X128523809Y-64954819D01*
X128523809Y-64954819D02*
X128428571Y-64954819D01*
X128428571Y-64954819D02*
X128333333Y-64907200D01*
X128333333Y-64907200D02*
X128285714Y-64859580D01*
X128285714Y-64859580D02*
X128238095Y-64764342D01*
X128238095Y-64764342D02*
X128190476Y-64573866D01*
X128190476Y-64573866D02*
X128190476Y-64335771D01*
X128190476Y-64335771D02*
X128238095Y-64145295D01*
X128238095Y-64145295D02*
X128285714Y-64050057D01*
X128285714Y-64050057D02*
X128333333Y-64002438D01*
X128333333Y-64002438D02*
X128428571Y-63954819D01*
X129190476Y-64954819D02*
X129190476Y-63954819D01*
X129761904Y-64954819D02*
X129333333Y-64383390D01*
X129761904Y-63954819D02*
X129190476Y-64526247D01*
X125000000Y-96907200D02*
X125142857Y-96954819D01*
X125142857Y-96954819D02*
X125380952Y-96954819D01*
X125380952Y-96954819D02*
X125476190Y-96907200D01*
X125476190Y-96907200D02*
X125523809Y-96859580D01*
X125523809Y-96859580D02*
X125571428Y-96764342D01*
X125571428Y-96764342D02*
X125571428Y-96669104D01*
X125571428Y-96669104D02*
X125523809Y-96573866D01*
X125523809Y-96573866D02*
X125476190Y-96526247D01*
X125476190Y-96526247D02*
X125380952Y-96478628D01*
X125380952Y-96478628D02*
X125190476Y-96431009D01*
X125190476Y-96431009D02*
X125095238Y-96383390D01*
X125095238Y-96383390D02*
X125047619Y-96335771D01*
X125047619Y-96335771D02*
X125000000Y-96240533D01*
X125000000Y-96240533D02*
X125000000Y-96145295D01*
X125000000Y-96145295D02*
X125047619Y-96050057D01*
X125047619Y-96050057D02*
X125095238Y-96002438D01*
X125095238Y-96002438D02*
X125190476Y-95954819D01*
X125190476Y-95954819D02*
X125428571Y-95954819D01*
X125428571Y-95954819D02*
X125571428Y-96002438D01*
X125904762Y-95954819D02*
X126142857Y-96954819D01*
X126142857Y-96954819D02*
X126333333Y-96240533D01*
X126333333Y-96240533D02*
X126523809Y-96954819D01*
X126523809Y-96954819D02*
X126761905Y-95954819D01*
X127142857Y-96954819D02*
X127142857Y-95954819D01*
X127476190Y-95954819D02*
X128047618Y-95954819D01*
X127761904Y-96954819D02*
X127761904Y-95954819D01*
X128952380Y-96859580D02*
X128904761Y-96907200D01*
X128904761Y-96907200D02*
X128761904Y-96954819D01*
X128761904Y-96954819D02*
X128666666Y-96954819D01*
X128666666Y-96954819D02*
X128523809Y-96907200D01*
X128523809Y-96907200D02*
X128428571Y-96811961D01*
X128428571Y-96811961D02*
X128380952Y-96716723D01*
X128380952Y-96716723D02*
X128333333Y-96526247D01*
X128333333Y-96526247D02*
X128333333Y-96383390D01*
X128333333Y-96383390D02*
X128380952Y-96192914D01*
X128380952Y-96192914D02*
X128428571Y-96097676D01*
X128428571Y-96097676D02*
X128523809Y-96002438D01*
X128523809Y-96002438D02*
X128666666Y-95954819D01*
X128666666Y-95954819D02*
X128761904Y-95954819D01*
X128761904Y-95954819D02*
X128904761Y-96002438D01*
X128904761Y-96002438D02*
X128952380Y-96050057D01*
X129380952Y-96954819D02*
X129380952Y-95954819D01*
X129380952Y-96431009D02*
X129952380Y-96431009D01*
X129952380Y-96954819D02*
X129952380Y-95954819D01*
X130535714Y-121340057D02*
X130583333Y-121292438D01*
X130583333Y-121292438D02*
X130678571Y-121244819D01*
X130678571Y-121244819D02*
X130916666Y-121244819D01*
X130916666Y-121244819D02*
X131011904Y-121292438D01*
X131011904Y-121292438D02*
X131059523Y-121340057D01*
X131059523Y-121340057D02*
X131107142Y-121435295D01*
X131107142Y-121435295D02*
X131107142Y-121530533D01*
X131107142Y-121530533D02*
X131059523Y-121673390D01*
X131059523Y-121673390D02*
X130488095Y-122244819D01*
X130488095Y-122244819D02*
X131107142Y-122244819D01*
X131535714Y-122244819D02*
X131535714Y-121244819D01*
X131535714Y-121244819D02*
X132107142Y-122244819D01*
X132107142Y-122244819D02*
X132107142Y-121244819D01*
X132488095Y-121244819D02*
X133107142Y-121244819D01*
X133107142Y-121244819D02*
X132773809Y-121625771D01*
X132773809Y-121625771D02*
X132916666Y-121625771D01*
X132916666Y-121625771D02*
X133011904Y-121673390D01*
X133011904Y-121673390D02*
X133059523Y-121721009D01*
X133059523Y-121721009D02*
X133107142Y-121816247D01*
X133107142Y-121816247D02*
X133107142Y-122054342D01*
X133107142Y-122054342D02*
X133059523Y-122149580D01*
X133059523Y-122149580D02*
X133011904Y-122197200D01*
X133011904Y-122197200D02*
X132916666Y-122244819D01*
X132916666Y-122244819D02*
X132630952Y-122244819D01*
X132630952Y-122244819D02*
X132535714Y-122197200D01*
X132535714Y-122197200D02*
X132488095Y-122149580D01*
X133583333Y-122244819D02*
X133773809Y-122244819D01*
X133773809Y-122244819D02*
X133869047Y-122197200D01*
X133869047Y-122197200D02*
X133916666Y-122149580D01*
X133916666Y-122149580D02*
X134011904Y-122006723D01*
X134011904Y-122006723D02*
X134059523Y-121816247D01*
X134059523Y-121816247D02*
X134059523Y-121435295D01*
X134059523Y-121435295D02*
X134011904Y-121340057D01*
X134011904Y-121340057D02*
X133964285Y-121292438D01*
X133964285Y-121292438D02*
X133869047Y-121244819D01*
X133869047Y-121244819D02*
X133678571Y-121244819D01*
X133678571Y-121244819D02*
X133583333Y-121292438D01*
X133583333Y-121292438D02*
X133535714Y-121340057D01*
X133535714Y-121340057D02*
X133488095Y-121435295D01*
X133488095Y-121435295D02*
X133488095Y-121673390D01*
X133488095Y-121673390D02*
X133535714Y-121768628D01*
X133535714Y-121768628D02*
X133583333Y-121816247D01*
X133583333Y-121816247D02*
X133678571Y-121863866D01*
X133678571Y-121863866D02*
X133869047Y-121863866D01*
X133869047Y-121863866D02*
X133964285Y-121816247D01*
X133964285Y-121816247D02*
X134011904Y-121768628D01*
X134011904Y-121768628D02*
X134059523Y-121673390D01*
X134678571Y-121244819D02*
X134773809Y-121244819D01*
X134773809Y-121244819D02*
X134869047Y-121292438D01*
X134869047Y-121292438D02*
X134916666Y-121340057D01*
X134916666Y-121340057D02*
X134964285Y-121435295D01*
X134964285Y-121435295D02*
X135011904Y-121625771D01*
X135011904Y-121625771D02*
X135011904Y-121863866D01*
X135011904Y-121863866D02*
X134964285Y-122054342D01*
X134964285Y-122054342D02*
X134916666Y-122149580D01*
X134916666Y-122149580D02*
X134869047Y-122197200D01*
X134869047Y-122197200D02*
X134773809Y-122244819D01*
X134773809Y-122244819D02*
X134678571Y-122244819D01*
X134678571Y-122244819D02*
X134583333Y-122197200D01*
X134583333Y-122197200D02*
X134535714Y-122149580D01*
X134535714Y-122149580D02*
X134488095Y-122054342D01*
X134488095Y-122054342D02*
X134440476Y-121863866D01*
X134440476Y-121863866D02*
X134440476Y-121625771D01*
X134440476Y-121625771D02*
X134488095Y-121435295D01*
X134488095Y-121435295D02*
X134535714Y-121340057D01*
X134535714Y-121340057D02*
X134583333Y-121292438D01*
X134583333Y-121292438D02*
X134678571Y-121244819D01*
X135869047Y-121578152D02*
X135869047Y-122244819D01*
X135630952Y-121197200D02*
X135392857Y-121911485D01*
X135392857Y-121911485D02*
X136011904Y-121911485D01*
X120454819Y-122797619D02*
X120454819Y-123369047D01*
X120454819Y-123083333D02*
X119454819Y-123083333D01*
X119454819Y-123083333D02*
X119597676Y-123178571D01*
X119597676Y-123178571D02*
X119692914Y-123273809D01*
X119692914Y-123273809D02*
X119740533Y-123369047D01*
X119454819Y-122178571D02*
X119454819Y-122083333D01*
X119454819Y-122083333D02*
X119502438Y-121988095D01*
X119502438Y-121988095D02*
X119550057Y-121940476D01*
X119550057Y-121940476D02*
X119645295Y-121892857D01*
X119645295Y-121892857D02*
X119835771Y-121845238D01*
X119835771Y-121845238D02*
X120073866Y-121845238D01*
X120073866Y-121845238D02*
X120264342Y-121892857D01*
X120264342Y-121892857D02*
X120359580Y-121940476D01*
X120359580Y-121940476D02*
X120407200Y-121988095D01*
X120407200Y-121988095D02*
X120454819Y-122083333D01*
X120454819Y-122083333D02*
X120454819Y-122178571D01*
X120454819Y-122178571D02*
X120407200Y-122273809D01*
X120407200Y-122273809D02*
X120359580Y-122321428D01*
X120359580Y-122321428D02*
X120264342Y-122369047D01*
X120264342Y-122369047D02*
X120073866Y-122416666D01*
X120073866Y-122416666D02*
X119835771Y-122416666D01*
X119835771Y-122416666D02*
X119645295Y-122369047D01*
X119645295Y-122369047D02*
X119550057Y-122321428D01*
X119550057Y-122321428D02*
X119502438Y-122273809D01*
X119502438Y-122273809D02*
X119454819Y-122178571D01*
X119454819Y-121226190D02*
X119454819Y-121130952D01*
X119454819Y-121130952D02*
X119502438Y-121035714D01*
X119502438Y-121035714D02*
X119550057Y-120988095D01*
X119550057Y-120988095D02*
X119645295Y-120940476D01*
X119645295Y-120940476D02*
X119835771Y-120892857D01*
X119835771Y-120892857D02*
X120073866Y-120892857D01*
X120073866Y-120892857D02*
X120264342Y-120940476D01*
X120264342Y-120940476D02*
X120359580Y-120988095D01*
X120359580Y-120988095D02*
X120407200Y-121035714D01*
X120407200Y-121035714D02*
X120454819Y-121130952D01*
X120454819Y-121130952D02*
X120454819Y-121226190D01*
X120454819Y-121226190D02*
X120407200Y-121321428D01*
X120407200Y-121321428D02*
X120359580Y-121369047D01*
X120359580Y-121369047D02*
X120264342Y-121416666D01*
X120264342Y-121416666D02*
X120073866Y-121464285D01*
X120073866Y-121464285D02*
X119835771Y-121464285D01*
X119835771Y-121464285D02*
X119645295Y-121416666D01*
X119645295Y-121416666D02*
X119550057Y-121369047D01*
X119550057Y-121369047D02*
X119502438Y-121321428D01*
X119502438Y-121321428D02*
X119454819Y-121226190D01*
X119788152Y-120464285D02*
X120454819Y-120464285D01*
X119883390Y-120464285D02*
X119835771Y-120416666D01*
X119835771Y-120416666D02*
X119788152Y-120321428D01*
X119788152Y-120321428D02*
X119788152Y-120178571D01*
X119788152Y-120178571D02*
X119835771Y-120083333D01*
X119835771Y-120083333D02*
X119931009Y-120035714D01*
X119931009Y-120035714D02*
X120454819Y-120035714D01*
X119931009Y-119226190D02*
X119931009Y-119559523D01*
X120454819Y-119559523D02*
X119454819Y-119559523D01*
X119454819Y-119559523D02*
X119454819Y-119083333D01*
X161404761Y-123454819D02*
X160833333Y-123454819D01*
X161119047Y-123454819D02*
X161119047Y-122454819D01*
X161119047Y-122454819D02*
X161023809Y-122597676D01*
X161023809Y-122597676D02*
X160928571Y-122692914D01*
X160928571Y-122692914D02*
X160833333Y-122740533D01*
X162261904Y-122788152D02*
X162261904Y-123454819D01*
X161833333Y-122788152D02*
X161833333Y-123311961D01*
X161833333Y-123311961D02*
X161880952Y-123407200D01*
X161880952Y-123407200D02*
X161976190Y-123454819D01*
X161976190Y-123454819D02*
X162119047Y-123454819D01*
X162119047Y-123454819D02*
X162214285Y-123407200D01*
X162214285Y-123407200D02*
X162261904Y-123359580D01*
X163071428Y-122931009D02*
X162738095Y-122931009D01*
X162738095Y-123454819D02*
X162738095Y-122454819D01*
X162738095Y-122454819D02*
X163214285Y-122454819D01*
X144484819Y-101562857D02*
X144484819Y-102134285D01*
X144484819Y-101848571D02*
X143484819Y-101848571D01*
X143484819Y-101848571D02*
X143627676Y-101943809D01*
X143627676Y-101943809D02*
X143722914Y-102039047D01*
X143722914Y-102039047D02*
X143770533Y-102134285D01*
X144484819Y-101134285D02*
X143484819Y-101134285D01*
X143484819Y-101134285D02*
X144484819Y-100562857D01*
X144484819Y-100562857D02*
X143484819Y-100562857D01*
X143818152Y-99658095D02*
X144484819Y-99658095D01*
X143437200Y-99896190D02*
X144151485Y-100134285D01*
X144151485Y-100134285D02*
X144151485Y-99515238D01*
X143484819Y-98943809D02*
X143484819Y-98848571D01*
X143484819Y-98848571D02*
X143532438Y-98753333D01*
X143532438Y-98753333D02*
X143580057Y-98705714D01*
X143580057Y-98705714D02*
X143675295Y-98658095D01*
X143675295Y-98658095D02*
X143865771Y-98610476D01*
X143865771Y-98610476D02*
X144103866Y-98610476D01*
X144103866Y-98610476D02*
X144294342Y-98658095D01*
X144294342Y-98658095D02*
X144389580Y-98705714D01*
X144389580Y-98705714D02*
X144437200Y-98753333D01*
X144437200Y-98753333D02*
X144484819Y-98848571D01*
X144484819Y-98848571D02*
X144484819Y-98943809D01*
X144484819Y-98943809D02*
X144437200Y-99039047D01*
X144437200Y-99039047D02*
X144389580Y-99086666D01*
X144389580Y-99086666D02*
X144294342Y-99134285D01*
X144294342Y-99134285D02*
X144103866Y-99181904D01*
X144103866Y-99181904D02*
X143865771Y-99181904D01*
X143865771Y-99181904D02*
X143675295Y-99134285D01*
X143675295Y-99134285D02*
X143580057Y-99086666D01*
X143580057Y-99086666D02*
X143532438Y-99039047D01*
X143532438Y-99039047D02*
X143484819Y-98943809D01*
X143484819Y-97991428D02*
X143484819Y-97896190D01*
X143484819Y-97896190D02*
X143532438Y-97800952D01*
X143532438Y-97800952D02*
X143580057Y-97753333D01*
X143580057Y-97753333D02*
X143675295Y-97705714D01*
X143675295Y-97705714D02*
X143865771Y-97658095D01*
X143865771Y-97658095D02*
X144103866Y-97658095D01*
X144103866Y-97658095D02*
X144294342Y-97705714D01*
X144294342Y-97705714D02*
X144389580Y-97753333D01*
X144389580Y-97753333D02*
X144437200Y-97800952D01*
X144437200Y-97800952D02*
X144484819Y-97896190D01*
X144484819Y-97896190D02*
X144484819Y-97991428D01*
X144484819Y-97991428D02*
X144437200Y-98086666D01*
X144437200Y-98086666D02*
X144389580Y-98134285D01*
X144389580Y-98134285D02*
X144294342Y-98181904D01*
X144294342Y-98181904D02*
X144103866Y-98229523D01*
X144103866Y-98229523D02*
X143865771Y-98229523D01*
X143865771Y-98229523D02*
X143675295Y-98181904D01*
X143675295Y-98181904D02*
X143580057Y-98134285D01*
X143580057Y-98134285D02*
X143532438Y-98086666D01*
X143532438Y-98086666D02*
X143484819Y-97991428D01*
X143484819Y-97324761D02*
X143484819Y-96658095D01*
X143484819Y-96658095D02*
X144484819Y-97086666D01*
X149054819Y-94601904D02*
X148054819Y-94601904D01*
X149054819Y-94030476D02*
X148483390Y-94459047D01*
X148054819Y-94030476D02*
X148626247Y-94601904D01*
X153309524Y-144954819D02*
X153642857Y-145954819D01*
X153642857Y-145954819D02*
X153976190Y-144954819D01*
X154500000Y-144954819D02*
X154690476Y-144954819D01*
X154690476Y-144954819D02*
X154785714Y-145002438D01*
X154785714Y-145002438D02*
X154880952Y-145097676D01*
X154880952Y-145097676D02*
X154928571Y-145288152D01*
X154928571Y-145288152D02*
X154928571Y-145621485D01*
X154928571Y-145621485D02*
X154880952Y-145811961D01*
X154880952Y-145811961D02*
X154785714Y-145907200D01*
X154785714Y-145907200D02*
X154690476Y-145954819D01*
X154690476Y-145954819D02*
X154500000Y-145954819D01*
X154500000Y-145954819D02*
X154404762Y-145907200D01*
X154404762Y-145907200D02*
X154309524Y-145811961D01*
X154309524Y-145811961D02*
X154261905Y-145621485D01*
X154261905Y-145621485D02*
X154261905Y-145288152D01*
X154261905Y-145288152D02*
X154309524Y-145097676D01*
X154309524Y-145097676D02*
X154404762Y-145002438D01*
X154404762Y-145002438D02*
X154500000Y-144954819D01*
X155833333Y-145954819D02*
X155357143Y-145954819D01*
X155357143Y-145954819D02*
X155357143Y-144954819D01*
X155928572Y-146050057D02*
X156690476Y-146050057D01*
X156880953Y-145907200D02*
X157023810Y-145954819D01*
X157023810Y-145954819D02*
X157261905Y-145954819D01*
X157261905Y-145954819D02*
X157357143Y-145907200D01*
X157357143Y-145907200D02*
X157404762Y-145859580D01*
X157404762Y-145859580D02*
X157452381Y-145764342D01*
X157452381Y-145764342D02*
X157452381Y-145669104D01*
X157452381Y-145669104D02*
X157404762Y-145573866D01*
X157404762Y-145573866D02*
X157357143Y-145526247D01*
X157357143Y-145526247D02*
X157261905Y-145478628D01*
X157261905Y-145478628D02*
X157071429Y-145431009D01*
X157071429Y-145431009D02*
X156976191Y-145383390D01*
X156976191Y-145383390D02*
X156928572Y-145335771D01*
X156928572Y-145335771D02*
X156880953Y-145240533D01*
X156880953Y-145240533D02*
X156880953Y-145145295D01*
X156880953Y-145145295D02*
X156928572Y-145050057D01*
X156928572Y-145050057D02*
X156976191Y-145002438D01*
X156976191Y-145002438D02*
X157071429Y-144954819D01*
X157071429Y-144954819D02*
X157309524Y-144954819D01*
X157309524Y-144954819D02*
X157452381Y-145002438D01*
X157785715Y-144954819D02*
X158023810Y-145954819D01*
X158023810Y-145954819D02*
X158214286Y-145240533D01*
X158214286Y-145240533D02*
X158404762Y-145954819D01*
X158404762Y-145954819D02*
X158642858Y-144954819D01*
X148704819Y-114095238D02*
X148704819Y-114666666D01*
X148704819Y-114380952D02*
X147704819Y-114380952D01*
X147704819Y-114380952D02*
X147847676Y-114476190D01*
X147847676Y-114476190D02*
X147942914Y-114571428D01*
X147942914Y-114571428D02*
X147990533Y-114666666D01*
X148038152Y-113238095D02*
X148704819Y-113238095D01*
X148038152Y-113666666D02*
X148561961Y-113666666D01*
X148561961Y-113666666D02*
X148657200Y-113619047D01*
X148657200Y-113619047D02*
X148704819Y-113523809D01*
X148704819Y-113523809D02*
X148704819Y-113380952D01*
X148704819Y-113380952D02*
X148657200Y-113285714D01*
X148657200Y-113285714D02*
X148609580Y-113238095D01*
X148181009Y-112428571D02*
X148181009Y-112761904D01*
X148704819Y-112761904D02*
X147704819Y-112761904D01*
X147704819Y-112761904D02*
X147704819Y-112285714D01*
X136984819Y-101642857D02*
X136984819Y-102214285D01*
X136984819Y-101928571D02*
X135984819Y-101928571D01*
X135984819Y-101928571D02*
X136127676Y-102023809D01*
X136127676Y-102023809D02*
X136222914Y-102119047D01*
X136222914Y-102119047D02*
X136270533Y-102214285D01*
X136984819Y-101214285D02*
X135984819Y-101214285D01*
X135984819Y-101214285D02*
X136984819Y-100642857D01*
X136984819Y-100642857D02*
X135984819Y-100642857D01*
X136318152Y-99738095D02*
X136984819Y-99738095D01*
X135937200Y-99976190D02*
X136651485Y-100214285D01*
X136651485Y-100214285D02*
X136651485Y-99595238D01*
X135984819Y-99023809D02*
X135984819Y-98928571D01*
X135984819Y-98928571D02*
X136032438Y-98833333D01*
X136032438Y-98833333D02*
X136080057Y-98785714D01*
X136080057Y-98785714D02*
X136175295Y-98738095D01*
X136175295Y-98738095D02*
X136365771Y-98690476D01*
X136365771Y-98690476D02*
X136603866Y-98690476D01*
X136603866Y-98690476D02*
X136794342Y-98738095D01*
X136794342Y-98738095D02*
X136889580Y-98785714D01*
X136889580Y-98785714D02*
X136937200Y-98833333D01*
X136937200Y-98833333D02*
X136984819Y-98928571D01*
X136984819Y-98928571D02*
X136984819Y-99023809D01*
X136984819Y-99023809D02*
X136937200Y-99119047D01*
X136937200Y-99119047D02*
X136889580Y-99166666D01*
X136889580Y-99166666D02*
X136794342Y-99214285D01*
X136794342Y-99214285D02*
X136603866Y-99261904D01*
X136603866Y-99261904D02*
X136365771Y-99261904D01*
X136365771Y-99261904D02*
X136175295Y-99214285D01*
X136175295Y-99214285D02*
X136080057Y-99166666D01*
X136080057Y-99166666D02*
X136032438Y-99119047D01*
X136032438Y-99119047D02*
X135984819Y-99023809D01*
X135984819Y-98071428D02*
X135984819Y-97976190D01*
X135984819Y-97976190D02*
X136032438Y-97880952D01*
X136032438Y-97880952D02*
X136080057Y-97833333D01*
X136080057Y-97833333D02*
X136175295Y-97785714D01*
X136175295Y-97785714D02*
X136365771Y-97738095D01*
X136365771Y-97738095D02*
X136603866Y-97738095D01*
X136603866Y-97738095D02*
X136794342Y-97785714D01*
X136794342Y-97785714D02*
X136889580Y-97833333D01*
X136889580Y-97833333D02*
X136937200Y-97880952D01*
X136937200Y-97880952D02*
X136984819Y-97976190D01*
X136984819Y-97976190D02*
X136984819Y-98071428D01*
X136984819Y-98071428D02*
X136937200Y-98166666D01*
X136937200Y-98166666D02*
X136889580Y-98214285D01*
X136889580Y-98214285D02*
X136794342Y-98261904D01*
X136794342Y-98261904D02*
X136603866Y-98309523D01*
X136603866Y-98309523D02*
X136365771Y-98309523D01*
X136365771Y-98309523D02*
X136175295Y-98261904D01*
X136175295Y-98261904D02*
X136080057Y-98214285D01*
X136080057Y-98214285D02*
X136032438Y-98166666D01*
X136032438Y-98166666D02*
X135984819Y-98071428D01*
X135984819Y-97404761D02*
X135984819Y-96738095D01*
X135984819Y-96738095D02*
X136984819Y-97166666D01*
X141554819Y-94681904D02*
X140554819Y-94681904D01*
X141554819Y-94110476D02*
X140983390Y-94539047D01*
X140554819Y-94110476D02*
X141126247Y-94681904D01*
X173580952Y-65054819D02*
X173009524Y-65054819D01*
X173295238Y-65054819D02*
X173295238Y-64054819D01*
X173295238Y-64054819D02*
X173200000Y-64197676D01*
X173200000Y-64197676D02*
X173104762Y-64292914D01*
X173104762Y-64292914D02*
X173009524Y-64340533D01*
X174485714Y-64054819D02*
X174009524Y-64054819D01*
X174009524Y-64054819D02*
X173961905Y-64531009D01*
X173961905Y-64531009D02*
X174009524Y-64483390D01*
X174009524Y-64483390D02*
X174104762Y-64435771D01*
X174104762Y-64435771D02*
X174342857Y-64435771D01*
X174342857Y-64435771D02*
X174438095Y-64483390D01*
X174438095Y-64483390D02*
X174485714Y-64531009D01*
X174485714Y-64531009D02*
X174533333Y-64626247D01*
X174533333Y-64626247D02*
X174533333Y-64864342D01*
X174533333Y-64864342D02*
X174485714Y-64959580D01*
X174485714Y-64959580D02*
X174438095Y-65007200D01*
X174438095Y-65007200D02*
X174342857Y-65054819D01*
X174342857Y-65054819D02*
X174104762Y-65054819D01*
X174104762Y-65054819D02*
X174009524Y-65007200D01*
X174009524Y-65007200D02*
X173961905Y-64959580D01*
X174819048Y-64054819D02*
X175152381Y-65054819D01*
X175152381Y-65054819D02*
X175485714Y-64054819D01*
X179018095Y-66954819D02*
X179018095Y-65954819D01*
X179589523Y-66954819D02*
X179160952Y-66383390D01*
X179589523Y-65954819D02*
X179018095Y-66526247D01*
X113438095Y-119752438D02*
X113342857Y-119704819D01*
X113342857Y-119704819D02*
X113200000Y-119704819D01*
X113200000Y-119704819D02*
X113057143Y-119752438D01*
X113057143Y-119752438D02*
X112961905Y-119847676D01*
X112961905Y-119847676D02*
X112914286Y-119942914D01*
X112914286Y-119942914D02*
X112866667Y-120133390D01*
X112866667Y-120133390D02*
X112866667Y-120276247D01*
X112866667Y-120276247D02*
X112914286Y-120466723D01*
X112914286Y-120466723D02*
X112961905Y-120561961D01*
X112961905Y-120561961D02*
X113057143Y-120657200D01*
X113057143Y-120657200D02*
X113200000Y-120704819D01*
X113200000Y-120704819D02*
X113295238Y-120704819D01*
X113295238Y-120704819D02*
X113438095Y-120657200D01*
X113438095Y-120657200D02*
X113485714Y-120609580D01*
X113485714Y-120609580D02*
X113485714Y-120276247D01*
X113485714Y-120276247D02*
X113295238Y-120276247D01*
X113914286Y-120704819D02*
X113914286Y-119704819D01*
X113914286Y-119704819D02*
X114485714Y-120704819D01*
X114485714Y-120704819D02*
X114485714Y-119704819D01*
X114961905Y-120704819D02*
X114961905Y-119704819D01*
X114961905Y-119704819D02*
X115200000Y-119704819D01*
X115200000Y-119704819D02*
X115342857Y-119752438D01*
X115342857Y-119752438D02*
X115438095Y-119847676D01*
X115438095Y-119847676D02*
X115485714Y-119942914D01*
X115485714Y-119942914D02*
X115533333Y-120133390D01*
X115533333Y-120133390D02*
X115533333Y-120276247D01*
X115533333Y-120276247D02*
X115485714Y-120466723D01*
X115485714Y-120466723D02*
X115438095Y-120561961D01*
X115438095Y-120561961D02*
X115342857Y-120657200D01*
X115342857Y-120657200D02*
X115200000Y-120704819D01*
X115200000Y-120704819D02*
X114961905Y-120704819D01*
X112761905Y-102204819D02*
X112761905Y-101204819D01*
X113238095Y-102204819D02*
X113238095Y-101204819D01*
X113238095Y-101204819D02*
X113809523Y-102204819D01*
X113809523Y-102204819D02*
X113809523Y-101204819D01*
X114238095Y-101919104D02*
X114714285Y-101919104D01*
X114142857Y-102204819D02*
X114476190Y-101204819D01*
X114476190Y-101204819D02*
X114809523Y-102204819D01*
X115095238Y-101300057D02*
X115142857Y-101252438D01*
X115142857Y-101252438D02*
X115238095Y-101204819D01*
X115238095Y-101204819D02*
X115476190Y-101204819D01*
X115476190Y-101204819D02*
X115571428Y-101252438D01*
X115571428Y-101252438D02*
X115619047Y-101300057D01*
X115619047Y-101300057D02*
X115666666Y-101395295D01*
X115666666Y-101395295D02*
X115666666Y-101490533D01*
X115666666Y-101490533D02*
X115619047Y-101633390D01*
X115619047Y-101633390D02*
X115047619Y-102204819D01*
X115047619Y-102204819D02*
X115666666Y-102204819D01*
X116619047Y-102204819D02*
X116047619Y-102204819D01*
X116333333Y-102204819D02*
X116333333Y-101204819D01*
X116333333Y-101204819D02*
X116238095Y-101347676D01*
X116238095Y-101347676D02*
X116142857Y-101442914D01*
X116142857Y-101442914D02*
X116047619Y-101490533D01*
X117095238Y-102204819D02*
X117285714Y-102204819D01*
X117285714Y-102204819D02*
X117380952Y-102157200D01*
X117380952Y-102157200D02*
X117428571Y-102109580D01*
X117428571Y-102109580D02*
X117523809Y-101966723D01*
X117523809Y-101966723D02*
X117571428Y-101776247D01*
X117571428Y-101776247D02*
X117571428Y-101395295D01*
X117571428Y-101395295D02*
X117523809Y-101300057D01*
X117523809Y-101300057D02*
X117476190Y-101252438D01*
X117476190Y-101252438D02*
X117380952Y-101204819D01*
X117380952Y-101204819D02*
X117190476Y-101204819D01*
X117190476Y-101204819D02*
X117095238Y-101252438D01*
X117095238Y-101252438D02*
X117047619Y-101300057D01*
X117047619Y-101300057D02*
X117000000Y-101395295D01*
X117000000Y-101395295D02*
X117000000Y-101633390D01*
X117000000Y-101633390D02*
X117047619Y-101728628D01*
X117047619Y-101728628D02*
X117095238Y-101776247D01*
X117095238Y-101776247D02*
X117190476Y-101823866D01*
X117190476Y-101823866D02*
X117380952Y-101823866D01*
X117380952Y-101823866D02*
X117476190Y-101776247D01*
X117476190Y-101776247D02*
X117523809Y-101728628D01*
X117523809Y-101728628D02*
X117571428Y-101633390D01*
X117761905Y-102300057D02*
X118523809Y-102300057D01*
X119285714Y-102204819D02*
X118714286Y-102204819D01*
X119000000Y-102204819D02*
X119000000Y-101204819D01*
X119000000Y-101204819D02*
X118904762Y-101347676D01*
X118904762Y-101347676D02*
X118809524Y-101442914D01*
X118809524Y-101442914D02*
X118714286Y-101490533D01*
X138535714Y-121340057D02*
X138583333Y-121292438D01*
X138583333Y-121292438D02*
X138678571Y-121244819D01*
X138678571Y-121244819D02*
X138916666Y-121244819D01*
X138916666Y-121244819D02*
X139011904Y-121292438D01*
X139011904Y-121292438D02*
X139059523Y-121340057D01*
X139059523Y-121340057D02*
X139107142Y-121435295D01*
X139107142Y-121435295D02*
X139107142Y-121530533D01*
X139107142Y-121530533D02*
X139059523Y-121673390D01*
X139059523Y-121673390D02*
X138488095Y-122244819D01*
X138488095Y-122244819D02*
X139107142Y-122244819D01*
X139535714Y-122244819D02*
X139535714Y-121244819D01*
X139535714Y-121244819D02*
X140107142Y-122244819D01*
X140107142Y-122244819D02*
X140107142Y-121244819D01*
X140488095Y-121244819D02*
X141107142Y-121244819D01*
X141107142Y-121244819D02*
X140773809Y-121625771D01*
X140773809Y-121625771D02*
X140916666Y-121625771D01*
X140916666Y-121625771D02*
X141011904Y-121673390D01*
X141011904Y-121673390D02*
X141059523Y-121721009D01*
X141059523Y-121721009D02*
X141107142Y-121816247D01*
X141107142Y-121816247D02*
X141107142Y-122054342D01*
X141107142Y-122054342D02*
X141059523Y-122149580D01*
X141059523Y-122149580D02*
X141011904Y-122197200D01*
X141011904Y-122197200D02*
X140916666Y-122244819D01*
X140916666Y-122244819D02*
X140630952Y-122244819D01*
X140630952Y-122244819D02*
X140535714Y-122197200D01*
X140535714Y-122197200D02*
X140488095Y-122149580D01*
X141583333Y-122244819D02*
X141773809Y-122244819D01*
X141773809Y-122244819D02*
X141869047Y-122197200D01*
X141869047Y-122197200D02*
X141916666Y-122149580D01*
X141916666Y-122149580D02*
X142011904Y-122006723D01*
X142011904Y-122006723D02*
X142059523Y-121816247D01*
X142059523Y-121816247D02*
X142059523Y-121435295D01*
X142059523Y-121435295D02*
X142011904Y-121340057D01*
X142011904Y-121340057D02*
X141964285Y-121292438D01*
X141964285Y-121292438D02*
X141869047Y-121244819D01*
X141869047Y-121244819D02*
X141678571Y-121244819D01*
X141678571Y-121244819D02*
X141583333Y-121292438D01*
X141583333Y-121292438D02*
X141535714Y-121340057D01*
X141535714Y-121340057D02*
X141488095Y-121435295D01*
X141488095Y-121435295D02*
X141488095Y-121673390D01*
X141488095Y-121673390D02*
X141535714Y-121768628D01*
X141535714Y-121768628D02*
X141583333Y-121816247D01*
X141583333Y-121816247D02*
X141678571Y-121863866D01*
X141678571Y-121863866D02*
X141869047Y-121863866D01*
X141869047Y-121863866D02*
X141964285Y-121816247D01*
X141964285Y-121816247D02*
X142011904Y-121768628D01*
X142011904Y-121768628D02*
X142059523Y-121673390D01*
X142678571Y-121244819D02*
X142773809Y-121244819D01*
X142773809Y-121244819D02*
X142869047Y-121292438D01*
X142869047Y-121292438D02*
X142916666Y-121340057D01*
X142916666Y-121340057D02*
X142964285Y-121435295D01*
X142964285Y-121435295D02*
X143011904Y-121625771D01*
X143011904Y-121625771D02*
X143011904Y-121863866D01*
X143011904Y-121863866D02*
X142964285Y-122054342D01*
X142964285Y-122054342D02*
X142916666Y-122149580D01*
X142916666Y-122149580D02*
X142869047Y-122197200D01*
X142869047Y-122197200D02*
X142773809Y-122244819D01*
X142773809Y-122244819D02*
X142678571Y-122244819D01*
X142678571Y-122244819D02*
X142583333Y-122197200D01*
X142583333Y-122197200D02*
X142535714Y-122149580D01*
X142535714Y-122149580D02*
X142488095Y-122054342D01*
X142488095Y-122054342D02*
X142440476Y-121863866D01*
X142440476Y-121863866D02*
X142440476Y-121625771D01*
X142440476Y-121625771D02*
X142488095Y-121435295D01*
X142488095Y-121435295D02*
X142535714Y-121340057D01*
X142535714Y-121340057D02*
X142583333Y-121292438D01*
X142583333Y-121292438D02*
X142678571Y-121244819D01*
X143869047Y-121578152D02*
X143869047Y-122244819D01*
X143630952Y-121197200D02*
X143392857Y-121911485D01*
X143392857Y-121911485D02*
X144011904Y-121911485D01*
X113664819Y-145161904D02*
X112664819Y-145161904D01*
X112664819Y-145161904D02*
X113664819Y-144590476D01*
X113664819Y-144590476D02*
X112664819Y-144590476D01*
X113569580Y-143542857D02*
X113617200Y-143590476D01*
X113617200Y-143590476D02*
X113664819Y-143733333D01*
X113664819Y-143733333D02*
X113664819Y-143828571D01*
X113664819Y-143828571D02*
X113617200Y-143971428D01*
X113617200Y-143971428D02*
X113521961Y-144066666D01*
X113521961Y-144066666D02*
X113426723Y-144114285D01*
X113426723Y-144114285D02*
X113236247Y-144161904D01*
X113236247Y-144161904D02*
X113093390Y-144161904D01*
X113093390Y-144161904D02*
X112902914Y-144114285D01*
X112902914Y-144114285D02*
X112807676Y-144066666D01*
X112807676Y-144066666D02*
X112712438Y-143971428D01*
X112712438Y-143971428D02*
X112664819Y-143828571D01*
X112664819Y-143828571D02*
X112664819Y-143733333D01*
X112664819Y-143733333D02*
X112712438Y-143590476D01*
X112712438Y-143590476D02*
X112760057Y-143542857D01*
X112664819Y-142923809D02*
X112664819Y-142733333D01*
X112664819Y-142733333D02*
X112712438Y-142638095D01*
X112712438Y-142638095D02*
X112807676Y-142542857D01*
X112807676Y-142542857D02*
X112998152Y-142495238D01*
X112998152Y-142495238D02*
X113331485Y-142495238D01*
X113331485Y-142495238D02*
X113521961Y-142542857D01*
X113521961Y-142542857D02*
X113617200Y-142638095D01*
X113617200Y-142638095D02*
X113664819Y-142733333D01*
X113664819Y-142733333D02*
X113664819Y-142923809D01*
X113664819Y-142923809D02*
X113617200Y-143019047D01*
X113617200Y-143019047D02*
X113521961Y-143114285D01*
X113521961Y-143114285D02*
X113331485Y-143161904D01*
X113331485Y-143161904D02*
X112998152Y-143161904D01*
X112998152Y-143161904D02*
X112807676Y-143114285D01*
X112807676Y-143114285D02*
X112712438Y-143019047D01*
X112712438Y-143019047D02*
X112664819Y-142923809D01*
X113664819Y-142066666D02*
X112664819Y-142066666D01*
X112664819Y-142066666D02*
X112664819Y-141828571D01*
X112664819Y-141828571D02*
X112712438Y-141685714D01*
X112712438Y-141685714D02*
X112807676Y-141590476D01*
X112807676Y-141590476D02*
X112902914Y-141542857D01*
X112902914Y-141542857D02*
X113093390Y-141495238D01*
X113093390Y-141495238D02*
X113236247Y-141495238D01*
X113236247Y-141495238D02*
X113426723Y-141542857D01*
X113426723Y-141542857D02*
X113521961Y-141590476D01*
X113521961Y-141590476D02*
X113617200Y-141685714D01*
X113617200Y-141685714D02*
X113664819Y-141828571D01*
X113664819Y-141828571D02*
X113664819Y-142066666D01*
X113141009Y-141066666D02*
X113141009Y-140733333D01*
X113664819Y-140590476D02*
X113664819Y-141066666D01*
X113664819Y-141066666D02*
X112664819Y-141066666D01*
X112664819Y-141066666D02*
X112664819Y-140590476D01*
X113664819Y-139590476D02*
X113188628Y-139923809D01*
X113664819Y-140161904D02*
X112664819Y-140161904D01*
X112664819Y-140161904D02*
X112664819Y-139780952D01*
X112664819Y-139780952D02*
X112712438Y-139685714D01*
X112712438Y-139685714D02*
X112760057Y-139638095D01*
X112760057Y-139638095D02*
X112855295Y-139590476D01*
X112855295Y-139590476D02*
X112998152Y-139590476D01*
X112998152Y-139590476D02*
X113093390Y-139638095D01*
X113093390Y-139638095D02*
X113141009Y-139685714D01*
X113141009Y-139685714D02*
X113188628Y-139780952D01*
X113188628Y-139780952D02*
X113188628Y-140161904D01*
X165238095Y-135288152D02*
X165238095Y-135954819D01*
X165000000Y-134907200D02*
X164761905Y-135621485D01*
X164761905Y-135621485D02*
X165380952Y-135621485D01*
X165666667Y-134954819D02*
X166333333Y-134954819D01*
X166333333Y-134954819D02*
X165904762Y-135954819D01*
X166904762Y-134954819D02*
X167000000Y-134954819D01*
X167000000Y-134954819D02*
X167095238Y-135002438D01*
X167095238Y-135002438D02*
X167142857Y-135050057D01*
X167142857Y-135050057D02*
X167190476Y-135145295D01*
X167190476Y-135145295D02*
X167238095Y-135335771D01*
X167238095Y-135335771D02*
X167238095Y-135573866D01*
X167238095Y-135573866D02*
X167190476Y-135764342D01*
X167190476Y-135764342D02*
X167142857Y-135859580D01*
X167142857Y-135859580D02*
X167095238Y-135907200D01*
X167095238Y-135907200D02*
X167000000Y-135954819D01*
X167000000Y-135954819D02*
X166904762Y-135954819D01*
X166904762Y-135954819D02*
X166809524Y-135907200D01*
X166809524Y-135907200D02*
X166761905Y-135859580D01*
X166761905Y-135859580D02*
X166714286Y-135764342D01*
X166714286Y-135764342D02*
X166666667Y-135573866D01*
X166666667Y-135573866D02*
X166666667Y-135335771D01*
X166666667Y-135335771D02*
X166714286Y-135145295D01*
X166714286Y-135145295D02*
X166761905Y-135050057D01*
X166761905Y-135050057D02*
X166809524Y-135002438D01*
X166809524Y-135002438D02*
X166904762Y-134954819D01*
X113333333Y-82704819D02*
X112761905Y-82704819D01*
X113047619Y-82704819D02*
X113047619Y-81704819D01*
X113047619Y-81704819D02*
X112952381Y-81847676D01*
X112952381Y-81847676D02*
X112857143Y-81942914D01*
X112857143Y-81942914D02*
X112761905Y-81990533D01*
X113952381Y-81704819D02*
X114047619Y-81704819D01*
X114047619Y-81704819D02*
X114142857Y-81752438D01*
X114142857Y-81752438D02*
X114190476Y-81800057D01*
X114190476Y-81800057D02*
X114238095Y-81895295D01*
X114238095Y-81895295D02*
X114285714Y-82085771D01*
X114285714Y-82085771D02*
X114285714Y-82323866D01*
X114285714Y-82323866D02*
X114238095Y-82514342D01*
X114238095Y-82514342D02*
X114190476Y-82609580D01*
X114190476Y-82609580D02*
X114142857Y-82657200D01*
X114142857Y-82657200D02*
X114047619Y-82704819D01*
X114047619Y-82704819D02*
X113952381Y-82704819D01*
X113952381Y-82704819D02*
X113857143Y-82657200D01*
X113857143Y-82657200D02*
X113809524Y-82609580D01*
X113809524Y-82609580D02*
X113761905Y-82514342D01*
X113761905Y-82514342D02*
X113714286Y-82323866D01*
X113714286Y-82323866D02*
X113714286Y-82085771D01*
X113714286Y-82085771D02*
X113761905Y-81895295D01*
X113761905Y-81895295D02*
X113809524Y-81800057D01*
X113809524Y-81800057D02*
X113857143Y-81752438D01*
X113857143Y-81752438D02*
X113952381Y-81704819D01*
X114904762Y-81704819D02*
X115095238Y-81704819D01*
X115095238Y-81704819D02*
X115190476Y-81752438D01*
X115190476Y-81752438D02*
X115285714Y-81847676D01*
X115285714Y-81847676D02*
X115333333Y-82038152D01*
X115333333Y-82038152D02*
X115333333Y-82371485D01*
X115333333Y-82371485D02*
X115285714Y-82561961D01*
X115285714Y-82561961D02*
X115190476Y-82657200D01*
X115190476Y-82657200D02*
X115095238Y-82704819D01*
X115095238Y-82704819D02*
X114904762Y-82704819D01*
X114904762Y-82704819D02*
X114809524Y-82657200D01*
X114809524Y-82657200D02*
X114714286Y-82561961D01*
X114714286Y-82561961D02*
X114666667Y-82371485D01*
X114666667Y-82371485D02*
X114666667Y-82038152D01*
X114666667Y-82038152D02*
X114714286Y-81847676D01*
X114714286Y-81847676D02*
X114809524Y-81752438D01*
X114809524Y-81752438D02*
X114904762Y-81704819D01*
X115761905Y-82704819D02*
X115761905Y-81704819D01*
X115761905Y-82181009D02*
X116333333Y-82181009D01*
X116333333Y-82704819D02*
X116333333Y-81704819D01*
X116809524Y-82704819D02*
X116809524Y-81704819D01*
X116809524Y-81704819D02*
X117142857Y-82419104D01*
X117142857Y-82419104D02*
X117476190Y-81704819D01*
X117476190Y-81704819D02*
X117476190Y-82704819D01*
X117714286Y-82800057D02*
X118476190Y-82800057D01*
X118666667Y-81800057D02*
X118714286Y-81752438D01*
X118714286Y-81752438D02*
X118809524Y-81704819D01*
X118809524Y-81704819D02*
X119047619Y-81704819D01*
X119047619Y-81704819D02*
X119142857Y-81752438D01*
X119142857Y-81752438D02*
X119190476Y-81800057D01*
X119190476Y-81800057D02*
X119238095Y-81895295D01*
X119238095Y-81895295D02*
X119238095Y-81990533D01*
X119238095Y-81990533D02*
X119190476Y-82133390D01*
X119190476Y-82133390D02*
X118619048Y-82704819D01*
X118619048Y-82704819D02*
X119238095Y-82704819D01*
X122214286Y-113907200D02*
X122357143Y-113954819D01*
X122357143Y-113954819D02*
X122595238Y-113954819D01*
X122595238Y-113954819D02*
X122690476Y-113907200D01*
X122690476Y-113907200D02*
X122738095Y-113859580D01*
X122738095Y-113859580D02*
X122785714Y-113764342D01*
X122785714Y-113764342D02*
X122785714Y-113669104D01*
X122785714Y-113669104D02*
X122738095Y-113573866D01*
X122738095Y-113573866D02*
X122690476Y-113526247D01*
X122690476Y-113526247D02*
X122595238Y-113478628D01*
X122595238Y-113478628D02*
X122404762Y-113431009D01*
X122404762Y-113431009D02*
X122309524Y-113383390D01*
X122309524Y-113383390D02*
X122261905Y-113335771D01*
X122261905Y-113335771D02*
X122214286Y-113240533D01*
X122214286Y-113240533D02*
X122214286Y-113145295D01*
X122214286Y-113145295D02*
X122261905Y-113050057D01*
X122261905Y-113050057D02*
X122309524Y-113002438D01*
X122309524Y-113002438D02*
X122404762Y-112954819D01*
X122404762Y-112954819D02*
X122642857Y-112954819D01*
X122642857Y-112954819D02*
X122785714Y-113002438D01*
X123214286Y-113954819D02*
X123214286Y-112954819D01*
X123214286Y-112954819D02*
X123452381Y-112954819D01*
X123452381Y-112954819D02*
X123595238Y-113002438D01*
X123595238Y-113002438D02*
X123690476Y-113097676D01*
X123690476Y-113097676D02*
X123738095Y-113192914D01*
X123738095Y-113192914D02*
X123785714Y-113383390D01*
X123785714Y-113383390D02*
X123785714Y-113526247D01*
X123785714Y-113526247D02*
X123738095Y-113716723D01*
X123738095Y-113716723D02*
X123690476Y-113811961D01*
X123690476Y-113811961D02*
X123595238Y-113907200D01*
X123595238Y-113907200D02*
X123452381Y-113954819D01*
X123452381Y-113954819D02*
X123214286Y-113954819D01*
X124166667Y-113669104D02*
X124642857Y-113669104D01*
X124071429Y-113954819D02*
X124404762Y-112954819D01*
X124404762Y-112954819D02*
X124738095Y-113954819D01*
X124833334Y-114050057D02*
X125595238Y-114050057D01*
X125833334Y-113954819D02*
X125833334Y-112954819D01*
X126309524Y-113954819D02*
X126309524Y-112954819D01*
X126309524Y-112954819D02*
X126880952Y-113954819D01*
X126880952Y-113954819D02*
X126880952Y-112954819D01*
X127309524Y-113669104D02*
X127785714Y-113669104D01*
X127214286Y-113954819D02*
X127547619Y-112954819D01*
X127547619Y-112954819D02*
X127880952Y-113954819D01*
X136555714Y-113340057D02*
X136603333Y-113292438D01*
X136603333Y-113292438D02*
X136698571Y-113244819D01*
X136698571Y-113244819D02*
X136936666Y-113244819D01*
X136936666Y-113244819D02*
X137031904Y-113292438D01*
X137031904Y-113292438D02*
X137079523Y-113340057D01*
X137079523Y-113340057D02*
X137127142Y-113435295D01*
X137127142Y-113435295D02*
X137127142Y-113530533D01*
X137127142Y-113530533D02*
X137079523Y-113673390D01*
X137079523Y-113673390D02*
X136508095Y-114244819D01*
X136508095Y-114244819D02*
X137127142Y-114244819D01*
X137555714Y-114244819D02*
X137555714Y-113244819D01*
X137555714Y-113244819D02*
X138127142Y-114244819D01*
X138127142Y-114244819D02*
X138127142Y-113244819D01*
X138508095Y-113244819D02*
X139127142Y-113244819D01*
X139127142Y-113244819D02*
X138793809Y-113625771D01*
X138793809Y-113625771D02*
X138936666Y-113625771D01*
X138936666Y-113625771D02*
X139031904Y-113673390D01*
X139031904Y-113673390D02*
X139079523Y-113721009D01*
X139079523Y-113721009D02*
X139127142Y-113816247D01*
X139127142Y-113816247D02*
X139127142Y-114054342D01*
X139127142Y-114054342D02*
X139079523Y-114149580D01*
X139079523Y-114149580D02*
X139031904Y-114197200D01*
X139031904Y-114197200D02*
X138936666Y-114244819D01*
X138936666Y-114244819D02*
X138650952Y-114244819D01*
X138650952Y-114244819D02*
X138555714Y-114197200D01*
X138555714Y-114197200D02*
X138508095Y-114149580D01*
X139603333Y-114244819D02*
X139793809Y-114244819D01*
X139793809Y-114244819D02*
X139889047Y-114197200D01*
X139889047Y-114197200D02*
X139936666Y-114149580D01*
X139936666Y-114149580D02*
X140031904Y-114006723D01*
X140031904Y-114006723D02*
X140079523Y-113816247D01*
X140079523Y-113816247D02*
X140079523Y-113435295D01*
X140079523Y-113435295D02*
X140031904Y-113340057D01*
X140031904Y-113340057D02*
X139984285Y-113292438D01*
X139984285Y-113292438D02*
X139889047Y-113244819D01*
X139889047Y-113244819D02*
X139698571Y-113244819D01*
X139698571Y-113244819D02*
X139603333Y-113292438D01*
X139603333Y-113292438D02*
X139555714Y-113340057D01*
X139555714Y-113340057D02*
X139508095Y-113435295D01*
X139508095Y-113435295D02*
X139508095Y-113673390D01*
X139508095Y-113673390D02*
X139555714Y-113768628D01*
X139555714Y-113768628D02*
X139603333Y-113816247D01*
X139603333Y-113816247D02*
X139698571Y-113863866D01*
X139698571Y-113863866D02*
X139889047Y-113863866D01*
X139889047Y-113863866D02*
X139984285Y-113816247D01*
X139984285Y-113816247D02*
X140031904Y-113768628D01*
X140031904Y-113768628D02*
X140079523Y-113673390D01*
X140698571Y-113244819D02*
X140793809Y-113244819D01*
X140793809Y-113244819D02*
X140889047Y-113292438D01*
X140889047Y-113292438D02*
X140936666Y-113340057D01*
X140936666Y-113340057D02*
X140984285Y-113435295D01*
X140984285Y-113435295D02*
X141031904Y-113625771D01*
X141031904Y-113625771D02*
X141031904Y-113863866D01*
X141031904Y-113863866D02*
X140984285Y-114054342D01*
X140984285Y-114054342D02*
X140936666Y-114149580D01*
X140936666Y-114149580D02*
X140889047Y-114197200D01*
X140889047Y-114197200D02*
X140793809Y-114244819D01*
X140793809Y-114244819D02*
X140698571Y-114244819D01*
X140698571Y-114244819D02*
X140603333Y-114197200D01*
X140603333Y-114197200D02*
X140555714Y-114149580D01*
X140555714Y-114149580D02*
X140508095Y-114054342D01*
X140508095Y-114054342D02*
X140460476Y-113863866D01*
X140460476Y-113863866D02*
X140460476Y-113625771D01*
X140460476Y-113625771D02*
X140508095Y-113435295D01*
X140508095Y-113435295D02*
X140555714Y-113340057D01*
X140555714Y-113340057D02*
X140603333Y-113292438D01*
X140603333Y-113292438D02*
X140698571Y-113244819D01*
X141889047Y-113578152D02*
X141889047Y-114244819D01*
X141650952Y-113197200D02*
X141412857Y-113911485D01*
X141412857Y-113911485D02*
X142031904Y-113911485D01*
X140142857Y-48669104D02*
X140619047Y-48669104D01*
X140047619Y-48954819D02*
X140380952Y-47954819D01*
X140380952Y-47954819D02*
X140714285Y-48954819D01*
X141619047Y-48859580D02*
X141571428Y-48907200D01*
X141571428Y-48907200D02*
X141428571Y-48954819D01*
X141428571Y-48954819D02*
X141333333Y-48954819D01*
X141333333Y-48954819D02*
X141190476Y-48907200D01*
X141190476Y-48907200D02*
X141095238Y-48811961D01*
X141095238Y-48811961D02*
X141047619Y-48716723D01*
X141047619Y-48716723D02*
X141000000Y-48526247D01*
X141000000Y-48526247D02*
X141000000Y-48383390D01*
X141000000Y-48383390D02*
X141047619Y-48192914D01*
X141047619Y-48192914D02*
X141095238Y-48097676D01*
X141095238Y-48097676D02*
X141190476Y-48002438D01*
X141190476Y-48002438D02*
X141333333Y-47954819D01*
X141333333Y-47954819D02*
X141428571Y-47954819D01*
X141428571Y-47954819D02*
X141571428Y-48002438D01*
X141571428Y-48002438D02*
X141619047Y-48050057D01*
X141809524Y-49050057D02*
X142571428Y-49050057D01*
X142809524Y-48954819D02*
X142809524Y-47954819D01*
X142809524Y-47954819D02*
X143380952Y-48954819D01*
X143380952Y-48954819D02*
X143380952Y-47954819D01*
X143857143Y-48431009D02*
X144190476Y-48431009D01*
X144333333Y-48954819D02*
X143857143Y-48954819D01*
X143857143Y-48954819D02*
X143857143Y-47954819D01*
X143857143Y-47954819D02*
X144333333Y-47954819D01*
X144761905Y-47954819D02*
X144761905Y-48764342D01*
X144761905Y-48764342D02*
X144809524Y-48859580D01*
X144809524Y-48859580D02*
X144857143Y-48907200D01*
X144857143Y-48907200D02*
X144952381Y-48954819D01*
X144952381Y-48954819D02*
X145142857Y-48954819D01*
X145142857Y-48954819D02*
X145238095Y-48907200D01*
X145238095Y-48907200D02*
X145285714Y-48859580D01*
X145285714Y-48859580D02*
X145333333Y-48764342D01*
X145333333Y-48764342D02*
X145333333Y-47954819D01*
X145666667Y-47954819D02*
X146238095Y-47954819D01*
X145952381Y-48954819D02*
X145952381Y-47954819D01*
X146333334Y-49050057D02*
X147095238Y-49050057D01*
X147285715Y-48050057D02*
X147333334Y-48002438D01*
X147333334Y-48002438D02*
X147428572Y-47954819D01*
X147428572Y-47954819D02*
X147666667Y-47954819D01*
X147666667Y-47954819D02*
X147761905Y-48002438D01*
X147761905Y-48002438D02*
X147809524Y-48050057D01*
X147809524Y-48050057D02*
X147857143Y-48145295D01*
X147857143Y-48145295D02*
X147857143Y-48240533D01*
X147857143Y-48240533D02*
X147809524Y-48383390D01*
X147809524Y-48383390D02*
X147238096Y-48954819D01*
X147238096Y-48954819D02*
X147857143Y-48954819D01*
X116488095Y-124823866D02*
X117250000Y-124823866D01*
X116869047Y-125204819D02*
X116869047Y-124442914D01*
X118249999Y-125204819D02*
X117678571Y-125204819D01*
X117964285Y-125204819D02*
X117964285Y-124204819D01*
X117964285Y-124204819D02*
X117869047Y-124347676D01*
X117869047Y-124347676D02*
X117773809Y-124442914D01*
X117773809Y-124442914D02*
X117678571Y-124490533D01*
X118630952Y-124300057D02*
X118678571Y-124252438D01*
X118678571Y-124252438D02*
X118773809Y-124204819D01*
X118773809Y-124204819D02*
X119011904Y-124204819D01*
X119011904Y-124204819D02*
X119107142Y-124252438D01*
X119107142Y-124252438D02*
X119154761Y-124300057D01*
X119154761Y-124300057D02*
X119202380Y-124395295D01*
X119202380Y-124395295D02*
X119202380Y-124490533D01*
X119202380Y-124490533D02*
X119154761Y-124633390D01*
X119154761Y-124633390D02*
X118583333Y-125204819D01*
X118583333Y-125204819D02*
X119202380Y-125204819D01*
X119488095Y-124204819D02*
X119821428Y-125204819D01*
X119821428Y-125204819D02*
X120154761Y-124204819D01*
X133788152Y-132261904D02*
X134454819Y-132261904D01*
X133407200Y-132499999D02*
X134121485Y-132738094D01*
X134121485Y-132738094D02*
X134121485Y-132119047D01*
X133454819Y-131833332D02*
X133454819Y-131166666D01*
X133454819Y-131166666D02*
X134454819Y-131595237D01*
X133454819Y-130595237D02*
X133454819Y-130499999D01*
X133454819Y-130499999D02*
X133502438Y-130404761D01*
X133502438Y-130404761D02*
X133550057Y-130357142D01*
X133550057Y-130357142D02*
X133645295Y-130309523D01*
X133645295Y-130309523D02*
X133835771Y-130261904D01*
X133835771Y-130261904D02*
X134073866Y-130261904D01*
X134073866Y-130261904D02*
X134264342Y-130309523D01*
X134264342Y-130309523D02*
X134359580Y-130357142D01*
X134359580Y-130357142D02*
X134407200Y-130404761D01*
X134407200Y-130404761D02*
X134454819Y-130499999D01*
X134454819Y-130499999D02*
X134454819Y-130595237D01*
X134454819Y-130595237D02*
X134407200Y-130690475D01*
X134407200Y-130690475D02*
X134359580Y-130738094D01*
X134359580Y-130738094D02*
X134264342Y-130785713D01*
X134264342Y-130785713D02*
X134073866Y-130833332D01*
X134073866Y-130833332D02*
X133835771Y-130833332D01*
X133835771Y-130833332D02*
X133645295Y-130785713D01*
X133645295Y-130785713D02*
X133550057Y-130738094D01*
X133550057Y-130738094D02*
X133502438Y-130690475D01*
X133502438Y-130690475D02*
X133454819Y-130595237D01*
X162398095Y-131288152D02*
X162398095Y-131954819D01*
X162160000Y-130907200D02*
X161921905Y-131621485D01*
X161921905Y-131621485D02*
X162540952Y-131621485D01*
X162826667Y-130954819D02*
X163493333Y-130954819D01*
X163493333Y-130954819D02*
X163064762Y-131954819D01*
X164064762Y-130954819D02*
X164160000Y-130954819D01*
X164160000Y-130954819D02*
X164255238Y-131002438D01*
X164255238Y-131002438D02*
X164302857Y-131050057D01*
X164302857Y-131050057D02*
X164350476Y-131145295D01*
X164350476Y-131145295D02*
X164398095Y-131335771D01*
X164398095Y-131335771D02*
X164398095Y-131573866D01*
X164398095Y-131573866D02*
X164350476Y-131764342D01*
X164350476Y-131764342D02*
X164302857Y-131859580D01*
X164302857Y-131859580D02*
X164255238Y-131907200D01*
X164255238Y-131907200D02*
X164160000Y-131954819D01*
X164160000Y-131954819D02*
X164064762Y-131954819D01*
X164064762Y-131954819D02*
X163969524Y-131907200D01*
X163969524Y-131907200D02*
X163921905Y-131859580D01*
X163921905Y-131859580D02*
X163874286Y-131764342D01*
X163874286Y-131764342D02*
X163826667Y-131573866D01*
X163826667Y-131573866D02*
X163826667Y-131335771D01*
X163826667Y-131335771D02*
X163874286Y-131145295D01*
X163874286Y-131145295D02*
X163921905Y-131050057D01*
X163921905Y-131050057D02*
X163969524Y-131002438D01*
X163969524Y-131002438D02*
X164064762Y-130954819D01*
X153158571Y-123244819D02*
X152682381Y-123244819D01*
X152682381Y-123244819D02*
X152682381Y-122244819D01*
X153491905Y-123244819D02*
X153491905Y-122244819D01*
X153491905Y-122244819D02*
X153825238Y-122959104D01*
X153825238Y-122959104D02*
X154158571Y-122244819D01*
X154158571Y-122244819D02*
X154158571Y-123244819D01*
X154539524Y-122244819D02*
X155206190Y-122244819D01*
X155206190Y-122244819D02*
X154777619Y-123244819D01*
X155730000Y-122673390D02*
X155634762Y-122625771D01*
X155634762Y-122625771D02*
X155587143Y-122578152D01*
X155587143Y-122578152D02*
X155539524Y-122482914D01*
X155539524Y-122482914D02*
X155539524Y-122435295D01*
X155539524Y-122435295D02*
X155587143Y-122340057D01*
X155587143Y-122340057D02*
X155634762Y-122292438D01*
X155634762Y-122292438D02*
X155730000Y-122244819D01*
X155730000Y-122244819D02*
X155920476Y-122244819D01*
X155920476Y-122244819D02*
X156015714Y-122292438D01*
X156015714Y-122292438D02*
X156063333Y-122340057D01*
X156063333Y-122340057D02*
X156110952Y-122435295D01*
X156110952Y-122435295D02*
X156110952Y-122482914D01*
X156110952Y-122482914D02*
X156063333Y-122578152D01*
X156063333Y-122578152D02*
X156015714Y-122625771D01*
X156015714Y-122625771D02*
X155920476Y-122673390D01*
X155920476Y-122673390D02*
X155730000Y-122673390D01*
X155730000Y-122673390D02*
X155634762Y-122721009D01*
X155634762Y-122721009D02*
X155587143Y-122768628D01*
X155587143Y-122768628D02*
X155539524Y-122863866D01*
X155539524Y-122863866D02*
X155539524Y-123054342D01*
X155539524Y-123054342D02*
X155587143Y-123149580D01*
X155587143Y-123149580D02*
X155634762Y-123197200D01*
X155634762Y-123197200D02*
X155730000Y-123244819D01*
X155730000Y-123244819D02*
X155920476Y-123244819D01*
X155920476Y-123244819D02*
X156015714Y-123197200D01*
X156015714Y-123197200D02*
X156063333Y-123149580D01*
X156063333Y-123149580D02*
X156110952Y-123054342D01*
X156110952Y-123054342D02*
X156110952Y-122863866D01*
X156110952Y-122863866D02*
X156063333Y-122768628D01*
X156063333Y-122768628D02*
X156015714Y-122721009D01*
X156015714Y-122721009D02*
X155920476Y-122673390D01*
X157015714Y-123244819D02*
X156539524Y-123244819D01*
X156539524Y-123244819D02*
X156539524Y-122244819D01*
X157539524Y-122244819D02*
X157634762Y-122244819D01*
X157634762Y-122244819D02*
X157730000Y-122292438D01*
X157730000Y-122292438D02*
X157777619Y-122340057D01*
X157777619Y-122340057D02*
X157825238Y-122435295D01*
X157825238Y-122435295D02*
X157872857Y-122625771D01*
X157872857Y-122625771D02*
X157872857Y-122863866D01*
X157872857Y-122863866D02*
X157825238Y-123054342D01*
X157825238Y-123054342D02*
X157777619Y-123149580D01*
X157777619Y-123149580D02*
X157730000Y-123197200D01*
X157730000Y-123197200D02*
X157634762Y-123244819D01*
X157634762Y-123244819D02*
X157539524Y-123244819D01*
X157539524Y-123244819D02*
X157444286Y-123197200D01*
X157444286Y-123197200D02*
X157396667Y-123149580D01*
X157396667Y-123149580D02*
X157349048Y-123054342D01*
X157349048Y-123054342D02*
X157301429Y-122863866D01*
X157301429Y-122863866D02*
X157301429Y-122625771D01*
X157301429Y-122625771D02*
X157349048Y-122435295D01*
X157349048Y-122435295D02*
X157396667Y-122340057D01*
X157396667Y-122340057D02*
X157444286Y-122292438D01*
X157444286Y-122292438D02*
X157539524Y-122244819D01*
X158777619Y-122244819D02*
X158301429Y-122244819D01*
X158301429Y-122244819D02*
X158253810Y-122721009D01*
X158253810Y-122721009D02*
X158301429Y-122673390D01*
X158301429Y-122673390D02*
X158396667Y-122625771D01*
X158396667Y-122625771D02*
X158634762Y-122625771D01*
X158634762Y-122625771D02*
X158730000Y-122673390D01*
X158730000Y-122673390D02*
X158777619Y-122721009D01*
X158777619Y-122721009D02*
X158825238Y-122816247D01*
X158825238Y-122816247D02*
X158825238Y-123054342D01*
X158825238Y-123054342D02*
X158777619Y-123149580D01*
X158777619Y-123149580D02*
X158730000Y-123197200D01*
X158730000Y-123197200D02*
X158634762Y-123244819D01*
X158634762Y-123244819D02*
X158396667Y-123244819D01*
X158396667Y-123244819D02*
X158301429Y-123197200D01*
X158301429Y-123197200D02*
X158253810Y-123149580D01*
X169500000Y-145907200D02*
X169642857Y-145954819D01*
X169642857Y-145954819D02*
X169880952Y-145954819D01*
X169880952Y-145954819D02*
X169976190Y-145907200D01*
X169976190Y-145907200D02*
X170023809Y-145859580D01*
X170023809Y-145859580D02*
X170071428Y-145764342D01*
X170071428Y-145764342D02*
X170071428Y-145669104D01*
X170071428Y-145669104D02*
X170023809Y-145573866D01*
X170023809Y-145573866D02*
X169976190Y-145526247D01*
X169976190Y-145526247D02*
X169880952Y-145478628D01*
X169880952Y-145478628D02*
X169690476Y-145431009D01*
X169690476Y-145431009D02*
X169595238Y-145383390D01*
X169595238Y-145383390D02*
X169547619Y-145335771D01*
X169547619Y-145335771D02*
X169500000Y-145240533D01*
X169500000Y-145240533D02*
X169500000Y-145145295D01*
X169500000Y-145145295D02*
X169547619Y-145050057D01*
X169547619Y-145050057D02*
X169595238Y-145002438D01*
X169595238Y-145002438D02*
X169690476Y-144954819D01*
X169690476Y-144954819D02*
X169928571Y-144954819D01*
X169928571Y-144954819D02*
X170071428Y-145002438D01*
X170404762Y-144954819D02*
X170642857Y-145954819D01*
X170642857Y-145954819D02*
X170833333Y-145240533D01*
X170833333Y-145240533D02*
X171023809Y-145954819D01*
X171023809Y-145954819D02*
X171261905Y-144954819D01*
X171642857Y-145954819D02*
X171642857Y-144954819D01*
X171976190Y-144954819D02*
X172547618Y-144954819D01*
X172261904Y-145954819D02*
X172261904Y-144954819D01*
X173452380Y-145859580D02*
X173404761Y-145907200D01*
X173404761Y-145907200D02*
X173261904Y-145954819D01*
X173261904Y-145954819D02*
X173166666Y-145954819D01*
X173166666Y-145954819D02*
X173023809Y-145907200D01*
X173023809Y-145907200D02*
X172928571Y-145811961D01*
X172928571Y-145811961D02*
X172880952Y-145716723D01*
X172880952Y-145716723D02*
X172833333Y-145526247D01*
X172833333Y-145526247D02*
X172833333Y-145383390D01*
X172833333Y-145383390D02*
X172880952Y-145192914D01*
X172880952Y-145192914D02*
X172928571Y-145097676D01*
X172928571Y-145097676D02*
X173023809Y-145002438D01*
X173023809Y-145002438D02*
X173166666Y-144954819D01*
X173166666Y-144954819D02*
X173261904Y-144954819D01*
X173261904Y-144954819D02*
X173404761Y-145002438D01*
X173404761Y-145002438D02*
X173452380Y-145050057D01*
X173880952Y-145954819D02*
X173880952Y-144954819D01*
X173880952Y-145431009D02*
X174452380Y-145431009D01*
X174452380Y-145954819D02*
X174452380Y-144954819D01*
X168309523Y-112204819D02*
X167833333Y-112204819D01*
X167833333Y-112204819D02*
X167833333Y-111204819D01*
X168642857Y-112204819D02*
X168642857Y-111204819D01*
X168642857Y-111204819D02*
X168976190Y-111919104D01*
X168976190Y-111919104D02*
X169309523Y-111204819D01*
X169309523Y-111204819D02*
X169309523Y-112204819D01*
X169690476Y-111204819D02*
X170309523Y-111204819D01*
X170309523Y-111204819D02*
X169976190Y-111585771D01*
X169976190Y-111585771D02*
X170119047Y-111585771D01*
X170119047Y-111585771D02*
X170214285Y-111633390D01*
X170214285Y-111633390D02*
X170261904Y-111681009D01*
X170261904Y-111681009D02*
X170309523Y-111776247D01*
X170309523Y-111776247D02*
X170309523Y-112014342D01*
X170309523Y-112014342D02*
X170261904Y-112109580D01*
X170261904Y-112109580D02*
X170214285Y-112157200D01*
X170214285Y-112157200D02*
X170119047Y-112204819D01*
X170119047Y-112204819D02*
X169833333Y-112204819D01*
X169833333Y-112204819D02*
X169738095Y-112157200D01*
X169738095Y-112157200D02*
X169690476Y-112109580D01*
X171214285Y-111204819D02*
X170738095Y-111204819D01*
X170738095Y-111204819D02*
X170690476Y-111681009D01*
X170690476Y-111681009D02*
X170738095Y-111633390D01*
X170738095Y-111633390D02*
X170833333Y-111585771D01*
X170833333Y-111585771D02*
X171071428Y-111585771D01*
X171071428Y-111585771D02*
X171166666Y-111633390D01*
X171166666Y-111633390D02*
X171214285Y-111681009D01*
X171214285Y-111681009D02*
X171261904Y-111776247D01*
X171261904Y-111776247D02*
X171261904Y-112014342D01*
X171261904Y-112014342D02*
X171214285Y-112109580D01*
X171214285Y-112109580D02*
X171166666Y-112157200D01*
X171166666Y-112157200D02*
X171071428Y-112204819D01*
X171071428Y-112204819D02*
X170833333Y-112204819D01*
X170833333Y-112204819D02*
X170738095Y-112157200D01*
X170738095Y-112157200D02*
X170690476Y-112109580D01*
X171833333Y-111633390D02*
X171738095Y-111585771D01*
X171738095Y-111585771D02*
X171690476Y-111538152D01*
X171690476Y-111538152D02*
X171642857Y-111442914D01*
X171642857Y-111442914D02*
X171642857Y-111395295D01*
X171642857Y-111395295D02*
X171690476Y-111300057D01*
X171690476Y-111300057D02*
X171738095Y-111252438D01*
X171738095Y-111252438D02*
X171833333Y-111204819D01*
X171833333Y-111204819D02*
X172023809Y-111204819D01*
X172023809Y-111204819D02*
X172119047Y-111252438D01*
X172119047Y-111252438D02*
X172166666Y-111300057D01*
X172166666Y-111300057D02*
X172214285Y-111395295D01*
X172214285Y-111395295D02*
X172214285Y-111442914D01*
X172214285Y-111442914D02*
X172166666Y-111538152D01*
X172166666Y-111538152D02*
X172119047Y-111585771D01*
X172119047Y-111585771D02*
X172023809Y-111633390D01*
X172023809Y-111633390D02*
X171833333Y-111633390D01*
X171833333Y-111633390D02*
X171738095Y-111681009D01*
X171738095Y-111681009D02*
X171690476Y-111728628D01*
X171690476Y-111728628D02*
X171642857Y-111823866D01*
X171642857Y-111823866D02*
X171642857Y-112014342D01*
X171642857Y-112014342D02*
X171690476Y-112109580D01*
X171690476Y-112109580D02*
X171738095Y-112157200D01*
X171738095Y-112157200D02*
X171833333Y-112204819D01*
X171833333Y-112204819D02*
X172023809Y-112204819D01*
X172023809Y-112204819D02*
X172119047Y-112157200D01*
X172119047Y-112157200D02*
X172166666Y-112109580D01*
X172166666Y-112109580D02*
X172214285Y-112014342D01*
X172214285Y-112014342D02*
X172214285Y-111823866D01*
X172214285Y-111823866D02*
X172166666Y-111728628D01*
X172166666Y-111728628D02*
X172119047Y-111681009D01*
X172119047Y-111681009D02*
X172023809Y-111633390D01*
X130704819Y-131619047D02*
X130704819Y-132190475D01*
X130704819Y-131904761D02*
X129704819Y-131904761D01*
X129704819Y-131904761D02*
X129847676Y-131999999D01*
X129847676Y-131999999D02*
X129942914Y-132095237D01*
X129942914Y-132095237D02*
X129990533Y-132190475D01*
X130704819Y-131190475D02*
X129704819Y-131190475D01*
X130323866Y-131095237D02*
X130704819Y-130809523D01*
X130038152Y-130809523D02*
X130419104Y-131190475D01*
X122488095Y-121907200D02*
X122630952Y-121954819D01*
X122630952Y-121954819D02*
X122869047Y-121954819D01*
X122869047Y-121954819D02*
X122964285Y-121907200D01*
X122964285Y-121907200D02*
X123011904Y-121859580D01*
X123011904Y-121859580D02*
X123059523Y-121764342D01*
X123059523Y-121764342D02*
X123059523Y-121669104D01*
X123059523Y-121669104D02*
X123011904Y-121573866D01*
X123011904Y-121573866D02*
X122964285Y-121526247D01*
X122964285Y-121526247D02*
X122869047Y-121478628D01*
X122869047Y-121478628D02*
X122678571Y-121431009D01*
X122678571Y-121431009D02*
X122583333Y-121383390D01*
X122583333Y-121383390D02*
X122535714Y-121335771D01*
X122535714Y-121335771D02*
X122488095Y-121240533D01*
X122488095Y-121240533D02*
X122488095Y-121145295D01*
X122488095Y-121145295D02*
X122535714Y-121050057D01*
X122535714Y-121050057D02*
X122583333Y-121002438D01*
X122583333Y-121002438D02*
X122678571Y-120954819D01*
X122678571Y-120954819D02*
X122916666Y-120954819D01*
X122916666Y-120954819D02*
X123059523Y-121002438D01*
X124059523Y-121859580D02*
X124011904Y-121907200D01*
X124011904Y-121907200D02*
X123869047Y-121954819D01*
X123869047Y-121954819D02*
X123773809Y-121954819D01*
X123773809Y-121954819D02*
X123630952Y-121907200D01*
X123630952Y-121907200D02*
X123535714Y-121811961D01*
X123535714Y-121811961D02*
X123488095Y-121716723D01*
X123488095Y-121716723D02*
X123440476Y-121526247D01*
X123440476Y-121526247D02*
X123440476Y-121383390D01*
X123440476Y-121383390D02*
X123488095Y-121192914D01*
X123488095Y-121192914D02*
X123535714Y-121097676D01*
X123535714Y-121097676D02*
X123630952Y-121002438D01*
X123630952Y-121002438D02*
X123773809Y-120954819D01*
X123773809Y-120954819D02*
X123869047Y-120954819D01*
X123869047Y-120954819D02*
X124011904Y-121002438D01*
X124011904Y-121002438D02*
X124059523Y-121050057D01*
X124964285Y-121954819D02*
X124488095Y-121954819D01*
X124488095Y-121954819D02*
X124488095Y-120954819D01*
X125059524Y-122050057D02*
X125821428Y-122050057D01*
X126059524Y-121954819D02*
X126059524Y-120954819D01*
X126535714Y-121954819D02*
X126535714Y-120954819D01*
X126535714Y-120954819D02*
X127107142Y-121954819D01*
X127107142Y-121954819D02*
X127107142Y-120954819D01*
X127535714Y-121669104D02*
X128011904Y-121669104D01*
X127440476Y-121954819D02*
X127773809Y-120954819D01*
X127773809Y-120954819D02*
X128107142Y-121954819D01*
X158704819Y-114547619D02*
X158704819Y-115119047D01*
X158704819Y-114833333D02*
X157704819Y-114833333D01*
X157704819Y-114833333D02*
X157847676Y-114928571D01*
X157847676Y-114928571D02*
X157942914Y-115023809D01*
X157942914Y-115023809D02*
X157990533Y-115119047D01*
X157704819Y-113928571D02*
X157704819Y-113833333D01*
X157704819Y-113833333D02*
X157752438Y-113738095D01*
X157752438Y-113738095D02*
X157800057Y-113690476D01*
X157800057Y-113690476D02*
X157895295Y-113642857D01*
X157895295Y-113642857D02*
X158085771Y-113595238D01*
X158085771Y-113595238D02*
X158323866Y-113595238D01*
X158323866Y-113595238D02*
X158514342Y-113642857D01*
X158514342Y-113642857D02*
X158609580Y-113690476D01*
X158609580Y-113690476D02*
X158657200Y-113738095D01*
X158657200Y-113738095D02*
X158704819Y-113833333D01*
X158704819Y-113833333D02*
X158704819Y-113928571D01*
X158704819Y-113928571D02*
X158657200Y-114023809D01*
X158657200Y-114023809D02*
X158609580Y-114071428D01*
X158609580Y-114071428D02*
X158514342Y-114119047D01*
X158514342Y-114119047D02*
X158323866Y-114166666D01*
X158323866Y-114166666D02*
X158085771Y-114166666D01*
X158085771Y-114166666D02*
X157895295Y-114119047D01*
X157895295Y-114119047D02*
X157800057Y-114071428D01*
X157800057Y-114071428D02*
X157752438Y-114023809D01*
X157752438Y-114023809D02*
X157704819Y-113928571D01*
X157704819Y-112976190D02*
X157704819Y-112880952D01*
X157704819Y-112880952D02*
X157752438Y-112785714D01*
X157752438Y-112785714D02*
X157800057Y-112738095D01*
X157800057Y-112738095D02*
X157895295Y-112690476D01*
X157895295Y-112690476D02*
X158085771Y-112642857D01*
X158085771Y-112642857D02*
X158323866Y-112642857D01*
X158323866Y-112642857D02*
X158514342Y-112690476D01*
X158514342Y-112690476D02*
X158609580Y-112738095D01*
X158609580Y-112738095D02*
X158657200Y-112785714D01*
X158657200Y-112785714D02*
X158704819Y-112880952D01*
X158704819Y-112880952D02*
X158704819Y-112976190D01*
X158704819Y-112976190D02*
X158657200Y-113071428D01*
X158657200Y-113071428D02*
X158609580Y-113119047D01*
X158609580Y-113119047D02*
X158514342Y-113166666D01*
X158514342Y-113166666D02*
X158323866Y-113214285D01*
X158323866Y-113214285D02*
X158085771Y-113214285D01*
X158085771Y-113214285D02*
X157895295Y-113166666D01*
X157895295Y-113166666D02*
X157800057Y-113119047D01*
X157800057Y-113119047D02*
X157752438Y-113071428D01*
X157752438Y-113071428D02*
X157704819Y-112976190D01*
X158038152Y-112214285D02*
X158704819Y-112214285D01*
X158133390Y-112214285D02*
X158085771Y-112166666D01*
X158085771Y-112166666D02*
X158038152Y-112071428D01*
X158038152Y-112071428D02*
X158038152Y-111928571D01*
X158038152Y-111928571D02*
X158085771Y-111833333D01*
X158085771Y-111833333D02*
X158181009Y-111785714D01*
X158181009Y-111785714D02*
X158704819Y-111785714D01*
X158181009Y-110976190D02*
X158181009Y-111309523D01*
X158704819Y-111309523D02*
X157704819Y-111309523D01*
X157704819Y-111309523D02*
X157704819Y-110833333D01*
X178954819Y-140690476D02*
X178954819Y-141166666D01*
X178954819Y-141166666D02*
X177954819Y-141166666D01*
X159380952Y-54704819D02*
X159380952Y-53704819D01*
X159380952Y-54181009D02*
X159952380Y-54181009D01*
X159952380Y-54704819D02*
X159952380Y-53704819D01*
X160285714Y-53704819D02*
X160619047Y-54704819D01*
X160619047Y-54704819D02*
X160952380Y-53704819D01*
X161047619Y-54800057D02*
X161809523Y-54800057D01*
X162571428Y-53752438D02*
X162476190Y-53704819D01*
X162476190Y-53704819D02*
X162333333Y-53704819D01*
X162333333Y-53704819D02*
X162190476Y-53752438D01*
X162190476Y-53752438D02*
X162095238Y-53847676D01*
X162095238Y-53847676D02*
X162047619Y-53942914D01*
X162047619Y-53942914D02*
X162000000Y-54133390D01*
X162000000Y-54133390D02*
X162000000Y-54276247D01*
X162000000Y-54276247D02*
X162047619Y-54466723D01*
X162047619Y-54466723D02*
X162095238Y-54561961D01*
X162095238Y-54561961D02*
X162190476Y-54657200D01*
X162190476Y-54657200D02*
X162333333Y-54704819D01*
X162333333Y-54704819D02*
X162428571Y-54704819D01*
X162428571Y-54704819D02*
X162571428Y-54657200D01*
X162571428Y-54657200D02*
X162619047Y-54609580D01*
X162619047Y-54609580D02*
X162619047Y-54276247D01*
X162619047Y-54276247D02*
X162428571Y-54276247D01*
X163047619Y-54704819D02*
X163047619Y-53704819D01*
X163047619Y-53704819D02*
X163619047Y-54704819D01*
X163619047Y-54704819D02*
X163619047Y-53704819D01*
X164095238Y-54704819D02*
X164095238Y-53704819D01*
X164095238Y-53704819D02*
X164333333Y-53704819D01*
X164333333Y-53704819D02*
X164476190Y-53752438D01*
X164476190Y-53752438D02*
X164571428Y-53847676D01*
X164571428Y-53847676D02*
X164619047Y-53942914D01*
X164619047Y-53942914D02*
X164666666Y-54133390D01*
X164666666Y-54133390D02*
X164666666Y-54276247D01*
X164666666Y-54276247D02*
X164619047Y-54466723D01*
X164619047Y-54466723D02*
X164571428Y-54561961D01*
X164571428Y-54561961D02*
X164476190Y-54657200D01*
X164476190Y-54657200D02*
X164333333Y-54704819D01*
X164333333Y-54704819D02*
X164095238Y-54704819D01*
X111714286Y-89734819D02*
X111714286Y-88734819D01*
X112190476Y-89734819D02*
X112190476Y-88734819D01*
X112190476Y-88734819D02*
X112761904Y-89734819D01*
X112761904Y-89734819D02*
X112761904Y-88734819D01*
X113190476Y-89449104D02*
X113666666Y-89449104D01*
X113095238Y-89734819D02*
X113428571Y-88734819D01*
X113428571Y-88734819D02*
X113761904Y-89734819D01*
X114047619Y-88830057D02*
X114095238Y-88782438D01*
X114095238Y-88782438D02*
X114190476Y-88734819D01*
X114190476Y-88734819D02*
X114428571Y-88734819D01*
X114428571Y-88734819D02*
X114523809Y-88782438D01*
X114523809Y-88782438D02*
X114571428Y-88830057D01*
X114571428Y-88830057D02*
X114619047Y-88925295D01*
X114619047Y-88925295D02*
X114619047Y-89020533D01*
X114619047Y-89020533D02*
X114571428Y-89163390D01*
X114571428Y-89163390D02*
X114000000Y-89734819D01*
X114000000Y-89734819D02*
X114619047Y-89734819D01*
X115571428Y-89734819D02*
X115000000Y-89734819D01*
X115285714Y-89734819D02*
X115285714Y-88734819D01*
X115285714Y-88734819D02*
X115190476Y-88877676D01*
X115190476Y-88877676D02*
X115095238Y-88972914D01*
X115095238Y-88972914D02*
X115000000Y-89020533D01*
X116047619Y-89734819D02*
X116238095Y-89734819D01*
X116238095Y-89734819D02*
X116333333Y-89687200D01*
X116333333Y-89687200D02*
X116380952Y-89639580D01*
X116380952Y-89639580D02*
X116476190Y-89496723D01*
X116476190Y-89496723D02*
X116523809Y-89306247D01*
X116523809Y-89306247D02*
X116523809Y-88925295D01*
X116523809Y-88925295D02*
X116476190Y-88830057D01*
X116476190Y-88830057D02*
X116428571Y-88782438D01*
X116428571Y-88782438D02*
X116333333Y-88734819D01*
X116333333Y-88734819D02*
X116142857Y-88734819D01*
X116142857Y-88734819D02*
X116047619Y-88782438D01*
X116047619Y-88782438D02*
X116000000Y-88830057D01*
X116000000Y-88830057D02*
X115952381Y-88925295D01*
X115952381Y-88925295D02*
X115952381Y-89163390D01*
X115952381Y-89163390D02*
X116000000Y-89258628D01*
X116000000Y-89258628D02*
X116047619Y-89306247D01*
X116047619Y-89306247D02*
X116142857Y-89353866D01*
X116142857Y-89353866D02*
X116333333Y-89353866D01*
X116333333Y-89353866D02*
X116428571Y-89306247D01*
X116428571Y-89306247D02*
X116476190Y-89258628D01*
X116476190Y-89258628D02*
X116523809Y-89163390D01*
X116714286Y-89830057D02*
X117476190Y-89830057D01*
X118238095Y-88782438D02*
X118142857Y-88734819D01*
X118142857Y-88734819D02*
X118000000Y-88734819D01*
X118000000Y-88734819D02*
X117857143Y-88782438D01*
X117857143Y-88782438D02*
X117761905Y-88877676D01*
X117761905Y-88877676D02*
X117714286Y-88972914D01*
X117714286Y-88972914D02*
X117666667Y-89163390D01*
X117666667Y-89163390D02*
X117666667Y-89306247D01*
X117666667Y-89306247D02*
X117714286Y-89496723D01*
X117714286Y-89496723D02*
X117761905Y-89591961D01*
X117761905Y-89591961D02*
X117857143Y-89687200D01*
X117857143Y-89687200D02*
X118000000Y-89734819D01*
X118000000Y-89734819D02*
X118095238Y-89734819D01*
X118095238Y-89734819D02*
X118238095Y-89687200D01*
X118238095Y-89687200D02*
X118285714Y-89639580D01*
X118285714Y-89639580D02*
X118285714Y-89306247D01*
X118285714Y-89306247D02*
X118095238Y-89306247D01*
X118714286Y-89734819D02*
X118714286Y-88734819D01*
X118714286Y-88734819D02*
X119285714Y-89734819D01*
X119285714Y-89734819D02*
X119285714Y-88734819D01*
X119761905Y-89734819D02*
X119761905Y-88734819D01*
X119761905Y-88734819D02*
X120000000Y-88734819D01*
X120000000Y-88734819D02*
X120142857Y-88782438D01*
X120142857Y-88782438D02*
X120238095Y-88877676D01*
X120238095Y-88877676D02*
X120285714Y-88972914D01*
X120285714Y-88972914D02*
X120333333Y-89163390D01*
X120333333Y-89163390D02*
X120333333Y-89306247D01*
X120333333Y-89306247D02*
X120285714Y-89496723D01*
X120285714Y-89496723D02*
X120238095Y-89591961D01*
X120238095Y-89591961D02*
X120142857Y-89687200D01*
X120142857Y-89687200D02*
X120000000Y-89734819D01*
X120000000Y-89734819D02*
X119761905Y-89734819D01*
X143114285Y-64854819D02*
X142542857Y-64854819D01*
X142828571Y-64854819D02*
X142828571Y-63854819D01*
X142828571Y-63854819D02*
X142733333Y-63997676D01*
X142733333Y-63997676D02*
X142638095Y-64092914D01*
X142638095Y-64092914D02*
X142542857Y-64140533D01*
X143542857Y-64854819D02*
X143542857Y-63854819D01*
X143542857Y-63854819D02*
X143876190Y-64569104D01*
X143876190Y-64569104D02*
X144209523Y-63854819D01*
X144209523Y-63854819D02*
X144209523Y-64854819D01*
X177904761Y-116677419D02*
X177333333Y-116677419D01*
X177619047Y-116677419D02*
X177619047Y-115677419D01*
X177619047Y-115677419D02*
X177523809Y-115820276D01*
X177523809Y-115820276D02*
X177428571Y-115915514D01*
X177428571Y-115915514D02*
X177333333Y-115963133D01*
X178761904Y-116010752D02*
X178761904Y-116677419D01*
X178333333Y-116010752D02*
X178333333Y-116534561D01*
X178333333Y-116534561D02*
X178380952Y-116629800D01*
X178380952Y-116629800D02*
X178476190Y-116677419D01*
X178476190Y-116677419D02*
X178619047Y-116677419D01*
X178619047Y-116677419D02*
X178714285Y-116629800D01*
X178714285Y-116629800D02*
X178761904Y-116582180D01*
X179571428Y-116153609D02*
X179238095Y-116153609D01*
X179238095Y-116677419D02*
X179238095Y-115677419D01*
X179238095Y-115677419D02*
X179714285Y-115677419D01*
X132514285Y-146054819D02*
X131942857Y-146054819D01*
X132228571Y-146054819D02*
X132228571Y-145054819D01*
X132228571Y-145054819D02*
X132133333Y-145197676D01*
X132133333Y-145197676D02*
X132038095Y-145292914D01*
X132038095Y-145292914D02*
X131942857Y-145340533D01*
X132942857Y-146054819D02*
X132942857Y-145054819D01*
X132942857Y-145054819D02*
X133276190Y-145769104D01*
X133276190Y-145769104D02*
X133609523Y-145054819D01*
X133609523Y-145054819D02*
X133609523Y-146054819D01*
X151484819Y-101642857D02*
X151484819Y-102214285D01*
X151484819Y-101928571D02*
X150484819Y-101928571D01*
X150484819Y-101928571D02*
X150627676Y-102023809D01*
X150627676Y-102023809D02*
X150722914Y-102119047D01*
X150722914Y-102119047D02*
X150770533Y-102214285D01*
X151484819Y-101214285D02*
X150484819Y-101214285D01*
X150484819Y-101214285D02*
X151484819Y-100642857D01*
X151484819Y-100642857D02*
X150484819Y-100642857D01*
X150818152Y-99738095D02*
X151484819Y-99738095D01*
X150437200Y-99976190D02*
X151151485Y-100214285D01*
X151151485Y-100214285D02*
X151151485Y-99595238D01*
X150484819Y-99023809D02*
X150484819Y-98928571D01*
X150484819Y-98928571D02*
X150532438Y-98833333D01*
X150532438Y-98833333D02*
X150580057Y-98785714D01*
X150580057Y-98785714D02*
X150675295Y-98738095D01*
X150675295Y-98738095D02*
X150865771Y-98690476D01*
X150865771Y-98690476D02*
X151103866Y-98690476D01*
X151103866Y-98690476D02*
X151294342Y-98738095D01*
X151294342Y-98738095D02*
X151389580Y-98785714D01*
X151389580Y-98785714D02*
X151437200Y-98833333D01*
X151437200Y-98833333D02*
X151484819Y-98928571D01*
X151484819Y-98928571D02*
X151484819Y-99023809D01*
X151484819Y-99023809D02*
X151437200Y-99119047D01*
X151437200Y-99119047D02*
X151389580Y-99166666D01*
X151389580Y-99166666D02*
X151294342Y-99214285D01*
X151294342Y-99214285D02*
X151103866Y-99261904D01*
X151103866Y-99261904D02*
X150865771Y-99261904D01*
X150865771Y-99261904D02*
X150675295Y-99214285D01*
X150675295Y-99214285D02*
X150580057Y-99166666D01*
X150580057Y-99166666D02*
X150532438Y-99119047D01*
X150532438Y-99119047D02*
X150484819Y-99023809D01*
X150484819Y-98071428D02*
X150484819Y-97976190D01*
X150484819Y-97976190D02*
X150532438Y-97880952D01*
X150532438Y-97880952D02*
X150580057Y-97833333D01*
X150580057Y-97833333D02*
X150675295Y-97785714D01*
X150675295Y-97785714D02*
X150865771Y-97738095D01*
X150865771Y-97738095D02*
X151103866Y-97738095D01*
X151103866Y-97738095D02*
X151294342Y-97785714D01*
X151294342Y-97785714D02*
X151389580Y-97833333D01*
X151389580Y-97833333D02*
X151437200Y-97880952D01*
X151437200Y-97880952D02*
X151484819Y-97976190D01*
X151484819Y-97976190D02*
X151484819Y-98071428D01*
X151484819Y-98071428D02*
X151437200Y-98166666D01*
X151437200Y-98166666D02*
X151389580Y-98214285D01*
X151389580Y-98214285D02*
X151294342Y-98261904D01*
X151294342Y-98261904D02*
X151103866Y-98309523D01*
X151103866Y-98309523D02*
X150865771Y-98309523D01*
X150865771Y-98309523D02*
X150675295Y-98261904D01*
X150675295Y-98261904D02*
X150580057Y-98214285D01*
X150580057Y-98214285D02*
X150532438Y-98166666D01*
X150532438Y-98166666D02*
X150484819Y-98071428D01*
X150484819Y-97404761D02*
X150484819Y-96738095D01*
X150484819Y-96738095D02*
X151484819Y-97166666D01*
X156054819Y-94681904D02*
X155054819Y-94681904D01*
X156054819Y-94110476D02*
X155483390Y-94539047D01*
X155054819Y-94110476D02*
X155626247Y-94681904D01*
X166519048Y-97350057D02*
X166566667Y-97302438D01*
X166566667Y-97302438D02*
X166661905Y-97254819D01*
X166661905Y-97254819D02*
X166900000Y-97254819D01*
X166900000Y-97254819D02*
X166995238Y-97302438D01*
X166995238Y-97302438D02*
X167042857Y-97350057D01*
X167042857Y-97350057D02*
X167090476Y-97445295D01*
X167090476Y-97445295D02*
X167090476Y-97540533D01*
X167090476Y-97540533D02*
X167042857Y-97683390D01*
X167042857Y-97683390D02*
X166471429Y-98254819D01*
X166471429Y-98254819D02*
X167090476Y-98254819D01*
X167519048Y-98159580D02*
X167566667Y-98207200D01*
X167566667Y-98207200D02*
X167519048Y-98254819D01*
X167519048Y-98254819D02*
X167471429Y-98207200D01*
X167471429Y-98207200D02*
X167519048Y-98159580D01*
X167519048Y-98159580D02*
X167519048Y-98254819D01*
X167947619Y-97350057D02*
X167995238Y-97302438D01*
X167995238Y-97302438D02*
X168090476Y-97254819D01*
X168090476Y-97254819D02*
X168328571Y-97254819D01*
X168328571Y-97254819D02*
X168423809Y-97302438D01*
X168423809Y-97302438D02*
X168471428Y-97350057D01*
X168471428Y-97350057D02*
X168519047Y-97445295D01*
X168519047Y-97445295D02*
X168519047Y-97540533D01*
X168519047Y-97540533D02*
X168471428Y-97683390D01*
X168471428Y-97683390D02*
X167900000Y-98254819D01*
X167900000Y-98254819D02*
X168519047Y-98254819D01*
X169376190Y-97588152D02*
X169376190Y-98254819D01*
X168947619Y-97588152D02*
X168947619Y-98111961D01*
X168947619Y-98111961D02*
X168995238Y-98207200D01*
X168995238Y-98207200D02*
X169090476Y-98254819D01*
X169090476Y-98254819D02*
X169233333Y-98254819D01*
X169233333Y-98254819D02*
X169328571Y-98207200D01*
X169328571Y-98207200D02*
X169376190Y-98159580D01*
X170185714Y-97731009D02*
X169852381Y-97731009D01*
X169852381Y-98254819D02*
X169852381Y-97254819D01*
X169852381Y-97254819D02*
X170328571Y-97254819D01*
X138642857Y-55169104D02*
X139119047Y-55169104D01*
X138547619Y-55454819D02*
X138880952Y-54454819D01*
X138880952Y-54454819D02*
X139214285Y-55454819D01*
X140119047Y-55359580D02*
X140071428Y-55407200D01*
X140071428Y-55407200D02*
X139928571Y-55454819D01*
X139928571Y-55454819D02*
X139833333Y-55454819D01*
X139833333Y-55454819D02*
X139690476Y-55407200D01*
X139690476Y-55407200D02*
X139595238Y-55311961D01*
X139595238Y-55311961D02*
X139547619Y-55216723D01*
X139547619Y-55216723D02*
X139500000Y-55026247D01*
X139500000Y-55026247D02*
X139500000Y-54883390D01*
X139500000Y-54883390D02*
X139547619Y-54692914D01*
X139547619Y-54692914D02*
X139595238Y-54597676D01*
X139595238Y-54597676D02*
X139690476Y-54502438D01*
X139690476Y-54502438D02*
X139833333Y-54454819D01*
X139833333Y-54454819D02*
X139928571Y-54454819D01*
X139928571Y-54454819D02*
X140071428Y-54502438D01*
X140071428Y-54502438D02*
X140119047Y-54550057D01*
X140309524Y-55550057D02*
X141071428Y-55550057D01*
X141309524Y-55454819D02*
X141309524Y-54454819D01*
X141309524Y-54454819D02*
X141880952Y-55454819D01*
X141880952Y-55454819D02*
X141880952Y-54454819D01*
X142357143Y-54931009D02*
X142690476Y-54931009D01*
X142833333Y-55454819D02*
X142357143Y-55454819D01*
X142357143Y-55454819D02*
X142357143Y-54454819D01*
X142357143Y-54454819D02*
X142833333Y-54454819D01*
X143261905Y-54454819D02*
X143261905Y-55264342D01*
X143261905Y-55264342D02*
X143309524Y-55359580D01*
X143309524Y-55359580D02*
X143357143Y-55407200D01*
X143357143Y-55407200D02*
X143452381Y-55454819D01*
X143452381Y-55454819D02*
X143642857Y-55454819D01*
X143642857Y-55454819D02*
X143738095Y-55407200D01*
X143738095Y-55407200D02*
X143785714Y-55359580D01*
X143785714Y-55359580D02*
X143833333Y-55264342D01*
X143833333Y-55264342D02*
X143833333Y-54454819D01*
X144166667Y-54454819D02*
X144738095Y-54454819D01*
X144452381Y-55454819D02*
X144452381Y-54454819D01*
X144833334Y-55550057D02*
X145595238Y-55550057D01*
X146357143Y-55454819D02*
X145785715Y-55454819D01*
X146071429Y-55454819D02*
X146071429Y-54454819D01*
X146071429Y-54454819D02*
X145976191Y-54597676D01*
X145976191Y-54597676D02*
X145880953Y-54692914D01*
X145880953Y-54692914D02*
X145785715Y-54740533D01*
X123454819Y-133023809D02*
X123454819Y-133595237D01*
X123454819Y-133309523D02*
X122454819Y-133309523D01*
X122454819Y-133309523D02*
X122597676Y-133404761D01*
X122597676Y-133404761D02*
X122692914Y-133499999D01*
X122692914Y-133499999D02*
X122740533Y-133595237D01*
X122454819Y-132404761D02*
X122454819Y-132309523D01*
X122454819Y-132309523D02*
X122502438Y-132214285D01*
X122502438Y-132214285D02*
X122550057Y-132166666D01*
X122550057Y-132166666D02*
X122645295Y-132119047D01*
X122645295Y-132119047D02*
X122835771Y-132071428D01*
X122835771Y-132071428D02*
X123073866Y-132071428D01*
X123073866Y-132071428D02*
X123264342Y-132119047D01*
X123264342Y-132119047D02*
X123359580Y-132166666D01*
X123359580Y-132166666D02*
X123407200Y-132214285D01*
X123407200Y-132214285D02*
X123454819Y-132309523D01*
X123454819Y-132309523D02*
X123454819Y-132404761D01*
X123454819Y-132404761D02*
X123407200Y-132499999D01*
X123407200Y-132499999D02*
X123359580Y-132547618D01*
X123359580Y-132547618D02*
X123264342Y-132595237D01*
X123264342Y-132595237D02*
X123073866Y-132642856D01*
X123073866Y-132642856D02*
X122835771Y-132642856D01*
X122835771Y-132642856D02*
X122645295Y-132595237D01*
X122645295Y-132595237D02*
X122550057Y-132547618D01*
X122550057Y-132547618D02*
X122502438Y-132499999D01*
X122502438Y-132499999D02*
X122454819Y-132404761D01*
X122454819Y-131452380D02*
X122454819Y-131357142D01*
X122454819Y-131357142D02*
X122502438Y-131261904D01*
X122502438Y-131261904D02*
X122550057Y-131214285D01*
X122550057Y-131214285D02*
X122645295Y-131166666D01*
X122645295Y-131166666D02*
X122835771Y-131119047D01*
X122835771Y-131119047D02*
X123073866Y-131119047D01*
X123073866Y-131119047D02*
X123264342Y-131166666D01*
X123264342Y-131166666D02*
X123359580Y-131214285D01*
X123359580Y-131214285D02*
X123407200Y-131261904D01*
X123407200Y-131261904D02*
X123454819Y-131357142D01*
X123454819Y-131357142D02*
X123454819Y-131452380D01*
X123454819Y-131452380D02*
X123407200Y-131547618D01*
X123407200Y-131547618D02*
X123359580Y-131595237D01*
X123359580Y-131595237D02*
X123264342Y-131642856D01*
X123264342Y-131642856D02*
X123073866Y-131690475D01*
X123073866Y-131690475D02*
X122835771Y-131690475D01*
X122835771Y-131690475D02*
X122645295Y-131642856D01*
X122645295Y-131642856D02*
X122550057Y-131595237D01*
X122550057Y-131595237D02*
X122502438Y-131547618D01*
X122502438Y-131547618D02*
X122454819Y-131452380D01*
X122454819Y-130499999D02*
X122454819Y-130404761D01*
X122454819Y-130404761D02*
X122502438Y-130309523D01*
X122502438Y-130309523D02*
X122550057Y-130261904D01*
X122550057Y-130261904D02*
X122645295Y-130214285D01*
X122645295Y-130214285D02*
X122835771Y-130166666D01*
X122835771Y-130166666D02*
X123073866Y-130166666D01*
X123073866Y-130166666D02*
X123264342Y-130214285D01*
X123264342Y-130214285D02*
X123359580Y-130261904D01*
X123359580Y-130261904D02*
X123407200Y-130309523D01*
X123407200Y-130309523D02*
X123454819Y-130404761D01*
X123454819Y-130404761D02*
X123454819Y-130499999D01*
X123454819Y-130499999D02*
X123407200Y-130595237D01*
X123407200Y-130595237D02*
X123359580Y-130642856D01*
X123359580Y-130642856D02*
X123264342Y-130690475D01*
X123264342Y-130690475D02*
X123073866Y-130738094D01*
X123073866Y-130738094D02*
X122835771Y-130738094D01*
X122835771Y-130738094D02*
X122645295Y-130690475D01*
X122645295Y-130690475D02*
X122550057Y-130642856D01*
X122550057Y-130642856D02*
X122502438Y-130595237D01*
X122502438Y-130595237D02*
X122454819Y-130499999D01*
X122788152Y-129309523D02*
X123454819Y-129309523D01*
X122788152Y-129738094D02*
X123311961Y-129738094D01*
X123311961Y-129738094D02*
X123407200Y-129690475D01*
X123407200Y-129690475D02*
X123454819Y-129595237D01*
X123454819Y-129595237D02*
X123454819Y-129452380D01*
X123454819Y-129452380D02*
X123407200Y-129357142D01*
X123407200Y-129357142D02*
X123359580Y-129309523D01*
X122931009Y-128499999D02*
X122931009Y-128833332D01*
X123454819Y-128833332D02*
X122454819Y-128833332D01*
X122454819Y-128833332D02*
X122454819Y-128357142D01*
X151642857Y-54704819D02*
X151642857Y-53704819D01*
X151642857Y-54181009D02*
X152214285Y-54181009D01*
X152214285Y-54704819D02*
X152214285Y-53704819D01*
X152547619Y-53704819D02*
X152880952Y-54704819D01*
X152880952Y-54704819D02*
X153214285Y-53704819D01*
X153309524Y-54800057D02*
X154071428Y-54800057D01*
X154309524Y-54704819D02*
X154309524Y-53704819D01*
X154785714Y-54704819D02*
X154785714Y-53704819D01*
X154785714Y-53704819D02*
X155357142Y-54704819D01*
X155357142Y-54704819D02*
X155357142Y-53704819D01*
X170952380Y-131954819D02*
X170380952Y-131954819D01*
X170666666Y-131954819D02*
X170666666Y-130954819D01*
X170666666Y-130954819D02*
X170571428Y-131097676D01*
X170571428Y-131097676D02*
X170476190Y-131192914D01*
X170476190Y-131192914D02*
X170380952Y-131240533D01*
X171571428Y-130954819D02*
X171666666Y-130954819D01*
X171666666Y-130954819D02*
X171761904Y-131002438D01*
X171761904Y-131002438D02*
X171809523Y-131050057D01*
X171809523Y-131050057D02*
X171857142Y-131145295D01*
X171857142Y-131145295D02*
X171904761Y-131335771D01*
X171904761Y-131335771D02*
X171904761Y-131573866D01*
X171904761Y-131573866D02*
X171857142Y-131764342D01*
X171857142Y-131764342D02*
X171809523Y-131859580D01*
X171809523Y-131859580D02*
X171761904Y-131907200D01*
X171761904Y-131907200D02*
X171666666Y-131954819D01*
X171666666Y-131954819D02*
X171571428Y-131954819D01*
X171571428Y-131954819D02*
X171476190Y-131907200D01*
X171476190Y-131907200D02*
X171428571Y-131859580D01*
X171428571Y-131859580D02*
X171380952Y-131764342D01*
X171380952Y-131764342D02*
X171333333Y-131573866D01*
X171333333Y-131573866D02*
X171333333Y-131335771D01*
X171333333Y-131335771D02*
X171380952Y-131145295D01*
X171380952Y-131145295D02*
X171428571Y-131050057D01*
X171428571Y-131050057D02*
X171476190Y-131002438D01*
X171476190Y-131002438D02*
X171571428Y-130954819D01*
X172523809Y-130954819D02*
X172619047Y-130954819D01*
X172619047Y-130954819D02*
X172714285Y-131002438D01*
X172714285Y-131002438D02*
X172761904Y-131050057D01*
X172761904Y-131050057D02*
X172809523Y-131145295D01*
X172809523Y-131145295D02*
X172857142Y-131335771D01*
X172857142Y-131335771D02*
X172857142Y-131573866D01*
X172857142Y-131573866D02*
X172809523Y-131764342D01*
X172809523Y-131764342D02*
X172761904Y-131859580D01*
X172761904Y-131859580D02*
X172714285Y-131907200D01*
X172714285Y-131907200D02*
X172619047Y-131954819D01*
X172619047Y-131954819D02*
X172523809Y-131954819D01*
X172523809Y-131954819D02*
X172428571Y-131907200D01*
X172428571Y-131907200D02*
X172380952Y-131859580D01*
X172380952Y-131859580D02*
X172333333Y-131764342D01*
X172333333Y-131764342D02*
X172285714Y-131573866D01*
X172285714Y-131573866D02*
X172285714Y-131335771D01*
X172285714Y-131335771D02*
X172333333Y-131145295D01*
X172333333Y-131145295D02*
X172380952Y-131050057D01*
X172380952Y-131050057D02*
X172428571Y-131002438D01*
X172428571Y-131002438D02*
X172523809Y-130954819D01*
X173285714Y-131288152D02*
X173285714Y-131954819D01*
X173285714Y-131383390D02*
X173333333Y-131335771D01*
X173333333Y-131335771D02*
X173428571Y-131288152D01*
X173428571Y-131288152D02*
X173571428Y-131288152D01*
X173571428Y-131288152D02*
X173666666Y-131335771D01*
X173666666Y-131335771D02*
X173714285Y-131431009D01*
X173714285Y-131431009D02*
X173714285Y-131954819D01*
X174523809Y-131431009D02*
X174190476Y-131431009D01*
X174190476Y-131954819D02*
X174190476Y-130954819D01*
X174190476Y-130954819D02*
X174666666Y-130954819D01*
X178454819Y-112547619D02*
X178454819Y-113119047D01*
X178454819Y-112833333D02*
X177454819Y-112833333D01*
X177454819Y-112833333D02*
X177597676Y-112928571D01*
X177597676Y-112928571D02*
X177692914Y-113023809D01*
X177692914Y-113023809D02*
X177740533Y-113119047D01*
X177454819Y-111928571D02*
X177454819Y-111833333D01*
X177454819Y-111833333D02*
X177502438Y-111738095D01*
X177502438Y-111738095D02*
X177550057Y-111690476D01*
X177550057Y-111690476D02*
X177645295Y-111642857D01*
X177645295Y-111642857D02*
X177835771Y-111595238D01*
X177835771Y-111595238D02*
X178073866Y-111595238D01*
X178073866Y-111595238D02*
X178264342Y-111642857D01*
X178264342Y-111642857D02*
X178359580Y-111690476D01*
X178359580Y-111690476D02*
X178407200Y-111738095D01*
X178407200Y-111738095D02*
X178454819Y-111833333D01*
X178454819Y-111833333D02*
X178454819Y-111928571D01*
X178454819Y-111928571D02*
X178407200Y-112023809D01*
X178407200Y-112023809D02*
X178359580Y-112071428D01*
X178359580Y-112071428D02*
X178264342Y-112119047D01*
X178264342Y-112119047D02*
X178073866Y-112166666D01*
X178073866Y-112166666D02*
X177835771Y-112166666D01*
X177835771Y-112166666D02*
X177645295Y-112119047D01*
X177645295Y-112119047D02*
X177550057Y-112071428D01*
X177550057Y-112071428D02*
X177502438Y-112023809D01*
X177502438Y-112023809D02*
X177454819Y-111928571D01*
X177454819Y-110976190D02*
X177454819Y-110880952D01*
X177454819Y-110880952D02*
X177502438Y-110785714D01*
X177502438Y-110785714D02*
X177550057Y-110738095D01*
X177550057Y-110738095D02*
X177645295Y-110690476D01*
X177645295Y-110690476D02*
X177835771Y-110642857D01*
X177835771Y-110642857D02*
X178073866Y-110642857D01*
X178073866Y-110642857D02*
X178264342Y-110690476D01*
X178264342Y-110690476D02*
X178359580Y-110738095D01*
X178359580Y-110738095D02*
X178407200Y-110785714D01*
X178407200Y-110785714D02*
X178454819Y-110880952D01*
X178454819Y-110880952D02*
X178454819Y-110976190D01*
X178454819Y-110976190D02*
X178407200Y-111071428D01*
X178407200Y-111071428D02*
X178359580Y-111119047D01*
X178359580Y-111119047D02*
X178264342Y-111166666D01*
X178264342Y-111166666D02*
X178073866Y-111214285D01*
X178073866Y-111214285D02*
X177835771Y-111214285D01*
X177835771Y-111214285D02*
X177645295Y-111166666D01*
X177645295Y-111166666D02*
X177550057Y-111119047D01*
X177550057Y-111119047D02*
X177502438Y-111071428D01*
X177502438Y-111071428D02*
X177454819Y-110976190D01*
X177788152Y-110214285D02*
X178454819Y-110214285D01*
X177883390Y-110214285D02*
X177835771Y-110166666D01*
X177835771Y-110166666D02*
X177788152Y-110071428D01*
X177788152Y-110071428D02*
X177788152Y-109928571D01*
X177788152Y-109928571D02*
X177835771Y-109833333D01*
X177835771Y-109833333D02*
X177931009Y-109785714D01*
X177931009Y-109785714D02*
X178454819Y-109785714D01*
X177931009Y-108976190D02*
X177931009Y-109309523D01*
X178454819Y-109309523D02*
X177454819Y-109309523D01*
X177454819Y-109309523D02*
X177454819Y-108833333D01*
X113333333Y-76444819D02*
X112761905Y-76444819D01*
X113047619Y-76444819D02*
X113047619Y-75444819D01*
X113047619Y-75444819D02*
X112952381Y-75587676D01*
X112952381Y-75587676D02*
X112857143Y-75682914D01*
X112857143Y-75682914D02*
X112761905Y-75730533D01*
X113952381Y-75444819D02*
X114047619Y-75444819D01*
X114047619Y-75444819D02*
X114142857Y-75492438D01*
X114142857Y-75492438D02*
X114190476Y-75540057D01*
X114190476Y-75540057D02*
X114238095Y-75635295D01*
X114238095Y-75635295D02*
X114285714Y-75825771D01*
X114285714Y-75825771D02*
X114285714Y-76063866D01*
X114285714Y-76063866D02*
X114238095Y-76254342D01*
X114238095Y-76254342D02*
X114190476Y-76349580D01*
X114190476Y-76349580D02*
X114142857Y-76397200D01*
X114142857Y-76397200D02*
X114047619Y-76444819D01*
X114047619Y-76444819D02*
X113952381Y-76444819D01*
X113952381Y-76444819D02*
X113857143Y-76397200D01*
X113857143Y-76397200D02*
X113809524Y-76349580D01*
X113809524Y-76349580D02*
X113761905Y-76254342D01*
X113761905Y-76254342D02*
X113714286Y-76063866D01*
X113714286Y-76063866D02*
X113714286Y-75825771D01*
X113714286Y-75825771D02*
X113761905Y-75635295D01*
X113761905Y-75635295D02*
X113809524Y-75540057D01*
X113809524Y-75540057D02*
X113857143Y-75492438D01*
X113857143Y-75492438D02*
X113952381Y-75444819D01*
X114904762Y-75444819D02*
X115095238Y-75444819D01*
X115095238Y-75444819D02*
X115190476Y-75492438D01*
X115190476Y-75492438D02*
X115285714Y-75587676D01*
X115285714Y-75587676D02*
X115333333Y-75778152D01*
X115333333Y-75778152D02*
X115333333Y-76111485D01*
X115333333Y-76111485D02*
X115285714Y-76301961D01*
X115285714Y-76301961D02*
X115190476Y-76397200D01*
X115190476Y-76397200D02*
X115095238Y-76444819D01*
X115095238Y-76444819D02*
X114904762Y-76444819D01*
X114904762Y-76444819D02*
X114809524Y-76397200D01*
X114809524Y-76397200D02*
X114714286Y-76301961D01*
X114714286Y-76301961D02*
X114666667Y-76111485D01*
X114666667Y-76111485D02*
X114666667Y-75778152D01*
X114666667Y-75778152D02*
X114714286Y-75587676D01*
X114714286Y-75587676D02*
X114809524Y-75492438D01*
X114809524Y-75492438D02*
X114904762Y-75444819D01*
X115761905Y-76444819D02*
X115761905Y-75444819D01*
X115761905Y-75921009D02*
X116333333Y-75921009D01*
X116333333Y-76444819D02*
X116333333Y-75444819D01*
X116809524Y-76444819D02*
X116809524Y-75444819D01*
X116809524Y-75444819D02*
X117142857Y-76159104D01*
X117142857Y-76159104D02*
X117476190Y-75444819D01*
X117476190Y-75444819D02*
X117476190Y-76444819D01*
X117714286Y-76540057D02*
X118476190Y-76540057D01*
X119238095Y-76444819D02*
X118666667Y-76444819D01*
X118952381Y-76444819D02*
X118952381Y-75444819D01*
X118952381Y-75444819D02*
X118857143Y-75587676D01*
X118857143Y-75587676D02*
X118761905Y-75682914D01*
X118761905Y-75682914D02*
X118666667Y-75730533D01*
X158527142Y-59454819D02*
X157955714Y-59454819D01*
X158241428Y-59454819D02*
X158241428Y-58454819D01*
X158241428Y-58454819D02*
X158146190Y-58597676D01*
X158146190Y-58597676D02*
X158050952Y-58692914D01*
X158050952Y-58692914D02*
X157955714Y-58740533D01*
X158955714Y-59454819D02*
X158955714Y-58454819D01*
X158955714Y-58454819D02*
X159527142Y-59454819D01*
X159527142Y-59454819D02*
X159527142Y-58454819D01*
X160431904Y-58788152D02*
X160431904Y-59454819D01*
X160193809Y-58407200D02*
X159955714Y-59121485D01*
X159955714Y-59121485D02*
X160574761Y-59121485D01*
X161146190Y-58454819D02*
X161241428Y-58454819D01*
X161241428Y-58454819D02*
X161336666Y-58502438D01*
X161336666Y-58502438D02*
X161384285Y-58550057D01*
X161384285Y-58550057D02*
X161431904Y-58645295D01*
X161431904Y-58645295D02*
X161479523Y-58835771D01*
X161479523Y-58835771D02*
X161479523Y-59073866D01*
X161479523Y-59073866D02*
X161431904Y-59264342D01*
X161431904Y-59264342D02*
X161384285Y-59359580D01*
X161384285Y-59359580D02*
X161336666Y-59407200D01*
X161336666Y-59407200D02*
X161241428Y-59454819D01*
X161241428Y-59454819D02*
X161146190Y-59454819D01*
X161146190Y-59454819D02*
X161050952Y-59407200D01*
X161050952Y-59407200D02*
X161003333Y-59359580D01*
X161003333Y-59359580D02*
X160955714Y-59264342D01*
X160955714Y-59264342D02*
X160908095Y-59073866D01*
X160908095Y-59073866D02*
X160908095Y-58835771D01*
X160908095Y-58835771D02*
X160955714Y-58645295D01*
X160955714Y-58645295D02*
X161003333Y-58550057D01*
X161003333Y-58550057D02*
X161050952Y-58502438D01*
X161050952Y-58502438D02*
X161146190Y-58454819D01*
X162098571Y-58454819D02*
X162193809Y-58454819D01*
X162193809Y-58454819D02*
X162289047Y-58502438D01*
X162289047Y-58502438D02*
X162336666Y-58550057D01*
X162336666Y-58550057D02*
X162384285Y-58645295D01*
X162384285Y-58645295D02*
X162431904Y-58835771D01*
X162431904Y-58835771D02*
X162431904Y-59073866D01*
X162431904Y-59073866D02*
X162384285Y-59264342D01*
X162384285Y-59264342D02*
X162336666Y-59359580D01*
X162336666Y-59359580D02*
X162289047Y-59407200D01*
X162289047Y-59407200D02*
X162193809Y-59454819D01*
X162193809Y-59454819D02*
X162098571Y-59454819D01*
X162098571Y-59454819D02*
X162003333Y-59407200D01*
X162003333Y-59407200D02*
X161955714Y-59359580D01*
X161955714Y-59359580D02*
X161908095Y-59264342D01*
X161908095Y-59264342D02*
X161860476Y-59073866D01*
X161860476Y-59073866D02*
X161860476Y-58835771D01*
X161860476Y-58835771D02*
X161908095Y-58645295D01*
X161908095Y-58645295D02*
X161955714Y-58550057D01*
X161955714Y-58550057D02*
X162003333Y-58502438D01*
X162003333Y-58502438D02*
X162098571Y-58454819D01*
X162765238Y-58454819D02*
X163431904Y-58454819D01*
X163431904Y-58454819D02*
X163003333Y-59454819D01*
X165238095Y-64054819D02*
X165238095Y-63054819D01*
X165809523Y-64054819D02*
X165380952Y-63483390D01*
X165809523Y-63054819D02*
X165238095Y-63626247D01*
X131404762Y-48669104D02*
X131880952Y-48669104D01*
X131309524Y-48954819D02*
X131642857Y-47954819D01*
X131642857Y-47954819D02*
X131976190Y-48954819D01*
X132880952Y-48859580D02*
X132833333Y-48907200D01*
X132833333Y-48907200D02*
X132690476Y-48954819D01*
X132690476Y-48954819D02*
X132595238Y-48954819D01*
X132595238Y-48954819D02*
X132452381Y-48907200D01*
X132452381Y-48907200D02*
X132357143Y-48811961D01*
X132357143Y-48811961D02*
X132309524Y-48716723D01*
X132309524Y-48716723D02*
X132261905Y-48526247D01*
X132261905Y-48526247D02*
X132261905Y-48383390D01*
X132261905Y-48383390D02*
X132309524Y-48192914D01*
X132309524Y-48192914D02*
X132357143Y-48097676D01*
X132357143Y-48097676D02*
X132452381Y-48002438D01*
X132452381Y-48002438D02*
X132595238Y-47954819D01*
X132595238Y-47954819D02*
X132690476Y-47954819D01*
X132690476Y-47954819D02*
X132833333Y-48002438D01*
X132833333Y-48002438D02*
X132880952Y-48050057D01*
X133071429Y-49050057D02*
X133833333Y-49050057D01*
X134547619Y-48954819D02*
X134071429Y-48954819D01*
X134071429Y-48954819D02*
X134071429Y-47954819D01*
X134880953Y-48954819D02*
X134880953Y-47954819D01*
X135357143Y-48954819D02*
X135357143Y-47954819D01*
X135357143Y-47954819D02*
X135928571Y-48954819D01*
X135928571Y-48954819D02*
X135928571Y-47954819D01*
X136404762Y-48431009D02*
X136738095Y-48431009D01*
X136880952Y-48954819D02*
X136404762Y-48954819D01*
X136404762Y-48954819D02*
X136404762Y-47954819D01*
X136404762Y-47954819D02*
X136880952Y-47954819D01*
X137071429Y-49050057D02*
X137833333Y-49050057D01*
X138595238Y-48954819D02*
X138023810Y-48954819D01*
X138309524Y-48954819D02*
X138309524Y-47954819D01*
X138309524Y-47954819D02*
X138214286Y-48097676D01*
X138214286Y-48097676D02*
X138119048Y-48192914D01*
X138119048Y-48192914D02*
X138023810Y-48240533D01*
X122088095Y-57788152D02*
X122088095Y-58454819D01*
X121850000Y-57407200D02*
X121611905Y-58121485D01*
X121611905Y-58121485D02*
X122230952Y-58121485D01*
X122516667Y-57454819D02*
X123183333Y-57454819D01*
X123183333Y-57454819D02*
X122754762Y-58454819D01*
X123564286Y-58454819D02*
X123564286Y-57454819D01*
X123659524Y-58073866D02*
X123945238Y-58454819D01*
X123945238Y-57788152D02*
X123564286Y-58169104D01*
X125088095Y-57407200D02*
X124230953Y-58692914D01*
X125897619Y-57454819D02*
X125421429Y-57454819D01*
X125421429Y-57454819D02*
X125373810Y-57931009D01*
X125373810Y-57931009D02*
X125421429Y-57883390D01*
X125421429Y-57883390D02*
X125516667Y-57835771D01*
X125516667Y-57835771D02*
X125754762Y-57835771D01*
X125754762Y-57835771D02*
X125850000Y-57883390D01*
X125850000Y-57883390D02*
X125897619Y-57931009D01*
X125897619Y-57931009D02*
X125945238Y-58026247D01*
X125945238Y-58026247D02*
X125945238Y-58264342D01*
X125945238Y-58264342D02*
X125897619Y-58359580D01*
X125897619Y-58359580D02*
X125850000Y-58407200D01*
X125850000Y-58407200D02*
X125754762Y-58454819D01*
X125754762Y-58454819D02*
X125516667Y-58454819D01*
X125516667Y-58454819D02*
X125421429Y-58407200D01*
X125421429Y-58407200D02*
X125373810Y-58359580D01*
X126278572Y-57454819D02*
X126516667Y-58454819D01*
X126516667Y-58454819D02*
X126707143Y-57740533D01*
X126707143Y-57740533D02*
X126897619Y-58454819D01*
X126897619Y-58454819D02*
X127135715Y-57454819D01*
X169857142Y-56454819D02*
X169285714Y-56454819D01*
X169571428Y-56454819D02*
X169571428Y-55454819D01*
X169571428Y-55454819D02*
X169476190Y-55597676D01*
X169476190Y-55597676D02*
X169380952Y-55692914D01*
X169380952Y-55692914D02*
X169285714Y-55740533D01*
X170714285Y-55454819D02*
X170523809Y-55454819D01*
X170523809Y-55454819D02*
X170428571Y-55502438D01*
X170428571Y-55502438D02*
X170380952Y-55550057D01*
X170380952Y-55550057D02*
X170285714Y-55692914D01*
X170285714Y-55692914D02*
X170238095Y-55883390D01*
X170238095Y-55883390D02*
X170238095Y-56264342D01*
X170238095Y-56264342D02*
X170285714Y-56359580D01*
X170285714Y-56359580D02*
X170333333Y-56407200D01*
X170333333Y-56407200D02*
X170428571Y-56454819D01*
X170428571Y-56454819D02*
X170619047Y-56454819D01*
X170619047Y-56454819D02*
X170714285Y-56407200D01*
X170714285Y-56407200D02*
X170761904Y-56359580D01*
X170761904Y-56359580D02*
X170809523Y-56264342D01*
X170809523Y-56264342D02*
X170809523Y-56026247D01*
X170809523Y-56026247D02*
X170761904Y-55931009D01*
X170761904Y-55931009D02*
X170714285Y-55883390D01*
X170714285Y-55883390D02*
X170619047Y-55835771D01*
X170619047Y-55835771D02*
X170428571Y-55835771D01*
X170428571Y-55835771D02*
X170333333Y-55883390D01*
X170333333Y-55883390D02*
X170285714Y-55931009D01*
X170285714Y-55931009D02*
X170238095Y-56026247D01*
X171238095Y-56454819D02*
X171238095Y-55454819D01*
X171238095Y-55454819D02*
X171809523Y-56454819D01*
X171809523Y-56454819D02*
X171809523Y-55454819D01*
X172190476Y-55454819D02*
X172857142Y-55454819D01*
X172857142Y-55454819D02*
X172428571Y-56454819D01*
X173428571Y-55454819D02*
X173523809Y-55454819D01*
X173523809Y-55454819D02*
X173619047Y-55502438D01*
X173619047Y-55502438D02*
X173666666Y-55550057D01*
X173666666Y-55550057D02*
X173714285Y-55645295D01*
X173714285Y-55645295D02*
X173761904Y-55835771D01*
X173761904Y-55835771D02*
X173761904Y-56073866D01*
X173761904Y-56073866D02*
X173714285Y-56264342D01*
X173714285Y-56264342D02*
X173666666Y-56359580D01*
X173666666Y-56359580D02*
X173619047Y-56407200D01*
X173619047Y-56407200D02*
X173523809Y-56454819D01*
X173523809Y-56454819D02*
X173428571Y-56454819D01*
X173428571Y-56454819D02*
X173333333Y-56407200D01*
X173333333Y-56407200D02*
X173285714Y-56359580D01*
X173285714Y-56359580D02*
X173238095Y-56264342D01*
X173238095Y-56264342D02*
X173190476Y-56073866D01*
X173190476Y-56073866D02*
X173190476Y-55835771D01*
X173190476Y-55835771D02*
X173238095Y-55645295D01*
X173238095Y-55645295D02*
X173285714Y-55550057D01*
X173285714Y-55550057D02*
X173333333Y-55502438D01*
X173333333Y-55502438D02*
X173428571Y-55454819D01*
X174761904Y-56359580D02*
X174714285Y-56407200D01*
X174714285Y-56407200D02*
X174571428Y-56454819D01*
X174571428Y-56454819D02*
X174476190Y-56454819D01*
X174476190Y-56454819D02*
X174333333Y-56407200D01*
X174333333Y-56407200D02*
X174238095Y-56311961D01*
X174238095Y-56311961D02*
X174190476Y-56216723D01*
X174190476Y-56216723D02*
X174142857Y-56026247D01*
X174142857Y-56026247D02*
X174142857Y-55883390D01*
X174142857Y-55883390D02*
X174190476Y-55692914D01*
X174190476Y-55692914D02*
X174238095Y-55597676D01*
X174238095Y-55597676D02*
X174333333Y-55502438D01*
X174333333Y-55502438D02*
X174476190Y-55454819D01*
X174476190Y-55454819D02*
X174571428Y-55454819D01*
X174571428Y-55454819D02*
X174714285Y-55502438D01*
X174714285Y-55502438D02*
X174761904Y-55550057D01*
X175142857Y-55550057D02*
X175190476Y-55502438D01*
X175190476Y-55502438D02*
X175285714Y-55454819D01*
X175285714Y-55454819D02*
X175523809Y-55454819D01*
X175523809Y-55454819D02*
X175619047Y-55502438D01*
X175619047Y-55502438D02*
X175666666Y-55550057D01*
X175666666Y-55550057D02*
X175714285Y-55645295D01*
X175714285Y-55645295D02*
X175714285Y-55740533D01*
X175714285Y-55740533D02*
X175666666Y-55883390D01*
X175666666Y-55883390D02*
X175095238Y-56454819D01*
X175095238Y-56454819D02*
X175714285Y-56454819D01*
X148904761Y-123454819D02*
X148333333Y-123454819D01*
X148619047Y-123454819D02*
X148619047Y-122454819D01*
X148619047Y-122454819D02*
X148523809Y-122597676D01*
X148523809Y-122597676D02*
X148428571Y-122692914D01*
X148428571Y-122692914D02*
X148333333Y-122740533D01*
X149761904Y-122788152D02*
X149761904Y-123454819D01*
X149333333Y-122788152D02*
X149333333Y-123311961D01*
X149333333Y-123311961D02*
X149380952Y-123407200D01*
X149380952Y-123407200D02*
X149476190Y-123454819D01*
X149476190Y-123454819D02*
X149619047Y-123454819D01*
X149619047Y-123454819D02*
X149714285Y-123407200D01*
X149714285Y-123407200D02*
X149761904Y-123359580D01*
X150571428Y-122931009D02*
X150238095Y-122931009D01*
X150238095Y-123454819D02*
X150238095Y-122454819D01*
X150238095Y-122454819D02*
X150714285Y-122454819D01*
X174654819Y-98439047D02*
X174654819Y-99010475D01*
X174654819Y-98724761D02*
X173654819Y-98724761D01*
X173654819Y-98724761D02*
X173797676Y-98819999D01*
X173797676Y-98819999D02*
X173892914Y-98915237D01*
X173892914Y-98915237D02*
X173940533Y-99010475D01*
X174654819Y-98010475D02*
X173654819Y-98010475D01*
X174273866Y-97915237D02*
X174654819Y-97629523D01*
X173988152Y-97629523D02*
X174369104Y-98010475D01*
X116254819Y-138440476D02*
X116254819Y-138916666D01*
X116254819Y-138916666D02*
X115254819Y-138916666D01*
X116159580Y-137535714D02*
X116207200Y-137583333D01*
X116207200Y-137583333D02*
X116254819Y-137726190D01*
X116254819Y-137726190D02*
X116254819Y-137821428D01*
X116254819Y-137821428D02*
X116207200Y-137964285D01*
X116207200Y-137964285D02*
X116111961Y-138059523D01*
X116111961Y-138059523D02*
X116016723Y-138107142D01*
X116016723Y-138107142D02*
X115826247Y-138154761D01*
X115826247Y-138154761D02*
X115683390Y-138154761D01*
X115683390Y-138154761D02*
X115492914Y-138107142D01*
X115492914Y-138107142D02*
X115397676Y-138059523D01*
X115397676Y-138059523D02*
X115302438Y-137964285D01*
X115302438Y-137964285D02*
X115254819Y-137821428D01*
X115254819Y-137821428D02*
X115254819Y-137726190D01*
X115254819Y-137726190D02*
X115302438Y-137583333D01*
X115302438Y-137583333D02*
X115350057Y-137535714D01*
X116254819Y-137107142D02*
X115254819Y-137107142D01*
X115254819Y-137107142D02*
X115254819Y-136869047D01*
X115254819Y-136869047D02*
X115302438Y-136726190D01*
X115302438Y-136726190D02*
X115397676Y-136630952D01*
X115397676Y-136630952D02*
X115492914Y-136583333D01*
X115492914Y-136583333D02*
X115683390Y-136535714D01*
X115683390Y-136535714D02*
X115826247Y-136535714D01*
X115826247Y-136535714D02*
X116016723Y-136583333D01*
X116016723Y-136583333D02*
X116111961Y-136630952D01*
X116111961Y-136630952D02*
X116207200Y-136726190D01*
X116207200Y-136726190D02*
X116254819Y-136869047D01*
X116254819Y-136869047D02*
X116254819Y-137107142D01*
X113547619Y-96204819D02*
X113547619Y-95204819D01*
X114023809Y-96204819D02*
X114023809Y-95204819D01*
X114023809Y-95204819D02*
X114595237Y-96204819D01*
X114595237Y-96204819D02*
X114595237Y-95204819D01*
X115023809Y-95919104D02*
X115499999Y-95919104D01*
X114928571Y-96204819D02*
X115261904Y-95204819D01*
X115261904Y-95204819D02*
X115595237Y-96204819D01*
X115690476Y-96300057D02*
X116452380Y-96300057D01*
X117023809Y-95681009D02*
X117166666Y-95728628D01*
X117166666Y-95728628D02*
X117214285Y-95776247D01*
X117214285Y-95776247D02*
X117261904Y-95871485D01*
X117261904Y-95871485D02*
X117261904Y-96014342D01*
X117261904Y-96014342D02*
X117214285Y-96109580D01*
X117214285Y-96109580D02*
X117166666Y-96157200D01*
X117166666Y-96157200D02*
X117071428Y-96204819D01*
X117071428Y-96204819D02*
X116690476Y-96204819D01*
X116690476Y-96204819D02*
X116690476Y-95204819D01*
X116690476Y-95204819D02*
X117023809Y-95204819D01*
X117023809Y-95204819D02*
X117119047Y-95252438D01*
X117119047Y-95252438D02*
X117166666Y-95300057D01*
X117166666Y-95300057D02*
X117214285Y-95395295D01*
X117214285Y-95395295D02*
X117214285Y-95490533D01*
X117214285Y-95490533D02*
X117166666Y-95585771D01*
X117166666Y-95585771D02*
X117119047Y-95633390D01*
X117119047Y-95633390D02*
X117023809Y-95681009D01*
X117023809Y-95681009D02*
X116690476Y-95681009D01*
X117690476Y-95823866D02*
X118452381Y-95823866D01*
X118071428Y-96204819D02*
X118071428Y-95442914D01*
X169428571Y-123454819D02*
X168952381Y-123454819D01*
X168952381Y-123454819D02*
X168952381Y-122454819D01*
X169761905Y-123454819D02*
X169761905Y-122454819D01*
X169761905Y-122454819D02*
X170095238Y-123169104D01*
X170095238Y-123169104D02*
X170428571Y-122454819D01*
X170428571Y-122454819D02*
X170428571Y-123454819D01*
X170809524Y-122454819D02*
X171476190Y-122454819D01*
X171476190Y-122454819D02*
X171047619Y-123454819D01*
X172000000Y-122883390D02*
X171904762Y-122835771D01*
X171904762Y-122835771D02*
X171857143Y-122788152D01*
X171857143Y-122788152D02*
X171809524Y-122692914D01*
X171809524Y-122692914D02*
X171809524Y-122645295D01*
X171809524Y-122645295D02*
X171857143Y-122550057D01*
X171857143Y-122550057D02*
X171904762Y-122502438D01*
X171904762Y-122502438D02*
X172000000Y-122454819D01*
X172000000Y-122454819D02*
X172190476Y-122454819D01*
X172190476Y-122454819D02*
X172285714Y-122502438D01*
X172285714Y-122502438D02*
X172333333Y-122550057D01*
X172333333Y-122550057D02*
X172380952Y-122645295D01*
X172380952Y-122645295D02*
X172380952Y-122692914D01*
X172380952Y-122692914D02*
X172333333Y-122788152D01*
X172333333Y-122788152D02*
X172285714Y-122835771D01*
X172285714Y-122835771D02*
X172190476Y-122883390D01*
X172190476Y-122883390D02*
X172000000Y-122883390D01*
X172000000Y-122883390D02*
X171904762Y-122931009D01*
X171904762Y-122931009D02*
X171857143Y-122978628D01*
X171857143Y-122978628D02*
X171809524Y-123073866D01*
X171809524Y-123073866D02*
X171809524Y-123264342D01*
X171809524Y-123264342D02*
X171857143Y-123359580D01*
X171857143Y-123359580D02*
X171904762Y-123407200D01*
X171904762Y-123407200D02*
X172000000Y-123454819D01*
X172000000Y-123454819D02*
X172190476Y-123454819D01*
X172190476Y-123454819D02*
X172285714Y-123407200D01*
X172285714Y-123407200D02*
X172333333Y-123359580D01*
X172333333Y-123359580D02*
X172380952Y-123264342D01*
X172380952Y-123264342D02*
X172380952Y-123073866D01*
X172380952Y-123073866D02*
X172333333Y-122978628D01*
X172333333Y-122978628D02*
X172285714Y-122931009D01*
X172285714Y-122931009D02*
X172190476Y-122883390D01*
X173285714Y-123454819D02*
X172809524Y-123454819D01*
X172809524Y-123454819D02*
X172809524Y-122454819D01*
X173809524Y-122454819D02*
X173904762Y-122454819D01*
X173904762Y-122454819D02*
X174000000Y-122502438D01*
X174000000Y-122502438D02*
X174047619Y-122550057D01*
X174047619Y-122550057D02*
X174095238Y-122645295D01*
X174095238Y-122645295D02*
X174142857Y-122835771D01*
X174142857Y-122835771D02*
X174142857Y-123073866D01*
X174142857Y-123073866D02*
X174095238Y-123264342D01*
X174095238Y-123264342D02*
X174047619Y-123359580D01*
X174047619Y-123359580D02*
X174000000Y-123407200D01*
X174000000Y-123407200D02*
X173904762Y-123454819D01*
X173904762Y-123454819D02*
X173809524Y-123454819D01*
X173809524Y-123454819D02*
X173714286Y-123407200D01*
X173714286Y-123407200D02*
X173666667Y-123359580D01*
X173666667Y-123359580D02*
X173619048Y-123264342D01*
X173619048Y-123264342D02*
X173571429Y-123073866D01*
X173571429Y-123073866D02*
X173571429Y-122835771D01*
X173571429Y-122835771D02*
X173619048Y-122645295D01*
X173619048Y-122645295D02*
X173666667Y-122550057D01*
X173666667Y-122550057D02*
X173714286Y-122502438D01*
X173714286Y-122502438D02*
X173809524Y-122454819D01*
X175047619Y-122454819D02*
X174571429Y-122454819D01*
X174571429Y-122454819D02*
X174523810Y-122931009D01*
X174523810Y-122931009D02*
X174571429Y-122883390D01*
X174571429Y-122883390D02*
X174666667Y-122835771D01*
X174666667Y-122835771D02*
X174904762Y-122835771D01*
X174904762Y-122835771D02*
X175000000Y-122883390D01*
X175000000Y-122883390D02*
X175047619Y-122931009D01*
X175047619Y-122931009D02*
X175095238Y-123026247D01*
X175095238Y-123026247D02*
X175095238Y-123264342D01*
X175095238Y-123264342D02*
X175047619Y-123359580D01*
X175047619Y-123359580D02*
X175000000Y-123407200D01*
X175000000Y-123407200D02*
X174904762Y-123454819D01*
X174904762Y-123454819D02*
X174666667Y-123454819D01*
X174666667Y-123454819D02*
X174571429Y-123407200D01*
X174571429Y-123407200D02*
X174523810Y-123359580D01*
X130404762Y-55169104D02*
X130880952Y-55169104D01*
X130309524Y-55454819D02*
X130642857Y-54454819D01*
X130642857Y-54454819D02*
X130976190Y-55454819D01*
X131880952Y-55359580D02*
X131833333Y-55407200D01*
X131833333Y-55407200D02*
X131690476Y-55454819D01*
X131690476Y-55454819D02*
X131595238Y-55454819D01*
X131595238Y-55454819D02*
X131452381Y-55407200D01*
X131452381Y-55407200D02*
X131357143Y-55311961D01*
X131357143Y-55311961D02*
X131309524Y-55216723D01*
X131309524Y-55216723D02*
X131261905Y-55026247D01*
X131261905Y-55026247D02*
X131261905Y-54883390D01*
X131261905Y-54883390D02*
X131309524Y-54692914D01*
X131309524Y-54692914D02*
X131357143Y-54597676D01*
X131357143Y-54597676D02*
X131452381Y-54502438D01*
X131452381Y-54502438D02*
X131595238Y-54454819D01*
X131595238Y-54454819D02*
X131690476Y-54454819D01*
X131690476Y-54454819D02*
X131833333Y-54502438D01*
X131833333Y-54502438D02*
X131880952Y-54550057D01*
X132071429Y-55550057D02*
X132833333Y-55550057D01*
X133547619Y-55454819D02*
X133071429Y-55454819D01*
X133071429Y-55454819D02*
X133071429Y-54454819D01*
X133880953Y-55454819D02*
X133880953Y-54454819D01*
X134357143Y-55454819D02*
X134357143Y-54454819D01*
X134357143Y-54454819D02*
X134928571Y-55454819D01*
X134928571Y-55454819D02*
X134928571Y-54454819D01*
X135404762Y-54931009D02*
X135738095Y-54931009D01*
X135880952Y-55454819D02*
X135404762Y-55454819D01*
X135404762Y-55454819D02*
X135404762Y-54454819D01*
X135404762Y-54454819D02*
X135880952Y-54454819D01*
X136071429Y-55550057D02*
X136833333Y-55550057D01*
X137023810Y-54550057D02*
X137071429Y-54502438D01*
X137071429Y-54502438D02*
X137166667Y-54454819D01*
X137166667Y-54454819D02*
X137404762Y-54454819D01*
X137404762Y-54454819D02*
X137500000Y-54502438D01*
X137500000Y-54502438D02*
X137547619Y-54550057D01*
X137547619Y-54550057D02*
X137595238Y-54645295D01*
X137595238Y-54645295D02*
X137595238Y-54740533D01*
X137595238Y-54740533D02*
X137547619Y-54883390D01*
X137547619Y-54883390D02*
X136976191Y-55454819D01*
X136976191Y-55454819D02*
X137595238Y-55454819D01*
X162638095Y-48454819D02*
X162066667Y-48454819D01*
X162352381Y-48454819D02*
X162352381Y-47454819D01*
X162352381Y-47454819D02*
X162257143Y-47597676D01*
X162257143Y-47597676D02*
X162161905Y-47692914D01*
X162161905Y-47692914D02*
X162066667Y-47740533D01*
X163066667Y-48359580D02*
X163114286Y-48407200D01*
X163114286Y-48407200D02*
X163066667Y-48454819D01*
X163066667Y-48454819D02*
X163019048Y-48407200D01*
X163019048Y-48407200D02*
X163066667Y-48359580D01*
X163066667Y-48359580D02*
X163066667Y-48454819D01*
X164019047Y-47454819D02*
X163542857Y-47454819D01*
X163542857Y-47454819D02*
X163495238Y-47931009D01*
X163495238Y-47931009D02*
X163542857Y-47883390D01*
X163542857Y-47883390D02*
X163638095Y-47835771D01*
X163638095Y-47835771D02*
X163876190Y-47835771D01*
X163876190Y-47835771D02*
X163971428Y-47883390D01*
X163971428Y-47883390D02*
X164019047Y-47931009D01*
X164019047Y-47931009D02*
X164066666Y-48026247D01*
X164066666Y-48026247D02*
X164066666Y-48264342D01*
X164066666Y-48264342D02*
X164019047Y-48359580D01*
X164019047Y-48359580D02*
X163971428Y-48407200D01*
X163971428Y-48407200D02*
X163876190Y-48454819D01*
X163876190Y-48454819D02*
X163638095Y-48454819D01*
X163638095Y-48454819D02*
X163542857Y-48407200D01*
X163542857Y-48407200D02*
X163495238Y-48359580D01*
X164495238Y-48454819D02*
X164495238Y-47454819D01*
X165066666Y-48454819D02*
X164638095Y-47883390D01*
X165066666Y-47454819D02*
X164495238Y-48026247D01*
X165495238Y-47931009D02*
X165828571Y-47931009D01*
X165971428Y-48454819D02*
X165495238Y-48454819D01*
X165495238Y-48454819D02*
X165495238Y-47454819D01*
X165495238Y-47454819D02*
X165971428Y-47454819D01*
X166923809Y-48454819D02*
X166352381Y-48454819D01*
X166638095Y-48454819D02*
X166638095Y-47454819D01*
X166638095Y-47454819D02*
X166542857Y-47597676D01*
X166542857Y-47597676D02*
X166447619Y-47692914D01*
X166447619Y-47692914D02*
X166352381Y-47740533D01*
X167257143Y-47454819D02*
X167876190Y-47454819D01*
X167876190Y-47454819D02*
X167542857Y-47835771D01*
X167542857Y-47835771D02*
X167685714Y-47835771D01*
X167685714Y-47835771D02*
X167780952Y-47883390D01*
X167780952Y-47883390D02*
X167828571Y-47931009D01*
X167828571Y-47931009D02*
X167876190Y-48026247D01*
X167876190Y-48026247D02*
X167876190Y-48264342D01*
X167876190Y-48264342D02*
X167828571Y-48359580D01*
X167828571Y-48359580D02*
X167780952Y-48407200D01*
X167780952Y-48407200D02*
X167685714Y-48454819D01*
X167685714Y-48454819D02*
X167400000Y-48454819D01*
X167400000Y-48454819D02*
X167304762Y-48407200D01*
X167304762Y-48407200D02*
X167257143Y-48359580D01*
X168876190Y-48359580D02*
X168828571Y-48407200D01*
X168828571Y-48407200D02*
X168685714Y-48454819D01*
X168685714Y-48454819D02*
X168590476Y-48454819D01*
X168590476Y-48454819D02*
X168447619Y-48407200D01*
X168447619Y-48407200D02*
X168352381Y-48311961D01*
X168352381Y-48311961D02*
X168304762Y-48216723D01*
X168304762Y-48216723D02*
X168257143Y-48026247D01*
X168257143Y-48026247D02*
X168257143Y-47883390D01*
X168257143Y-47883390D02*
X168304762Y-47692914D01*
X168304762Y-47692914D02*
X168352381Y-47597676D01*
X168352381Y-47597676D02*
X168447619Y-47502438D01*
X168447619Y-47502438D02*
X168590476Y-47454819D01*
X168590476Y-47454819D02*
X168685714Y-47454819D01*
X168685714Y-47454819D02*
X168828571Y-47502438D01*
X168828571Y-47502438D02*
X168876190Y-47550057D01*
X169257143Y-48169104D02*
X169733333Y-48169104D01*
X169161905Y-48454819D02*
X169495238Y-47454819D01*
X169495238Y-47454819D02*
X169828571Y-48454819D01*
X160558095Y-43554819D02*
X160558095Y-42554819D01*
X161129523Y-43554819D02*
X160700952Y-42983390D01*
X161129523Y-42554819D02*
X160558095Y-43126247D01*
X112952381Y-107823866D02*
X113714286Y-107823866D01*
X114190476Y-108204819D02*
X114190476Y-107204819D01*
X114666666Y-108204819D02*
X114666666Y-107204819D01*
X114666666Y-107204819D02*
X115238094Y-108204819D01*
X115238094Y-108204819D02*
X115238094Y-107204819D01*
X115476190Y-108300057D02*
X116238094Y-108300057D01*
X116999999Y-107252438D02*
X116904761Y-107204819D01*
X116904761Y-107204819D02*
X116761904Y-107204819D01*
X116761904Y-107204819D02*
X116619047Y-107252438D01*
X116619047Y-107252438D02*
X116523809Y-107347676D01*
X116523809Y-107347676D02*
X116476190Y-107442914D01*
X116476190Y-107442914D02*
X116428571Y-107633390D01*
X116428571Y-107633390D02*
X116428571Y-107776247D01*
X116428571Y-107776247D02*
X116476190Y-107966723D01*
X116476190Y-107966723D02*
X116523809Y-108061961D01*
X116523809Y-108061961D02*
X116619047Y-108157200D01*
X116619047Y-108157200D02*
X116761904Y-108204819D01*
X116761904Y-108204819D02*
X116857142Y-108204819D01*
X116857142Y-108204819D02*
X116999999Y-108157200D01*
X116999999Y-108157200D02*
X117047618Y-108109580D01*
X117047618Y-108109580D02*
X117047618Y-107776247D01*
X117047618Y-107776247D02*
X116857142Y-107776247D01*
X117476190Y-108204819D02*
X117476190Y-107204819D01*
X117476190Y-107204819D02*
X118047618Y-108204819D01*
X118047618Y-108204819D02*
X118047618Y-107204819D01*
X118523809Y-108204819D02*
X118523809Y-107204819D01*
X118523809Y-107204819D02*
X118761904Y-107204819D01*
X118761904Y-107204819D02*
X118904761Y-107252438D01*
X118904761Y-107252438D02*
X118999999Y-107347676D01*
X118999999Y-107347676D02*
X119047618Y-107442914D01*
X119047618Y-107442914D02*
X119095237Y-107633390D01*
X119095237Y-107633390D02*
X119095237Y-107776247D01*
X119095237Y-107776247D02*
X119047618Y-107966723D01*
X119047618Y-107966723D02*
X118999999Y-108061961D01*
X118999999Y-108061961D02*
X118904761Y-108157200D01*
X118904761Y-108157200D02*
X118761904Y-108204819D01*
X118761904Y-108204819D02*
X118523809Y-108204819D01*
X142309523Y-58454819D02*
X141833333Y-58454819D01*
X141833333Y-58454819D02*
X141785714Y-58931009D01*
X141785714Y-58931009D02*
X141833333Y-58883390D01*
X141833333Y-58883390D02*
X141928571Y-58835771D01*
X141928571Y-58835771D02*
X142166666Y-58835771D01*
X142166666Y-58835771D02*
X142261904Y-58883390D01*
X142261904Y-58883390D02*
X142309523Y-58931009D01*
X142309523Y-58931009D02*
X142357142Y-59026247D01*
X142357142Y-59026247D02*
X142357142Y-59264342D01*
X142357142Y-59264342D02*
X142309523Y-59359580D01*
X142309523Y-59359580D02*
X142261904Y-59407200D01*
X142261904Y-59407200D02*
X142166666Y-59454819D01*
X142166666Y-59454819D02*
X141928571Y-59454819D01*
X141928571Y-59454819D02*
X141833333Y-59407200D01*
X141833333Y-59407200D02*
X141785714Y-59359580D01*
X142642857Y-58454819D02*
X142976190Y-59454819D01*
X142976190Y-59454819D02*
X143309523Y-58454819D01*
X146048095Y-61354819D02*
X146048095Y-60354819D01*
X146619523Y-61354819D02*
X146190952Y-60783390D01*
X146619523Y-60354819D02*
X146048095Y-60926247D01*
X178954819Y-126261904D02*
X177954819Y-126261904D01*
X177954819Y-126261904D02*
X177954819Y-125880952D01*
X177954819Y-125880952D02*
X178002438Y-125785714D01*
X178002438Y-125785714D02*
X178050057Y-125738095D01*
X178050057Y-125738095D02*
X178145295Y-125690476D01*
X178145295Y-125690476D02*
X178288152Y-125690476D01*
X178288152Y-125690476D02*
X178383390Y-125738095D01*
X178383390Y-125738095D02*
X178431009Y-125785714D01*
X178431009Y-125785714D02*
X178478628Y-125880952D01*
X178478628Y-125880952D02*
X178478628Y-126261904D01*
X179454819Y-100690476D02*
X179454819Y-101261904D01*
X179454819Y-100976190D02*
X178454819Y-100976190D01*
X178454819Y-100976190D02*
X178597676Y-101071428D01*
X178597676Y-101071428D02*
X178692914Y-101166666D01*
X178692914Y-101166666D02*
X178740533Y-101261904D01*
X178454819Y-100071428D02*
X178454819Y-99976190D01*
X178454819Y-99976190D02*
X178502438Y-99880952D01*
X178502438Y-99880952D02*
X178550057Y-99833333D01*
X178550057Y-99833333D02*
X178645295Y-99785714D01*
X178645295Y-99785714D02*
X178835771Y-99738095D01*
X178835771Y-99738095D02*
X179073866Y-99738095D01*
X179073866Y-99738095D02*
X179264342Y-99785714D01*
X179264342Y-99785714D02*
X179359580Y-99833333D01*
X179359580Y-99833333D02*
X179407200Y-99880952D01*
X179407200Y-99880952D02*
X179454819Y-99976190D01*
X179454819Y-99976190D02*
X179454819Y-100071428D01*
X179454819Y-100071428D02*
X179407200Y-100166666D01*
X179407200Y-100166666D02*
X179359580Y-100214285D01*
X179359580Y-100214285D02*
X179264342Y-100261904D01*
X179264342Y-100261904D02*
X179073866Y-100309523D01*
X179073866Y-100309523D02*
X178835771Y-100309523D01*
X178835771Y-100309523D02*
X178645295Y-100261904D01*
X178645295Y-100261904D02*
X178550057Y-100214285D01*
X178550057Y-100214285D02*
X178502438Y-100166666D01*
X178502438Y-100166666D02*
X178454819Y-100071428D01*
X179454819Y-99309523D02*
X178454819Y-99309523D01*
X179454819Y-98738095D02*
X178883390Y-99166666D01*
X178454819Y-98738095D02*
X179026247Y-99309523D01*
D11*
%TO.C,R10*%
X124460000Y-64500000D02*
X125230000Y-64500000D01*
X125230000Y-63130000D02*
X125230000Y-65870000D01*
X125230000Y-65870000D02*
X131770000Y-65870000D01*
X131770000Y-63130000D02*
X125230000Y-63130000D01*
X131770000Y-65870000D02*
X131770000Y-63130000D01*
X132540000Y-64500000D02*
X131770000Y-64500000D01*
%TO.C,J22*%
X124620000Y-94880000D02*
X124620000Y-93500000D01*
X126000000Y-94880000D02*
X124620000Y-94880000D01*
X127270000Y-92120000D02*
X129920000Y-92120000D01*
X127270000Y-94880000D02*
X127270000Y-92120000D01*
X127270000Y-94880000D02*
X129920000Y-94880000D01*
X129920000Y-94880000D02*
X129920000Y-92120000D01*
%TO.C,Q3*%
X131470000Y-120850000D02*
X135070000Y-120850000D01*
X131431522Y-120838478D02*
G75*
G02*
X133270000Y-116399999I1838478J1838478D01*
G01*
X133270000Y-116400000D02*
G75*
G02*
X135108478Y-120838478I0J-2600000D01*
G01*
%TO.C,C6*%
X116630000Y-119630000D02*
X116778000Y-119630000D01*
X116630000Y-122870000D02*
X116630000Y-119630000D01*
X116778000Y-122870000D02*
X116630000Y-122870000D01*
X118722000Y-119630000D02*
X118870000Y-119630000D01*
X118870000Y-119630000D02*
X118870000Y-122870000D01*
X118870000Y-122870000D02*
X118722000Y-122870000D01*
%TO.C,C2*%
X161160000Y-119700000D02*
X159929000Y-119700000D01*
X161160000Y-119740000D02*
X159933000Y-119740000D01*
X161160000Y-119780000D02*
X159938000Y-119780000D01*
X161160000Y-119820000D02*
X159944000Y-119820000D01*
X161160000Y-119860000D02*
X159950000Y-119860000D01*
X161160000Y-119900000D02*
X159958000Y-119900000D01*
X161160000Y-119940000D02*
X159966000Y-119940000D01*
X161160000Y-119980000D02*
X159975000Y-119980000D01*
X161160000Y-120020000D02*
X159984000Y-120020000D01*
X161160000Y-120060000D02*
X159995000Y-120060000D01*
X161160000Y-120100000D02*
X160006000Y-120100000D01*
X161160000Y-120140000D02*
X160018000Y-120140000D01*
X161160000Y-120180000D02*
X160032000Y-120180000D01*
X161160000Y-120221000D02*
X160046000Y-120221000D01*
X161160000Y-120261000D02*
X160060000Y-120261000D01*
X161160000Y-120301000D02*
X160076000Y-120301000D01*
X161160000Y-120341000D02*
X160093000Y-120341000D01*
X161160000Y-120381000D02*
X160111000Y-120381000D01*
X161160000Y-120421000D02*
X160130000Y-120421000D01*
X161160000Y-120461000D02*
X160149000Y-120461000D01*
X161160000Y-120501000D02*
X160170000Y-120501000D01*
X161160000Y-120541000D02*
X160192000Y-120541000D01*
X161160000Y-120581000D02*
X160215000Y-120581000D01*
X161160000Y-120621000D02*
X160240000Y-120621000D01*
X161160000Y-120661000D02*
X160265000Y-120661000D01*
X161160000Y-120701000D02*
X160292000Y-120701000D01*
X161160000Y-120741000D02*
X160320000Y-120741000D01*
X161160000Y-120781000D02*
X160350000Y-120781000D01*
X161160000Y-120821000D02*
X160381000Y-120821000D01*
X161160000Y-120861000D02*
X160413000Y-120861000D01*
X161160000Y-120901000D02*
X160448000Y-120901000D01*
X161160000Y-120941000D02*
X160484000Y-120941000D01*
X161160000Y-120981000D02*
X160522000Y-120981000D01*
X161160000Y-121021000D02*
X160562000Y-121021000D01*
X161160000Y-121061000D02*
X160604000Y-121061000D01*
X161160000Y-121101000D02*
X160649000Y-121101000D01*
X161160000Y-121141000D02*
X160696000Y-121141000D01*
X161160000Y-121181000D02*
X160746000Y-121181000D01*
X161160000Y-121221000D02*
X160800000Y-121221000D01*
X161160000Y-121261000D02*
X160858000Y-121261000D01*
X161160000Y-121301000D02*
X160920000Y-121301000D01*
X162370000Y-121581000D02*
X161630000Y-121581000D01*
X162537000Y-121541000D02*
X161463000Y-121541000D01*
X162664000Y-121501000D02*
X161336000Y-121501000D01*
X162768000Y-121461000D02*
X161232000Y-121461000D01*
X162859000Y-121421000D02*
X161141000Y-121421000D01*
X162940000Y-121381000D02*
X161060000Y-121381000D01*
X163013000Y-121341000D02*
X160987000Y-121341000D01*
X163080000Y-121301000D02*
X162840000Y-121301000D01*
X163142000Y-121261000D02*
X162840000Y-121261000D01*
X163195000Y-117230199D02*
X163195000Y-117630199D01*
X163200000Y-121221000D02*
X162840000Y-121221000D01*
X163254000Y-121181000D02*
X162840000Y-121181000D01*
X163304000Y-121141000D02*
X162840000Y-121141000D01*
X163351000Y-121101000D02*
X162840000Y-121101000D01*
X163395000Y-117430199D02*
X162995000Y-117430199D01*
X163396000Y-121061000D02*
X162840000Y-121061000D01*
X163438000Y-121021000D02*
X162840000Y-121021000D01*
X163478000Y-120981000D02*
X162840000Y-120981000D01*
X163516000Y-120941000D02*
X162840000Y-120941000D01*
X163552000Y-120901000D02*
X162840000Y-120901000D01*
X163587000Y-120861000D02*
X162840000Y-120861000D01*
X163619000Y-120821000D02*
X162840000Y-120821000D01*
X163650000Y-120781000D02*
X162840000Y-120781000D01*
X163680000Y-120741000D02*
X162840000Y-120741000D01*
X163708000Y-120701000D02*
X162840000Y-120701000D01*
X163735000Y-120661000D02*
X162840000Y-120661000D01*
X163760000Y-120621000D02*
X162840000Y-120621000D01*
X163785000Y-120581000D02*
X162840000Y-120581000D01*
X163808000Y-120541000D02*
X162840000Y-120541000D01*
X163830000Y-120501000D02*
X162840000Y-120501000D01*
X163851000Y-120461000D02*
X162840000Y-120461000D01*
X163870000Y-120421000D02*
X162840000Y-120421000D01*
X163889000Y-120381000D02*
X162840000Y-120381000D01*
X163907000Y-120341000D02*
X162840000Y-120341000D01*
X163924000Y-120301000D02*
X162840000Y-120301000D01*
X163940000Y-120261000D02*
X162840000Y-120261000D01*
X163954000Y-120221000D02*
X162840000Y-120221000D01*
X163968000Y-120180000D02*
X162840000Y-120180000D01*
X163982000Y-120140000D02*
X162840000Y-120140000D01*
X163994000Y-120100000D02*
X162840000Y-120100000D01*
X164005000Y-120060000D02*
X162840000Y-120060000D01*
X164016000Y-120020000D02*
X162840000Y-120020000D01*
X164025000Y-119980000D02*
X162840000Y-119980000D01*
X164034000Y-119940000D02*
X162840000Y-119940000D01*
X164042000Y-119900000D02*
X162840000Y-119900000D01*
X164050000Y-119860000D02*
X162840000Y-119860000D01*
X164056000Y-119820000D02*
X162840000Y-119820000D01*
X164062000Y-119780000D02*
X162840000Y-119780000D01*
X164067000Y-119740000D02*
X162840000Y-119740000D01*
X164071000Y-119700000D02*
X162840000Y-119700000D01*
X164074000Y-119660000D02*
X159926000Y-119660000D01*
X164077000Y-119620000D02*
X159923000Y-119620000D01*
X164079000Y-119580000D02*
X159921000Y-119580000D01*
X164080000Y-119500000D02*
X159920000Y-119500000D01*
X164080000Y-119540000D02*
X159920000Y-119540000D01*
X164120000Y-119500000D02*
G75*
G02*
X159880000Y-119500000I-2120000J0D01*
G01*
X159880000Y-119500000D02*
G75*
G02*
X164120000Y-119500000I2120000J0D01*
G01*
%TO.C,D2*%
X145030000Y-96700000D02*
X145030000Y-102140000D01*
X145030000Y-102140000D02*
X147970000Y-102140000D01*
X146500000Y-95680000D02*
X146500000Y-96700000D01*
X146500000Y-103160000D02*
X146500000Y-102140000D01*
X147970000Y-96700000D02*
X145030000Y-96700000D01*
X147970000Y-97480000D02*
X145030000Y-97480000D01*
X147970000Y-97600000D02*
X145030000Y-97600000D01*
X147970000Y-97720000D02*
X145030000Y-97720000D01*
X147970000Y-102140000D02*
X147970000Y-96700000D01*
%TO.C,J21*%
X159580000Y-146880000D02*
X159580000Y-145500000D01*
X160960000Y-146880000D02*
X159580000Y-146880000D01*
X162230000Y-144120000D02*
X164880000Y-144120000D01*
X162230000Y-146880000D02*
X162230000Y-144120000D01*
X162230000Y-146880000D02*
X164880000Y-146880000D01*
X164880000Y-146880000D02*
X164880000Y-144120000D01*
%TO.C,C5*%
X149919000Y-113870000D02*
X149919000Y-113130000D01*
X149959000Y-114037000D02*
X149959000Y-112963000D01*
X149999000Y-114164000D02*
X149999000Y-112836000D01*
X150039000Y-114268000D02*
X150039000Y-112732000D01*
X150079000Y-114359000D02*
X150079000Y-112641000D01*
X150119000Y-114440000D02*
X150119000Y-112560000D01*
X150159000Y-114513000D02*
X150159000Y-112487000D01*
X150199000Y-112660000D02*
X150199000Y-112420000D01*
X150199000Y-114580000D02*
X150199000Y-114340000D01*
X150239000Y-112660000D02*
X150239000Y-112358000D01*
X150239000Y-114642000D02*
X150239000Y-114340000D01*
X150279000Y-112660000D02*
X150279000Y-112300000D01*
X150279000Y-114700000D02*
X150279000Y-114340000D01*
X150319000Y-112660000D02*
X150319000Y-112246000D01*
X150319000Y-114754000D02*
X150319000Y-114340000D01*
X150359000Y-112660000D02*
X150359000Y-112196000D01*
X150359000Y-114804000D02*
X150359000Y-114340000D01*
X150399000Y-112660000D02*
X150399000Y-112149000D01*
X150399000Y-114851000D02*
X150399000Y-114340000D01*
X150439000Y-112660000D02*
X150439000Y-112104000D01*
X150439000Y-114896000D02*
X150439000Y-114340000D01*
X150479000Y-112660000D02*
X150479000Y-112062000D01*
X150479000Y-114938000D02*
X150479000Y-114340000D01*
X150519000Y-112660000D02*
X150519000Y-112022000D01*
X150519000Y-114978000D02*
X150519000Y-114340000D01*
X150559000Y-112660000D02*
X150559000Y-111984000D01*
X150559000Y-115016000D02*
X150559000Y-114340000D01*
X150599000Y-112660000D02*
X150599000Y-111948000D01*
X150599000Y-115052000D02*
X150599000Y-114340000D01*
X150639000Y-112660000D02*
X150639000Y-111913000D01*
X150639000Y-115087000D02*
X150639000Y-114340000D01*
X150679000Y-112660000D02*
X150679000Y-111881000D01*
X150679000Y-115119000D02*
X150679000Y-114340000D01*
X150719000Y-112660000D02*
X150719000Y-111850000D01*
X150719000Y-115150000D02*
X150719000Y-114340000D01*
X150759000Y-112660000D02*
X150759000Y-111820000D01*
X150759000Y-115180000D02*
X150759000Y-114340000D01*
X150799000Y-112660000D02*
X150799000Y-111792000D01*
X150799000Y-115208000D02*
X150799000Y-114340000D01*
X150839000Y-112660000D02*
X150839000Y-111765000D01*
X150839000Y-115235000D02*
X150839000Y-114340000D01*
X150879000Y-112660000D02*
X150879000Y-111740000D01*
X150879000Y-115260000D02*
X150879000Y-114340000D01*
X150919000Y-112660000D02*
X150919000Y-111715000D01*
X150919000Y-115285000D02*
X150919000Y-114340000D01*
X150959000Y-112660000D02*
X150959000Y-111692000D01*
X150959000Y-115308000D02*
X150959000Y-114340000D01*
X150999000Y-112660000D02*
X150999000Y-111670000D01*
X150999000Y-115330000D02*
X150999000Y-114340000D01*
X151039000Y-112660000D02*
X151039000Y-111649000D01*
X151039000Y-115351000D02*
X151039000Y-114340000D01*
X151079000Y-112660000D02*
X151079000Y-111630000D01*
X151079000Y-115370000D02*
X151079000Y-114340000D01*
X151119000Y-112660000D02*
X151119000Y-111611000D01*
X151119000Y-115389000D02*
X151119000Y-114340000D01*
X151159000Y-112660000D02*
X151159000Y-111593000D01*
X151159000Y-115407000D02*
X151159000Y-114340000D01*
X151199000Y-112660000D02*
X151199000Y-111576000D01*
X151199000Y-115424000D02*
X151199000Y-114340000D01*
X151239000Y-112660000D02*
X151239000Y-111560000D01*
X151239000Y-115440000D02*
X151239000Y-114340000D01*
X151279000Y-112660000D02*
X151279000Y-111546000D01*
X151279000Y-115454000D02*
X151279000Y-114340000D01*
X151320000Y-112660000D02*
X151320000Y-111532000D01*
X151320000Y-115468000D02*
X151320000Y-114340000D01*
X151360000Y-112660000D02*
X151360000Y-111518000D01*
X151360000Y-115482000D02*
X151360000Y-114340000D01*
X151400000Y-112660000D02*
X151400000Y-111506000D01*
X151400000Y-115494000D02*
X151400000Y-114340000D01*
X151440000Y-112660000D02*
X151440000Y-111495000D01*
X151440000Y-115505000D02*
X151440000Y-114340000D01*
X151480000Y-112660000D02*
X151480000Y-111484000D01*
X151480000Y-115516000D02*
X151480000Y-114340000D01*
X151520000Y-112660000D02*
X151520000Y-111475000D01*
X151520000Y-115525000D02*
X151520000Y-114340000D01*
X151560000Y-112660000D02*
X151560000Y-111466000D01*
X151560000Y-115534000D02*
X151560000Y-114340000D01*
X151600000Y-112660000D02*
X151600000Y-111458000D01*
X151600000Y-115542000D02*
X151600000Y-114340000D01*
X151640000Y-112660000D02*
X151640000Y-111450000D01*
X151640000Y-115550000D02*
X151640000Y-114340000D01*
X151680000Y-112660000D02*
X151680000Y-111444000D01*
X151680000Y-115556000D02*
X151680000Y-114340000D01*
X151720000Y-112660000D02*
X151720000Y-111438000D01*
X151720000Y-115562000D02*
X151720000Y-114340000D01*
X151760000Y-112660000D02*
X151760000Y-111433000D01*
X151760000Y-115567000D02*
X151760000Y-114340000D01*
X151800000Y-112660000D02*
X151800000Y-111429000D01*
X151800000Y-115571000D02*
X151800000Y-114340000D01*
X151840000Y-115574000D02*
X151840000Y-111426000D01*
X151880000Y-115577000D02*
X151880000Y-111423000D01*
X151920000Y-115579000D02*
X151920000Y-111421000D01*
X151960000Y-115580000D02*
X151960000Y-111420000D01*
X152000000Y-115580000D02*
X152000000Y-111420000D01*
X154069801Y-114895000D02*
X154069801Y-114495000D01*
X154269801Y-114695000D02*
X153869801Y-114695000D01*
X154120000Y-113500000D02*
G75*
G02*
X149880000Y-113500000I-2120000J0D01*
G01*
X149880000Y-113500000D02*
G75*
G02*
X154120000Y-113500000I2120000J0D01*
G01*
%TO.C,D3*%
X137530000Y-96780000D02*
X137530000Y-102220000D01*
X137530000Y-102220000D02*
X140470000Y-102220000D01*
X139000000Y-95760000D02*
X139000000Y-96780000D01*
X139000000Y-103240000D02*
X139000000Y-102220000D01*
X140470000Y-96780000D02*
X137530000Y-96780000D01*
X140470000Y-97560000D02*
X137530000Y-97560000D01*
X140470000Y-97680000D02*
X137530000Y-97680000D01*
X140470000Y-97800000D02*
X137530000Y-97800000D01*
X140470000Y-102220000D02*
X140470000Y-96780000D01*
%TO.C,D8*%
X170260000Y-64600000D02*
X171480000Y-64600000D01*
X175900000Y-66070000D02*
X175900000Y-63130000D01*
X176020000Y-66070000D02*
X176020000Y-63130000D01*
X176140000Y-66070000D02*
X176140000Y-63130000D01*
X178140000Y-64600000D02*
X176920000Y-64600000D01*
X176920000Y-66070000D02*
X171480000Y-66070000D01*
X171480000Y-63130000D01*
X176920000Y-63130000D01*
X176920000Y-66070000D01*
%TO.C,Q4*%
X139450000Y-120850000D02*
X143050000Y-120850000D01*
X139411522Y-120838478D02*
G75*
G02*
X141250000Y-116399999I1838478J1838478D01*
G01*
X141250000Y-116400000D02*
G75*
G02*
X143088478Y-120838478I0J-2600000D01*
G01*
%TO.C,J3*%
X114210000Y-141070000D02*
X114210000Y-143730000D01*
X124430000Y-141070000D02*
X114210000Y-141070000D01*
X124430000Y-141070000D02*
X124430000Y-143730000D01*
X124430000Y-143730000D02*
X114210000Y-143730000D01*
X125700000Y-141070000D02*
X127030000Y-141070000D01*
X127030000Y-141070000D02*
X127030000Y-142400000D01*
%TO.C,R5*%
X161960000Y-135500000D02*
X162730000Y-135500000D01*
X162730000Y-134130000D02*
X162730000Y-136870000D01*
X162730000Y-136870000D02*
X169270000Y-136870000D01*
X169270000Y-134130000D02*
X162730000Y-134130000D01*
X169270000Y-136870000D02*
X169270000Y-134130000D01*
X170040000Y-135500000D02*
X169270000Y-135500000D01*
%TO.C,Q2*%
X137470000Y-112850000D02*
X141070000Y-112850000D01*
X137431522Y-112838478D02*
G75*
G02*
X139270000Y-108399999I1838478J1838478D01*
G01*
X139270000Y-108400000D02*
G75*
G02*
X141108478Y-112838478I0J-2600000D01*
G01*
%TO.C,R7*%
X132630000Y-128230000D02*
X132630000Y-134770000D01*
X132630000Y-134770000D02*
X135370000Y-134770000D01*
X134000000Y-127460000D02*
X134000000Y-128230000D01*
X134000000Y-135540000D02*
X134000000Y-134770000D01*
X135370000Y-128230000D02*
X132630000Y-128230000D01*
X135370000Y-134770000D02*
X135370000Y-128230000D01*
%TO.C,R3*%
X159540000Y-131500000D02*
X160310000Y-131500000D01*
X160310000Y-130130000D02*
X160310000Y-132870000D01*
X160310000Y-132870000D02*
X166850000Y-132870000D01*
X166850000Y-130130000D02*
X160310000Y-130130000D01*
X166850000Y-132870000D02*
X166850000Y-130130000D01*
X167620000Y-131500000D02*
X166850000Y-131500000D01*
%TO.C,U3*%
X153930000Y-121850000D02*
X157530000Y-121850000D01*
X153891522Y-121838478D02*
G75*
G02*
X155730000Y-117399999I1838478J1838478D01*
G01*
X155730000Y-117400000D02*
G75*
G02*
X157568478Y-121838478I0J-2600000D01*
G01*
%TO.C,J20*%
X175670000Y-146830000D02*
X175670000Y-145500000D01*
X177000000Y-146830000D02*
X175670000Y-146830000D01*
X178270000Y-144170000D02*
X180870000Y-144170000D01*
X178270000Y-146830000D02*
X178270000Y-144170000D01*
X178270000Y-146830000D02*
X180870000Y-146830000D01*
X180870000Y-146830000D02*
X180870000Y-144170000D01*
%TO.C,K2*%
X162200000Y-68600000D02*
X177800000Y-68600000D01*
X162200000Y-88400000D02*
X162200000Y-68600000D01*
X162200000Y-88400000D02*
X168800000Y-88400000D01*
X164050000Y-80950000D02*
X164050000Y-83450000D01*
X164050000Y-80950000D02*
X168250000Y-80950000D01*
X165800000Y-72850000D02*
X168300000Y-72850000D01*
X168250000Y-78950000D02*
X171850000Y-78950000D01*
X168250000Y-82950000D02*
X168250000Y-78950000D01*
X170050000Y-76050000D02*
X167550000Y-71450000D01*
X170050000Y-77550000D02*
X170050000Y-76050000D01*
X170050000Y-77550000D02*
X173650000Y-77550000D01*
X170050000Y-84350000D02*
X170050000Y-85150000D01*
X170050000Y-84350000D02*
X173650000Y-84350000D01*
X171200000Y-88400000D02*
X177800000Y-88400000D01*
X171850000Y-78950000D02*
X168250000Y-82950000D01*
X171850000Y-78950000D02*
X171850000Y-82950000D01*
X171850000Y-80950000D02*
X176050000Y-80950000D01*
X171850000Y-82950000D02*
X168250000Y-82950000D01*
X173650000Y-77550000D02*
X173650000Y-84350000D01*
X174200000Y-72850000D02*
X171750000Y-72850000D01*
X176050000Y-83450000D02*
X176050000Y-80950000D01*
X177800000Y-68600000D02*
X177800000Y-88400000D01*
%TO.C,U2*%
X163335000Y-108855000D02*
X163335000Y-114155000D01*
X163335000Y-114155000D02*
X176665000Y-114155000D01*
X176665000Y-108855000D02*
X163335000Y-108855000D01*
X176665000Y-110505000D02*
X176665000Y-108855000D01*
X176665000Y-114155000D02*
X176665000Y-112505000D01*
X176665000Y-112505000D02*
G75*
G02*
X176665000Y-110505000I0J1000000D01*
G01*
%TO.C,R8*%
X128630000Y-128230000D02*
X128630000Y-134770000D01*
X128630000Y-134770000D02*
X131370000Y-134770000D01*
X130000000Y-127460000D02*
X130000000Y-128230000D01*
X130000000Y-135540000D02*
X130000000Y-134770000D01*
X131370000Y-128230000D02*
X128630000Y-128230000D01*
X131370000Y-134770000D02*
X131370000Y-128230000D01*
%TO.C,C10*%
X155130000Y-111630000D02*
X155278000Y-111630000D01*
X155130000Y-114870000D02*
X155130000Y-111630000D01*
X155278000Y-114870000D02*
X155130000Y-114870000D01*
X157222000Y-111630000D02*
X157370000Y-111630000D01*
X157370000Y-111630000D02*
X157370000Y-114870000D01*
X157370000Y-114870000D02*
X157222000Y-114870000D01*
%TO.C,J6*%
X138590000Y-139670000D02*
X138590000Y-142330000D01*
X174210000Y-139670000D02*
X138590000Y-139670000D01*
X174210000Y-139670000D02*
X174210000Y-142330000D01*
X174210000Y-142330000D02*
X138590000Y-142330000D01*
X175480000Y-139670000D02*
X176810000Y-139670000D01*
X176810000Y-139670000D02*
X176810000Y-141000000D01*
%TO.C,R1*%
X143280000Y-129600000D02*
X144050000Y-129600000D01*
X151360000Y-129600000D02*
X150590000Y-129600000D01*
X150590000Y-130970000D02*
X144050000Y-130970000D01*
X144050000Y-128230000D01*
X150590000Y-128230000D01*
X150590000Y-130970000D01*
%TO.C,R9*%
X139360000Y-64400000D02*
X140130000Y-64400000D01*
X140130000Y-63030000D02*
X140130000Y-65770000D01*
X140130000Y-65770000D02*
X146670000Y-65770000D01*
X146670000Y-63030000D02*
X140130000Y-63030000D01*
X146670000Y-65770000D02*
X146670000Y-63030000D01*
X147440000Y-64400000D02*
X146670000Y-64400000D01*
%TO.C,K4*%
X120200000Y-68550000D02*
X135800000Y-68550000D01*
X120200000Y-88350000D02*
X120200000Y-68550000D01*
X120200000Y-88350000D02*
X126800000Y-88350000D01*
X122050000Y-80900000D02*
X122050000Y-83400000D01*
X122050000Y-80900000D02*
X126250000Y-80900000D01*
X123800000Y-72800000D02*
X126300000Y-72800000D01*
X126250000Y-78900000D02*
X129850000Y-78900000D01*
X126250000Y-82900000D02*
X126250000Y-78900000D01*
X128050000Y-76000000D02*
X125550000Y-71400000D01*
X128050000Y-77500000D02*
X128050000Y-76000000D01*
X128050000Y-77500000D02*
X131650000Y-77500000D01*
X128050000Y-84300000D02*
X128050000Y-85100000D01*
X128050000Y-84300000D02*
X131650000Y-84300000D01*
X129200000Y-88350000D02*
X135800000Y-88350000D01*
X129850000Y-78900000D02*
X126250000Y-82900000D01*
X129850000Y-78900000D02*
X129850000Y-82900000D01*
X129850000Y-80900000D02*
X134050000Y-80900000D01*
X129850000Y-82900000D02*
X126250000Y-82900000D01*
X131650000Y-77500000D02*
X131650000Y-84300000D01*
X132200000Y-72800000D02*
X129750000Y-72800000D01*
X134050000Y-83400000D02*
X134050000Y-80900000D01*
X135800000Y-68550000D02*
X135800000Y-88350000D01*
%TO.C,C4*%
X176420000Y-119932600D02*
X180580000Y-119932600D01*
X176420000Y-119972600D02*
X180580000Y-119972600D01*
X176421000Y-119892600D02*
X180579000Y-119892600D01*
X176423000Y-119852600D02*
X180577000Y-119852600D01*
X176426000Y-119812600D02*
X180574000Y-119812600D01*
X176429000Y-119772600D02*
X177660000Y-119772600D01*
X176433000Y-119732600D02*
X177660000Y-119732600D01*
X176438000Y-119692600D02*
X177660000Y-119692600D01*
X176444000Y-119652600D02*
X177660000Y-119652600D01*
X176450000Y-119612600D02*
X177660000Y-119612600D01*
X176458000Y-119572600D02*
X177660000Y-119572600D01*
X176466000Y-119532600D02*
X177660000Y-119532600D01*
X176475000Y-119492600D02*
X177660000Y-119492600D01*
X176484000Y-119452600D02*
X177660000Y-119452600D01*
X176495000Y-119412600D02*
X177660000Y-119412600D01*
X176506000Y-119372600D02*
X177660000Y-119372600D01*
X176518000Y-119332600D02*
X177660000Y-119332600D01*
X176532000Y-119292600D02*
X177660000Y-119292600D01*
X176546000Y-119251600D02*
X177660000Y-119251600D01*
X176560000Y-119211600D02*
X177660000Y-119211600D01*
X176576000Y-119171600D02*
X177660000Y-119171600D01*
X176593000Y-119131600D02*
X177660000Y-119131600D01*
X176611000Y-119091600D02*
X177660000Y-119091600D01*
X176630000Y-119051600D02*
X177660000Y-119051600D01*
X176649000Y-119011600D02*
X177660000Y-119011600D01*
X176670000Y-118971600D02*
X177660000Y-118971600D01*
X176692000Y-118931600D02*
X177660000Y-118931600D01*
X176715000Y-118891600D02*
X177660000Y-118891600D01*
X176740000Y-118851600D02*
X177660000Y-118851600D01*
X176765000Y-118811600D02*
X177660000Y-118811600D01*
X176792000Y-118771600D02*
X177660000Y-118771600D01*
X176820000Y-118731600D02*
X177660000Y-118731600D01*
X176850000Y-118691600D02*
X177660000Y-118691600D01*
X176881000Y-118651600D02*
X177660000Y-118651600D01*
X176913000Y-118611600D02*
X177660000Y-118611600D01*
X176948000Y-118571600D02*
X177660000Y-118571600D01*
X176984000Y-118531600D02*
X177660000Y-118531600D01*
X177022000Y-118491600D02*
X177660000Y-118491600D01*
X177062000Y-118451600D02*
X177660000Y-118451600D01*
X177104000Y-118411600D02*
X177660000Y-118411600D01*
X177105000Y-122042401D02*
X177505000Y-122042401D01*
X177149000Y-118371600D02*
X177660000Y-118371600D01*
X177196000Y-118331600D02*
X177660000Y-118331600D01*
X177246000Y-118291600D02*
X177660000Y-118291600D01*
X177300000Y-118251600D02*
X177660000Y-118251600D01*
X177305000Y-122242401D02*
X177305000Y-121842401D01*
X177358000Y-118211600D02*
X177660000Y-118211600D01*
X177420000Y-118171600D02*
X177660000Y-118171600D01*
X177487000Y-118131600D02*
X179513000Y-118131600D01*
X177560000Y-118091600D02*
X179440000Y-118091600D01*
X177641000Y-118051600D02*
X179359000Y-118051600D01*
X177732000Y-118011600D02*
X179268000Y-118011600D01*
X177836000Y-117971600D02*
X179164000Y-117971600D01*
X177963000Y-117931600D02*
X179037000Y-117931600D01*
X178130000Y-117891600D02*
X178870000Y-117891600D01*
X179340000Y-118171600D02*
X179580000Y-118171600D01*
X179340000Y-118211600D02*
X179642000Y-118211600D01*
X179340000Y-118251600D02*
X179700000Y-118251600D01*
X179340000Y-118291600D02*
X179754000Y-118291600D01*
X179340000Y-118331600D02*
X179804000Y-118331600D01*
X179340000Y-118371600D02*
X179851000Y-118371600D01*
X179340000Y-118411600D02*
X179896000Y-118411600D01*
X179340000Y-118451600D02*
X179938000Y-118451600D01*
X179340000Y-118491600D02*
X179978000Y-118491600D01*
X179340000Y-118531600D02*
X180016000Y-118531600D01*
X179340000Y-118571600D02*
X180052000Y-118571600D01*
X179340000Y-118611600D02*
X180087000Y-118611600D01*
X179340000Y-118651600D02*
X180119000Y-118651600D01*
X179340000Y-118691600D02*
X180150000Y-118691600D01*
X179340000Y-118731600D02*
X180180000Y-118731600D01*
X179340000Y-118771600D02*
X180208000Y-118771600D01*
X179340000Y-118811600D02*
X180235000Y-118811600D01*
X179340000Y-118851600D02*
X180260000Y-118851600D01*
X179340000Y-118891600D02*
X180285000Y-118891600D01*
X179340000Y-118931600D02*
X180308000Y-118931600D01*
X179340000Y-118971600D02*
X180330000Y-118971600D01*
X179340000Y-119011600D02*
X180351000Y-119011600D01*
X179340000Y-119051600D02*
X180370000Y-119051600D01*
X179340000Y-119091600D02*
X180389000Y-119091600D01*
X179340000Y-119131600D02*
X180407000Y-119131600D01*
X179340000Y-119171600D02*
X180424000Y-119171600D01*
X179340000Y-119211600D02*
X180440000Y-119211600D01*
X179340000Y-119251600D02*
X180454000Y-119251600D01*
X179340000Y-119292600D02*
X180468000Y-119292600D01*
X179340000Y-119332600D02*
X180482000Y-119332600D01*
X179340000Y-119372600D02*
X180494000Y-119372600D01*
X179340000Y-119412600D02*
X180505000Y-119412600D01*
X179340000Y-119452600D02*
X180516000Y-119452600D01*
X179340000Y-119492600D02*
X180525000Y-119492600D01*
X179340000Y-119532600D02*
X180534000Y-119532600D01*
X179340000Y-119572600D02*
X180542000Y-119572600D01*
X179340000Y-119612600D02*
X180550000Y-119612600D01*
X179340000Y-119652600D02*
X180556000Y-119652600D01*
X179340000Y-119692600D02*
X180562000Y-119692600D01*
X179340000Y-119732600D02*
X180567000Y-119732600D01*
X179340000Y-119772600D02*
X180571000Y-119772600D01*
X180620000Y-119972600D02*
G75*
G02*
X176380000Y-119972600I-2120000J0D01*
G01*
X176380000Y-119972600D02*
G75*
G02*
X180620000Y-119972600I2120000J0D01*
G01*
%TO.C,RV1*%
X129590000Y-139490000D02*
X136410000Y-139490000D01*
X129590000Y-142658000D02*
X129590000Y-139490000D01*
X129590000Y-146710000D02*
X129590000Y-143422000D01*
X136410000Y-139490000D02*
X136410000Y-142658000D01*
X136410000Y-143422000D02*
X136410000Y-146710000D01*
X136410000Y-146710000D02*
X129590000Y-146710000D01*
%TO.C,D4*%
X152030000Y-96780000D02*
X152030000Y-102220000D01*
X152030000Y-102220000D02*
X154970000Y-102220000D01*
X153500000Y-95760000D02*
X153500000Y-96780000D01*
X153500000Y-103240000D02*
X153500000Y-102220000D01*
X154970000Y-96780000D02*
X152030000Y-96780000D01*
X154970000Y-97560000D02*
X152030000Y-97560000D01*
X154970000Y-97680000D02*
X152030000Y-97680000D01*
X154970000Y-97800000D02*
X152030000Y-97800000D01*
X154970000Y-102220000D02*
X154970000Y-96780000D01*
%TO.C,C1*%
X165946401Y-101870000D02*
X165946401Y-101130000D01*
X165986401Y-102037000D02*
X165986401Y-100963000D01*
X166026401Y-102164000D02*
X166026401Y-100836000D01*
X166066401Y-102268000D02*
X166066401Y-100732000D01*
X166106401Y-102359000D02*
X166106401Y-100641000D01*
X166146401Y-102440000D02*
X166146401Y-100560000D01*
X166186401Y-102513000D02*
X166186401Y-100487000D01*
X166226401Y-100660000D02*
X166226401Y-100420000D01*
X166226401Y-102580000D02*
X166226401Y-102340000D01*
X166266401Y-100660000D02*
X166266401Y-100358000D01*
X166266401Y-102642000D02*
X166266401Y-102340000D01*
X166306401Y-100660000D02*
X166306401Y-100300000D01*
X166306401Y-102700000D02*
X166306401Y-102340000D01*
X166346401Y-100660000D02*
X166346401Y-100246000D01*
X166346401Y-102754000D02*
X166346401Y-102340000D01*
X166386401Y-100660000D02*
X166386401Y-100196000D01*
X166386401Y-102804000D02*
X166386401Y-102340000D01*
X166426401Y-100660000D02*
X166426401Y-100149000D01*
X166426401Y-102851000D02*
X166426401Y-102340000D01*
X166466401Y-100660000D02*
X166466401Y-100104000D01*
X166466401Y-102896000D02*
X166466401Y-102340000D01*
X166506401Y-100660000D02*
X166506401Y-100062000D01*
X166506401Y-102938000D02*
X166506401Y-102340000D01*
X166546401Y-100660000D02*
X166546401Y-100022000D01*
X166546401Y-102978000D02*
X166546401Y-102340000D01*
X166586401Y-100660000D02*
X166586401Y-99984000D01*
X166586401Y-103016000D02*
X166586401Y-102340000D01*
X166626401Y-100660000D02*
X166626401Y-99948000D01*
X166626401Y-103052000D02*
X166626401Y-102340000D01*
X166666401Y-100660000D02*
X166666401Y-99913000D01*
X166666401Y-103087000D02*
X166666401Y-102340000D01*
X166706401Y-100660000D02*
X166706401Y-99881000D01*
X166706401Y-103119000D02*
X166706401Y-102340000D01*
X166746401Y-100660000D02*
X166746401Y-99850000D01*
X166746401Y-103150000D02*
X166746401Y-102340000D01*
X166786401Y-100660000D02*
X166786401Y-99820000D01*
X166786401Y-103180000D02*
X166786401Y-102340000D01*
X166826401Y-100660000D02*
X166826401Y-99792000D01*
X166826401Y-103208000D02*
X166826401Y-102340000D01*
X166866401Y-100660000D02*
X166866401Y-99765000D01*
X166866401Y-103235000D02*
X166866401Y-102340000D01*
X166906401Y-100660000D02*
X166906401Y-99740000D01*
X166906401Y-103260000D02*
X166906401Y-102340000D01*
X166946401Y-100660000D02*
X166946401Y-99715000D01*
X166946401Y-103285000D02*
X166946401Y-102340000D01*
X166986401Y-100660000D02*
X166986401Y-99692000D01*
X166986401Y-103308000D02*
X166986401Y-102340000D01*
X167026401Y-100660000D02*
X167026401Y-99670000D01*
X167026401Y-103330000D02*
X167026401Y-102340000D01*
X167066401Y-100660000D02*
X167066401Y-99649000D01*
X167066401Y-103351000D02*
X167066401Y-102340000D01*
X167106401Y-100660000D02*
X167106401Y-99630000D01*
X167106401Y-103370000D02*
X167106401Y-102340000D01*
X167146401Y-100660000D02*
X167146401Y-99611000D01*
X167146401Y-103389000D02*
X167146401Y-102340000D01*
X167186401Y-100660000D02*
X167186401Y-99593000D01*
X167186401Y-103407000D02*
X167186401Y-102340000D01*
X167226401Y-100660000D02*
X167226401Y-99576000D01*
X167226401Y-103424000D02*
X167226401Y-102340000D01*
X167266401Y-100660000D02*
X167266401Y-99560000D01*
X167266401Y-103440000D02*
X167266401Y-102340000D01*
X167306401Y-100660000D02*
X167306401Y-99546000D01*
X167306401Y-103454000D02*
X167306401Y-102340000D01*
X167347401Y-100660000D02*
X167347401Y-99532000D01*
X167347401Y-103468000D02*
X167347401Y-102340000D01*
X167387401Y-100660000D02*
X167387401Y-99518000D01*
X167387401Y-103482000D02*
X167387401Y-102340000D01*
X167427401Y-100660000D02*
X167427401Y-99506000D01*
X167427401Y-103494000D02*
X167427401Y-102340000D01*
X167467401Y-100660000D02*
X167467401Y-99495000D01*
X167467401Y-103505000D02*
X167467401Y-102340000D01*
X167507401Y-100660000D02*
X167507401Y-99484000D01*
X167507401Y-103516000D02*
X167507401Y-102340000D01*
X167547401Y-100660000D02*
X167547401Y-99475000D01*
X167547401Y-103525000D02*
X167547401Y-102340000D01*
X167587401Y-100660000D02*
X167587401Y-99466000D01*
X167587401Y-103534000D02*
X167587401Y-102340000D01*
X167627401Y-100660000D02*
X167627401Y-99458000D01*
X167627401Y-103542000D02*
X167627401Y-102340000D01*
X167667401Y-100660000D02*
X167667401Y-99450000D01*
X167667401Y-103550000D02*
X167667401Y-102340000D01*
X167707401Y-100660000D02*
X167707401Y-99444000D01*
X167707401Y-103556000D02*
X167707401Y-102340000D01*
X167747401Y-100660000D02*
X167747401Y-99438000D01*
X167747401Y-103562000D02*
X167747401Y-102340000D01*
X167787401Y-100660000D02*
X167787401Y-99433000D01*
X167787401Y-103567000D02*
X167787401Y-102340000D01*
X167827401Y-100660000D02*
X167827401Y-99429000D01*
X167827401Y-103571000D02*
X167827401Y-102340000D01*
X167867401Y-103574000D02*
X167867401Y-99426000D01*
X167907401Y-103577000D02*
X167907401Y-99423000D01*
X167947401Y-103579000D02*
X167947401Y-99421000D01*
X167987401Y-103580000D02*
X167987401Y-99420000D01*
X168027401Y-103580000D02*
X168027401Y-99420000D01*
X170097202Y-102895000D02*
X170097202Y-102495000D01*
X170297202Y-102695000D02*
X169897202Y-102695000D01*
X170147401Y-101500000D02*
G75*
G02*
X165907401Y-101500000I-2120000J0D01*
G01*
X165907401Y-101500000D02*
G75*
G02*
X170147401Y-101500000I2120000J0D01*
G01*
%TO.C,C8*%
X115960000Y-132230000D02*
X113195000Y-132230000D01*
X115960000Y-132270000D02*
X113211000Y-132270000D01*
X115960000Y-132310000D02*
X113227000Y-132310000D01*
X115960000Y-132350000D02*
X113243000Y-132350000D01*
X115960000Y-132390000D02*
X113260000Y-132390000D01*
X115960000Y-132430000D02*
X113278000Y-132430000D01*
X115960000Y-132470000D02*
X113296000Y-132470000D01*
X115960000Y-132510000D02*
X113315000Y-132510000D01*
X115960000Y-132550000D02*
X113334000Y-132550000D01*
X115960000Y-132590000D02*
X113354000Y-132590000D01*
X115960000Y-132630000D02*
X113374000Y-132630000D01*
X115960000Y-132670000D02*
X113395000Y-132670000D01*
X115960000Y-132710000D02*
X113416000Y-132710000D01*
X115960000Y-132750000D02*
X113438000Y-132750000D01*
X115960000Y-132790000D02*
X113461000Y-132790000D01*
X115960000Y-132830000D02*
X113484000Y-132830000D01*
X115960000Y-132870000D02*
X113507000Y-132870000D01*
X115960000Y-132910000D02*
X113532000Y-132910000D01*
X115960000Y-132950000D02*
X113557000Y-132950000D01*
X115960000Y-132990000D02*
X113582000Y-132990000D01*
X115960000Y-133030000D02*
X113608000Y-133030000D01*
X115960000Y-133070000D02*
X113635000Y-133070000D01*
X115960000Y-133110000D02*
X113663000Y-133110000D01*
X115960000Y-133150000D02*
X113691000Y-133150000D01*
X115960000Y-133190000D02*
X113720000Y-133190000D01*
X115960000Y-133230000D02*
X113750000Y-133230000D01*
X115960000Y-133270000D02*
X113781000Y-133270000D01*
X115960000Y-133310000D02*
X113812000Y-133310000D01*
X115960000Y-133350000D02*
X113844000Y-133350000D01*
X115960000Y-133390000D02*
X113877000Y-133390000D01*
X115960000Y-133430000D02*
X113911000Y-133430000D01*
X115960000Y-133470000D02*
X113945000Y-133470000D01*
X115960000Y-133510000D02*
X113981000Y-133510000D01*
X115960000Y-133550000D02*
X114018000Y-133550000D01*
X115960000Y-133590000D02*
X114055000Y-133590000D01*
X115960000Y-133630000D02*
X114094000Y-133630000D01*
X115960000Y-133670000D02*
X114133000Y-133670000D01*
X115960000Y-133710000D02*
X114174000Y-133710000D01*
X115960000Y-133750000D02*
X114216000Y-133750000D01*
X115960000Y-133790000D02*
X114259000Y-133790000D01*
X115960000Y-133830000D02*
X114304000Y-133830000D01*
X115960000Y-133870000D02*
X114349000Y-133870000D01*
X115960000Y-133910000D02*
X114396000Y-133910000D01*
X115960000Y-133950000D02*
X114445000Y-133950000D01*
X115960000Y-133990000D02*
X114495000Y-133990000D01*
X115960000Y-134030000D02*
X114547000Y-134030000D01*
X115960000Y-134070000D02*
X114600000Y-134070000D01*
X115960000Y-134110000D02*
X114656000Y-134110000D01*
X115960000Y-134150000D02*
X114713000Y-134150000D01*
X115960000Y-134190000D02*
X114773000Y-134190000D01*
X115960000Y-134230000D02*
X114835000Y-134230000D01*
X115960000Y-134270000D02*
X114899000Y-134270000D01*
X117533000Y-134830000D02*
X116467000Y-134830000D01*
X117768000Y-134790000D02*
X116232000Y-134790000D01*
X117947000Y-134750000D02*
X116053000Y-134750000D01*
X118097000Y-134710000D02*
X115903000Y-134710000D01*
X118228000Y-134670000D02*
X115772000Y-134670000D01*
X118346000Y-134630000D02*
X115654000Y-134630000D01*
X118453000Y-134590000D02*
X115547000Y-134590000D01*
X118552000Y-134550000D02*
X115448000Y-134550000D01*
X118644000Y-134510000D02*
X115356000Y-134510000D01*
X118731000Y-134470000D02*
X115269000Y-134470000D01*
X118813000Y-134430000D02*
X115187000Y-134430000D01*
X118890000Y-134390000D02*
X115110000Y-134390000D01*
X118964000Y-134350000D02*
X115036000Y-134350000D01*
X119034000Y-134310000D02*
X114966000Y-134310000D01*
X119101000Y-134270000D02*
X118040000Y-134270000D01*
X119165000Y-134230000D02*
X118040000Y-134230000D01*
X119227000Y-134190000D02*
X118040000Y-134190000D01*
X119287000Y-134150000D02*
X118040000Y-134150000D01*
X119315000Y-126340302D02*
X119315000Y-127140302D01*
X119344000Y-134110000D02*
X118040000Y-134110000D01*
X119400000Y-134070000D02*
X118040000Y-134070000D01*
X119453000Y-134030000D02*
X118040000Y-134030000D01*
X119505000Y-133990000D02*
X118040000Y-133990000D01*
X119555000Y-133950000D02*
X118040000Y-133950000D01*
X119604000Y-133910000D02*
X118040000Y-133910000D01*
X119651000Y-133870000D02*
X118040000Y-133870000D01*
X119696000Y-133830000D02*
X118040000Y-133830000D01*
X119715000Y-126740302D02*
X118915000Y-126740302D01*
X119741000Y-133790000D02*
X118040000Y-133790000D01*
X119784000Y-133750000D02*
X118040000Y-133750000D01*
X119826000Y-133710000D02*
X118040000Y-133710000D01*
X119867000Y-133670000D02*
X118040000Y-133670000D01*
X119906000Y-133630000D02*
X118040000Y-133630000D01*
X119945000Y-133590000D02*
X118040000Y-133590000D01*
X119982000Y-133550000D02*
X118040000Y-133550000D01*
X120019000Y-133510000D02*
X118040000Y-133510000D01*
X120055000Y-133470000D02*
X118040000Y-133470000D01*
X120089000Y-133430000D02*
X118040000Y-133430000D01*
X120123000Y-133390000D02*
X118040000Y-133390000D01*
X120156000Y-133350000D02*
X118040000Y-133350000D01*
X120188000Y-133310000D02*
X118040000Y-133310000D01*
X120219000Y-133270000D02*
X118040000Y-133270000D01*
X120250000Y-133230000D02*
X118040000Y-133230000D01*
X120280000Y-133190000D02*
X118040000Y-133190000D01*
X120309000Y-133150000D02*
X118040000Y-133150000D01*
X120337000Y-133110000D02*
X118040000Y-133110000D01*
X120365000Y-133070000D02*
X118040000Y-133070000D01*
X120392000Y-133030000D02*
X118040000Y-133030000D01*
X120418000Y-132990000D02*
X118040000Y-132990000D01*
X120443000Y-132950000D02*
X118040000Y-132950000D01*
X120468000Y-132910000D02*
X118040000Y-132910000D01*
X120493000Y-132870000D02*
X118040000Y-132870000D01*
X120516000Y-132830000D02*
X118040000Y-132830000D01*
X120539000Y-132790000D02*
X118040000Y-132790000D01*
X120562000Y-132750000D02*
X118040000Y-132750000D01*
X120584000Y-132710000D02*
X118040000Y-132710000D01*
X120605000Y-132670000D02*
X118040000Y-132670000D01*
X120626000Y-132630000D02*
X118040000Y-132630000D01*
X120646000Y-132590000D02*
X118040000Y-132590000D01*
X120666000Y-132550000D02*
X118040000Y-132550000D01*
X120685000Y-132510000D02*
X118040000Y-132510000D01*
X120704000Y-132470000D02*
X118040000Y-132470000D01*
X120722000Y-132430000D02*
X118040000Y-132430000D01*
X120740000Y-132390000D02*
X118040000Y-132390000D01*
X120757000Y-132350000D02*
X118040000Y-132350000D01*
X120773000Y-132310000D02*
X118040000Y-132310000D01*
X120789000Y-132270000D02*
X118040000Y-132270000D01*
X120805000Y-132230000D02*
X118040000Y-132230000D01*
X120820000Y-132190000D02*
X113180000Y-132190000D01*
X120835000Y-132150000D02*
X113165000Y-132150000D01*
X120849000Y-132110000D02*
X113151000Y-132110000D01*
X120863000Y-132070000D02*
X113137000Y-132070000D01*
X120876000Y-132030000D02*
X113124000Y-132030000D01*
X120889000Y-131990000D02*
X113111000Y-131990000D01*
X120901000Y-131950000D02*
X113099000Y-131950000D01*
X120913000Y-131910000D02*
X113087000Y-131910000D01*
X120925000Y-131870000D02*
X113075000Y-131870000D01*
X120936000Y-131830000D02*
X113064000Y-131830000D01*
X120947000Y-131790000D02*
X113053000Y-131790000D01*
X120957000Y-131750000D02*
X113043000Y-131750000D01*
X120967000Y-131710000D02*
X113033000Y-131710000D01*
X120976000Y-131670000D02*
X113024000Y-131670000D01*
X120985000Y-131630000D02*
X113015000Y-131630000D01*
X120993000Y-131590000D02*
X113007000Y-131590000D01*
X121002000Y-131550000D02*
X112998000Y-131550000D01*
X121009000Y-131510000D02*
X112991000Y-131510000D01*
X121017000Y-131470000D02*
X112983000Y-131470000D01*
X121023000Y-131430000D02*
X112977000Y-131430000D01*
X121030000Y-131390000D02*
X112970000Y-131390000D01*
X121036000Y-131350000D02*
X112964000Y-131350000D01*
X121042000Y-131310000D02*
X112958000Y-131310000D01*
X121047000Y-131270000D02*
X112953000Y-131270000D01*
X121052000Y-131230000D02*
X112948000Y-131230000D01*
X121056000Y-131190000D02*
X112944000Y-131190000D01*
X121061000Y-131150000D02*
X112939000Y-131150000D01*
X121064000Y-131110000D02*
X112936000Y-131110000D01*
X121068000Y-131070000D02*
X112932000Y-131070000D01*
X121070000Y-131030000D02*
X112930000Y-131030000D01*
X121073000Y-130990000D02*
X112927000Y-130990000D01*
X121075000Y-130950000D02*
X112925000Y-130950000D01*
X121077000Y-130910000D02*
X112923000Y-130910000D01*
X121078000Y-130870000D02*
X112922000Y-130870000D01*
X121079000Y-130830000D02*
X112921000Y-130830000D01*
X121080000Y-130750000D02*
X112920000Y-130750000D01*
X121080000Y-130790000D02*
X112920000Y-130790000D01*
X121120000Y-130750000D02*
G75*
G02*
X112880000Y-130750000I-4120000J0D01*
G01*
X112880000Y-130750000D02*
G75*
G02*
X121120000Y-130750000I4120000J0D01*
G01*
%TO.C,C9*%
X171630000Y-128130000D02*
X174870000Y-128130000D01*
X171630000Y-128278000D02*
X171630000Y-128130000D01*
X171630000Y-130370000D02*
X171630000Y-130222000D01*
X174870000Y-128130000D02*
X174870000Y-128278000D01*
X174870000Y-130222000D02*
X174870000Y-130370000D01*
X174870000Y-130370000D02*
X171630000Y-130370000D01*
%TO.C,C7*%
X178880000Y-109380000D02*
X179028000Y-109380000D01*
X178880000Y-112620000D02*
X178880000Y-109380000D01*
X179028000Y-112620000D02*
X178880000Y-112620000D01*
X180972000Y-109380000D02*
X181120000Y-109380000D01*
X181120000Y-109380000D02*
X181120000Y-112620000D01*
X181120000Y-112620000D02*
X180972000Y-112620000D01*
%TO.C,D1*%
X156680000Y-61500000D02*
X157700000Y-61500000D01*
X157700000Y-60030000D02*
X157700000Y-62970000D01*
X157700000Y-62970000D02*
X163140000Y-62970000D01*
X162120000Y-62970000D02*
X162120000Y-60030000D01*
X162240000Y-62970000D02*
X162240000Y-60030000D01*
X162360000Y-62970000D02*
X162360000Y-60030000D01*
X163140000Y-60030000D02*
X157700000Y-60030000D01*
X163140000Y-62970000D02*
X163140000Y-60030000D01*
X164160000Y-61500000D02*
X163140000Y-61500000D01*
%TO.C,R4*%
X119040000Y-58000000D02*
X119730000Y-58000000D01*
X119730000Y-56280000D02*
X119730000Y-59720000D01*
X119730000Y-59720000D02*
X128970000Y-59720000D01*
X128970000Y-56280000D02*
X119730000Y-56280000D01*
X128970000Y-59720000D02*
X128970000Y-56280000D01*
X129660000Y-58000000D02*
X128970000Y-58000000D01*
%TO.C,Q1*%
X167380000Y-50230000D02*
X167380000Y-54871000D01*
X167380000Y-50230000D02*
X177620000Y-50230000D01*
X167380000Y-51740000D02*
X177620000Y-51740000D01*
X167380000Y-54871000D02*
X177620000Y-54871000D01*
X170650000Y-50230000D02*
X170650000Y-51740000D01*
X174351000Y-50230000D02*
X174351000Y-51740000D01*
X177620000Y-50230000D02*
X177620000Y-54871000D01*
%TO.C,C3*%
X148660000Y-119700000D02*
X147429000Y-119700000D01*
X148660000Y-119740000D02*
X147433000Y-119740000D01*
X148660000Y-119780000D02*
X147438000Y-119780000D01*
X148660000Y-119820000D02*
X147444000Y-119820000D01*
X148660000Y-119860000D02*
X147450000Y-119860000D01*
X148660000Y-119900000D02*
X147458000Y-119900000D01*
X148660000Y-119940000D02*
X147466000Y-119940000D01*
X148660000Y-119980000D02*
X147475000Y-119980000D01*
X148660000Y-120020000D02*
X147484000Y-120020000D01*
X148660000Y-120060000D02*
X147495000Y-120060000D01*
X148660000Y-120100000D02*
X147506000Y-120100000D01*
X148660000Y-120140000D02*
X147518000Y-120140000D01*
X148660000Y-120180000D02*
X147532000Y-120180000D01*
X148660000Y-120221000D02*
X147546000Y-120221000D01*
X148660000Y-120261000D02*
X147560000Y-120261000D01*
X148660000Y-120301000D02*
X147576000Y-120301000D01*
X148660000Y-120341000D02*
X147593000Y-120341000D01*
X148660000Y-120381000D02*
X147611000Y-120381000D01*
X148660000Y-120421000D02*
X147630000Y-120421000D01*
X148660000Y-120461000D02*
X147649000Y-120461000D01*
X148660000Y-120501000D02*
X147670000Y-120501000D01*
X148660000Y-120541000D02*
X147692000Y-120541000D01*
X148660000Y-120581000D02*
X147715000Y-120581000D01*
X148660000Y-120621000D02*
X147740000Y-120621000D01*
X148660000Y-120661000D02*
X147765000Y-120661000D01*
X148660000Y-120701000D02*
X147792000Y-120701000D01*
X148660000Y-120741000D02*
X147820000Y-120741000D01*
X148660000Y-120781000D02*
X147850000Y-120781000D01*
X148660000Y-120821000D02*
X147881000Y-120821000D01*
X148660000Y-120861000D02*
X147913000Y-120861000D01*
X148660000Y-120901000D02*
X147948000Y-120901000D01*
X148660000Y-120941000D02*
X147984000Y-120941000D01*
X148660000Y-120981000D02*
X148022000Y-120981000D01*
X148660000Y-121021000D02*
X148062000Y-121021000D01*
X148660000Y-121061000D02*
X148104000Y-121061000D01*
X148660000Y-121101000D02*
X148149000Y-121101000D01*
X148660000Y-121141000D02*
X148196000Y-121141000D01*
X148660000Y-121181000D02*
X148246000Y-121181000D01*
X148660000Y-121221000D02*
X148300000Y-121221000D01*
X148660000Y-121261000D02*
X148358000Y-121261000D01*
X148660000Y-121301000D02*
X148420000Y-121301000D01*
X149870000Y-121581000D02*
X149130000Y-121581000D01*
X150037000Y-121541000D02*
X148963000Y-121541000D01*
X150164000Y-121501000D02*
X148836000Y-121501000D01*
X150268000Y-121461000D02*
X148732000Y-121461000D01*
X150359000Y-121421000D02*
X148641000Y-121421000D01*
X150440000Y-121381000D02*
X148560000Y-121381000D01*
X150513000Y-121341000D02*
X148487000Y-121341000D01*
X150580000Y-121301000D02*
X150340000Y-121301000D01*
X150642000Y-121261000D02*
X150340000Y-121261000D01*
X150695000Y-117230199D02*
X150695000Y-117630199D01*
X150700000Y-121221000D02*
X150340000Y-121221000D01*
X150754000Y-121181000D02*
X150340000Y-121181000D01*
X150804000Y-121141000D02*
X150340000Y-121141000D01*
X150851000Y-121101000D02*
X150340000Y-121101000D01*
X150895000Y-117430199D02*
X150495000Y-117430199D01*
X150896000Y-121061000D02*
X150340000Y-121061000D01*
X150938000Y-121021000D02*
X150340000Y-121021000D01*
X150978000Y-120981000D02*
X150340000Y-120981000D01*
X151016000Y-120941000D02*
X150340000Y-120941000D01*
X151052000Y-120901000D02*
X150340000Y-120901000D01*
X151087000Y-120861000D02*
X150340000Y-120861000D01*
X151119000Y-120821000D02*
X150340000Y-120821000D01*
X151150000Y-120781000D02*
X150340000Y-120781000D01*
X151180000Y-120741000D02*
X150340000Y-120741000D01*
X151208000Y-120701000D02*
X150340000Y-120701000D01*
X151235000Y-120661000D02*
X150340000Y-120661000D01*
X151260000Y-120621000D02*
X150340000Y-120621000D01*
X151285000Y-120581000D02*
X150340000Y-120581000D01*
X151308000Y-120541000D02*
X150340000Y-120541000D01*
X151330000Y-120501000D02*
X150340000Y-120501000D01*
X151351000Y-120461000D02*
X150340000Y-120461000D01*
X151370000Y-120421000D02*
X150340000Y-120421000D01*
X151389000Y-120381000D02*
X150340000Y-120381000D01*
X151407000Y-120341000D02*
X150340000Y-120341000D01*
X151424000Y-120301000D02*
X150340000Y-120301000D01*
X151440000Y-120261000D02*
X150340000Y-120261000D01*
X151454000Y-120221000D02*
X150340000Y-120221000D01*
X151468000Y-120180000D02*
X150340000Y-120180000D01*
X151482000Y-120140000D02*
X150340000Y-120140000D01*
X151494000Y-120100000D02*
X150340000Y-120100000D01*
X151505000Y-120060000D02*
X150340000Y-120060000D01*
X151516000Y-120020000D02*
X150340000Y-120020000D01*
X151525000Y-119980000D02*
X150340000Y-119980000D01*
X151534000Y-119940000D02*
X150340000Y-119940000D01*
X151542000Y-119900000D02*
X150340000Y-119900000D01*
X151550000Y-119860000D02*
X150340000Y-119860000D01*
X151556000Y-119820000D02*
X150340000Y-119820000D01*
X151562000Y-119780000D02*
X150340000Y-119780000D01*
X151567000Y-119740000D02*
X150340000Y-119740000D01*
X151571000Y-119700000D02*
X150340000Y-119700000D01*
X151574000Y-119660000D02*
X147426000Y-119660000D01*
X151577000Y-119620000D02*
X147423000Y-119620000D01*
X151579000Y-119580000D02*
X147421000Y-119580000D01*
X151580000Y-119500000D02*
X147420000Y-119500000D01*
X151580000Y-119540000D02*
X147420000Y-119540000D01*
X151620000Y-119500000D02*
G75*
G02*
X147380000Y-119500000I-2120000J0D01*
G01*
X147380000Y-119500000D02*
G75*
G02*
X151620000Y-119500000I2120000J0D01*
G01*
%TO.C,R6*%
X172830000Y-95050000D02*
X172830000Y-101590000D01*
X172830000Y-101590000D02*
X175570000Y-101590000D01*
X174200000Y-94280000D02*
X174200000Y-95050000D01*
X174200000Y-102360000D02*
X174200000Y-101590000D01*
X175570000Y-95050000D02*
X172830000Y-95050000D01*
X175570000Y-101590000D02*
X175570000Y-95050000D01*
%TO.C,J2*%
X116800000Y-136420000D02*
X116800000Y-139080000D01*
X124480000Y-136420000D02*
X116800000Y-136420000D01*
X124480000Y-136420000D02*
X124480000Y-139080000D01*
X124480000Y-139080000D02*
X116800000Y-139080000D01*
X125750000Y-136420000D02*
X127080000Y-136420000D01*
X127080000Y-136420000D02*
X127080000Y-137750000D01*
%TO.C,U4*%
X170200000Y-121850000D02*
X173800000Y-121850000D01*
X170161522Y-121838478D02*
G75*
G02*
X172000000Y-117399999I1838478J1838478D01*
G01*
X172000000Y-117400000D02*
G75*
G02*
X173838478Y-121838478I0J-2600000D01*
G01*
%TO.C,K1*%
X141200000Y-68550000D02*
X156800000Y-68550000D01*
X141200000Y-88350000D02*
X141200000Y-68550000D01*
X141200000Y-88350000D02*
X147800000Y-88350000D01*
X143050000Y-80900000D02*
X143050000Y-83400000D01*
X143050000Y-80900000D02*
X147250000Y-80900000D01*
X144800000Y-72800000D02*
X147300000Y-72800000D01*
X147250000Y-78900000D02*
X150850000Y-78900000D01*
X147250000Y-82900000D02*
X147250000Y-78900000D01*
X149050000Y-76000000D02*
X146550000Y-71400000D01*
X149050000Y-77500000D02*
X149050000Y-76000000D01*
X149050000Y-77500000D02*
X152650000Y-77500000D01*
X149050000Y-84300000D02*
X149050000Y-85100000D01*
X149050000Y-84300000D02*
X152650000Y-84300000D01*
X150200000Y-88350000D02*
X156800000Y-88350000D01*
X150850000Y-78900000D02*
X147250000Y-82900000D01*
X150850000Y-78900000D02*
X150850000Y-82900000D01*
X150850000Y-80900000D02*
X155050000Y-80900000D01*
X150850000Y-82900000D02*
X147250000Y-82900000D01*
X152650000Y-77500000D02*
X152650000Y-84300000D01*
X153200000Y-72800000D02*
X150750000Y-72800000D01*
X155050000Y-83400000D02*
X155050000Y-80900000D01*
X156800000Y-68550000D02*
X156800000Y-88350000D01*
%TO.C,D6*%
X162160000Y-45200000D02*
X163180000Y-45200000D01*
X163960000Y-43730000D02*
X163960000Y-46670000D01*
X164080000Y-43730000D02*
X164080000Y-46670000D01*
X164200000Y-43730000D02*
X164200000Y-46670000D01*
X169640000Y-45200000D02*
X168620000Y-45200000D01*
X163180000Y-43730000D02*
X168620000Y-43730000D01*
X168620000Y-46670000D01*
X163180000Y-46670000D01*
X163180000Y-43730000D01*
%TO.C,D5*%
X139780000Y-57530000D02*
X139780000Y-57860000D01*
X139780000Y-60470000D02*
X139780000Y-60140000D01*
X144200000Y-60470000D02*
X144200000Y-57530000D01*
X144320000Y-60470000D02*
X144320000Y-57530000D01*
X144440000Y-60470000D02*
X144440000Y-57530000D01*
X145220000Y-57530000D02*
X139780000Y-57530000D01*
X145220000Y-57860000D02*
X145220000Y-57530000D01*
X145220000Y-60140000D02*
X145220000Y-60470000D01*
X145220000Y-60470000D02*
X139780000Y-60470000D01*
%TO.C,J5*%
X138590000Y-124670000D02*
X138590000Y-127330000D01*
X174210000Y-124670000D02*
X138590000Y-124670000D01*
X174210000Y-124670000D02*
X174210000Y-127330000D01*
X174210000Y-127330000D02*
X138590000Y-127330000D01*
X175480000Y-124670000D02*
X176810000Y-124670000D01*
X176810000Y-124670000D02*
X176810000Y-126000000D01*
%TO.C,R2*%
X177630000Y-96730000D02*
X177630000Y-103270000D01*
X177630000Y-103270000D02*
X180370000Y-103270000D01*
X179000000Y-95960000D02*
X179000000Y-96730000D01*
X179000000Y-104040000D02*
X179000000Y-103270000D01*
X180370000Y-96730000D02*
X177630000Y-96730000D01*
X180370000Y-103270000D02*
X180370000Y-96730000D01*
%TD*%
M02*
