%TF.GenerationSoftware,KiCad,Pcbnew,9.0.6*%
%TF.CreationDate,2025-12-25T22:54:44+01:00*%
%TF.ProjectId,dummyload,64756d6d-796c-46f6-9164-2e6b69636164,rev?*%
%TF.SameCoordinates,Original*%
%TF.FileFunction,Soldermask,Top*%
%TF.FilePolarity,Negative*%
%FSLAX46Y46*%
G04 Gerber Fmt 4.6, Leading zero omitted, Abs format (unit mm)*
G04 Created by KiCad (PCBNEW 9.0.6) date 2025-12-25 22:54:44*
%MOMM*%
%LPD*%
G01*
G04 APERTURE LIST*
G04 Aperture macros list*
%AMRoundRect*
0 Rectangle with rounded corners*
0 $1 Rounding radius*
0 $2 $3 $4 $5 $6 $7 $8 $9 X,Y pos of 4 corners*
0 Add a 4 corners polygon primitive as box body*
4,1,4,$2,$3,$4,$5,$6,$7,$8,$9,$2,$3,0*
0 Add four circle primitives for the rounded corners*
1,1,$1+$1,$2,$3*
1,1,$1+$1,$4,$5*
1,1,$1+$1,$6,$7*
1,1,$1+$1,$8,$9*
0 Add four rect primitives between the rounded corners*
20,1,$1+$1,$2,$3,$4,$5,0*
20,1,$1+$1,$4,$5,$6,$7,0*
20,1,$1+$1,$6,$7,$8,$9,0*
20,1,$1+$1,$8,$9,$2,$3,0*%
G04 Aperture macros list end*
%ADD10C,3.200000*%
%ADD11C,1.600000*%
%ADD12O,1.600000X1.600000*%
%ADD13R,1.700000X1.700000*%
%ADD14C,1.700000*%
%ADD15R,1.050000X1.500000*%
%ADD16O,1.050000X1.500000*%
%ADD17R,1.200000X1.200000*%
%ADD18C,1.200000*%
%ADD19R,2.200000X2.200000*%
%ADD20O,2.200000X2.200000*%
%ADD21RoundRect,0.250000X0.650000X0.650000X-0.650000X0.650000X-0.650000X-0.650000X0.650000X-0.650000X0*%
%ADD22C,1.800000*%
%ADD23RoundRect,0.250001X-0.799999X-0.799999X0.799999X-0.799999X0.799999X0.799999X-0.799999X0.799999X0*%
%ADD24O,1.700000X1.700000*%
%ADD25C,3.000000*%
%ADD26C,2.500000*%
%ADD27R,1.600000X1.600000*%
%ADD28RoundRect,0.250000X-0.825000X-0.825000X0.825000X-0.825000X0.825000X0.825000X-0.825000X0.825000X0*%
%ADD29C,1.440000*%
%ADD30RoundRect,0.250000X-0.550000X0.550000X-0.550000X-0.550000X0.550000X-0.550000X0.550000X0.550000X0*%
%ADD31R,1.905000X2.000000*%
%ADD32O,1.905000X2.000000*%
%ADD33RoundRect,0.249999X-0.850001X-0.850001X0.850001X-0.850001X0.850001X0.850001X-0.850001X0.850001X0*%
%ADD34C,2.200000*%
%ADD35R,1.800000X1.800000*%
%ADD36O,1.800000X1.800000*%
G04 APERTURE END LIST*
D10*
%TO.C,REF\u002A\u002A*%
X178500000Y-45000000D03*
%TD*%
D11*
%TO.C,R10*%
X123420000Y-64500000D03*
D12*
X133580000Y-64500000D03*
%TD*%
D13*
%TO.C,J22*%
X126000000Y-93500000D03*
D14*
X128540000Y-93500000D03*
%TD*%
D15*
%TO.C,Q3*%
X132000000Y-119000000D03*
D16*
X133270000Y-119000000D03*
X134540000Y-119000000D03*
%TD*%
D11*
%TO.C,C6*%
X117750000Y-122500000D03*
X117750000Y-120000000D03*
%TD*%
D17*
%TO.C,C2*%
X162000000Y-118500000D03*
D18*
X162000000Y-120500000D03*
%TD*%
D19*
%TO.C,D2*%
X146500000Y-94340000D03*
D20*
X146500000Y-104500000D03*
%TD*%
D13*
%TO.C,J21*%
X160960000Y-145500000D03*
D14*
X163500000Y-145500000D03*
%TD*%
D17*
%TO.C,C5*%
X153000000Y-113500000D03*
D18*
X151000000Y-113500000D03*
%TD*%
D19*
%TO.C,D3*%
X139000000Y-94420000D03*
D20*
X139000000Y-104580000D03*
%TD*%
D21*
%TO.C,D8*%
X179280000Y-64600000D03*
D22*
X169120000Y-64600000D03*
%TD*%
D23*
%TO.C,J19*%
X114200000Y-118000000D03*
%TD*%
D10*
%TO.C,REF\u002A\u002A*%
X115500000Y-45000000D03*
%TD*%
D23*
%TO.C,J11*%
X116000000Y-99500000D03*
%TD*%
D15*
%TO.C,Q4*%
X139980000Y-119000000D03*
D16*
X141250000Y-119000000D03*
X142520000Y-119000000D03*
%TD*%
D13*
%TO.C,J3*%
X125700000Y-142400000D03*
D24*
X123160000Y-142400000D03*
X120620000Y-142400000D03*
X118080000Y-142400000D03*
X115540000Y-142400000D03*
%TD*%
D11*
%TO.C,R5*%
X160920000Y-135500000D03*
D12*
X171080000Y-135500000D03*
%TD*%
D23*
%TO.C,J10*%
X116000000Y-80000000D03*
%TD*%
%TO.C,J13*%
X125000000Y-111000000D03*
%TD*%
D15*
%TO.C,Q2*%
X138000000Y-111000000D03*
D16*
X139270000Y-111000000D03*
X140540000Y-111000000D03*
%TD*%
D23*
%TO.C,J17*%
X142500000Y-45000000D03*
%TD*%
D10*
%TO.C,REF\u002A\u002A*%
X115500000Y-112000000D03*
%TD*%
D23*
%TO.C,J7*%
X114250000Y-124500000D03*
%TD*%
D11*
%TO.C,R7*%
X134000000Y-126420000D03*
D12*
X134000000Y-136580000D03*
%TD*%
D11*
%TO.C,R3*%
X158500000Y-131500000D03*
D12*
X168660000Y-131500000D03*
%TD*%
D15*
%TO.C,U3*%
X154460000Y-120000000D03*
D16*
X155730000Y-120000000D03*
X157000000Y-120000000D03*
%TD*%
D13*
%TO.C,J20*%
X177000000Y-145500000D03*
D24*
X179540000Y-145500000D03*
%TD*%
D25*
%TO.C,K2*%
X170000000Y-87000000D03*
D26*
X176050000Y-85050000D03*
D25*
X176050000Y-72850000D03*
X164000000Y-72800000D03*
D26*
X164050000Y-85050000D03*
%TD*%
D27*
%TO.C,U2*%
X173810000Y-107695000D03*
D11*
X171270000Y-107695000D03*
X168730000Y-107695000D03*
X166190000Y-107695000D03*
X166190000Y-115315000D03*
X168730000Y-115315000D03*
X171270000Y-115315000D03*
X173810000Y-115315000D03*
%TD*%
%TO.C,R8*%
X130000000Y-136580000D03*
D12*
X130000000Y-126420000D03*
%TD*%
D23*
%TO.C,J14*%
X125000000Y-119000000D03*
%TD*%
D11*
%TO.C,C10*%
X156250000Y-114500000D03*
X156250000Y-112000000D03*
%TD*%
D13*
%TO.C,J6*%
X175480000Y-141000000D03*
D24*
X172940000Y-141000000D03*
X170400000Y-141000000D03*
X167860000Y-141000000D03*
X165320000Y-141000000D03*
X162780000Y-141000000D03*
X160240000Y-141000000D03*
X157700000Y-141000000D03*
X155160000Y-141000000D03*
X152620000Y-141000000D03*
X150080000Y-141000000D03*
X147540000Y-141000000D03*
X145000000Y-141000000D03*
X142460000Y-141000000D03*
X139920000Y-141000000D03*
%TD*%
D11*
%TO.C,R1*%
X152400000Y-129600000D03*
X142240000Y-129600000D03*
%TD*%
D23*
%TO.C,J4*%
X162000000Y-52000000D03*
%TD*%
D28*
%TO.C,J23*%
X116000000Y-87000000D03*
%TD*%
D11*
%TO.C,R9*%
X138320000Y-64400000D03*
D12*
X148480000Y-64400000D03*
%TD*%
D25*
%TO.C,K4*%
X128000000Y-86950000D03*
D26*
X134050000Y-85000000D03*
D25*
X134050000Y-72800000D03*
X122000000Y-72750000D03*
D26*
X122050000Y-85000000D03*
%TD*%
D17*
%TO.C,C4*%
X178500000Y-120972600D03*
D18*
X178500000Y-118972600D03*
%TD*%
D29*
%TO.C,RV1*%
X135540000Y-143040000D03*
X133000000Y-140500000D03*
X130460000Y-143040000D03*
%TD*%
D19*
%TO.C,D4*%
X153500000Y-94420000D03*
D20*
X153500000Y-104580000D03*
%TD*%
D17*
%TO.C,C1*%
X169027401Y-101500000D03*
D18*
X167027401Y-101500000D03*
%TD*%
D23*
%TO.C,J18*%
X142500000Y-52000000D03*
%TD*%
D30*
%TO.C,C8*%
X117000000Y-128250000D03*
D11*
X117000000Y-133250000D03*
%TD*%
D23*
%TO.C,J1*%
X153500000Y-52000000D03*
%TD*%
D11*
%TO.C,C9*%
X172000000Y-129250000D03*
X174500000Y-129250000D03*
%TD*%
%TO.C,C7*%
X180000000Y-112250000D03*
X180000000Y-109750000D03*
%TD*%
D23*
%TO.C,J9*%
X116000000Y-73740000D03*
%TD*%
D10*
%TO.C,REF\u002A\u002A*%
X178500000Y-133000000D03*
%TD*%
D19*
%TO.C,D1*%
X165500000Y-61500000D03*
D20*
X155340000Y-61500000D03*
%TD*%
D23*
%TO.C,J15*%
X134000000Y-45500000D03*
%TD*%
D11*
%TO.C,R4*%
X130700000Y-58000000D03*
D12*
X118000000Y-58000000D03*
%TD*%
D31*
%TO.C,Q1*%
X169960000Y-53500000D03*
D32*
X172500000Y-53500000D03*
X175040000Y-53500000D03*
%TD*%
D17*
%TO.C,C3*%
X149500000Y-118500000D03*
D18*
X149500000Y-120500000D03*
%TD*%
D11*
%TO.C,R6*%
X174200000Y-103400000D03*
D12*
X174200000Y-93240000D03*
%TD*%
D13*
%TO.C,J2*%
X125750000Y-137750000D03*
D24*
X123210000Y-137750000D03*
X120670000Y-137750000D03*
X118130000Y-137750000D03*
%TD*%
D23*
%TO.C,J12*%
X116000000Y-93500000D03*
%TD*%
D15*
%TO.C,U4*%
X170730000Y-120000000D03*
D16*
X172000000Y-120000000D03*
X173270000Y-120000000D03*
%TD*%
D23*
%TO.C,J16*%
X134000000Y-52000000D03*
%TD*%
D25*
%TO.C,K1*%
X149000000Y-86950000D03*
D26*
X155050000Y-85000000D03*
D25*
X155050000Y-72800000D03*
X143000000Y-72750000D03*
D26*
X143050000Y-85000000D03*
%TD*%
D33*
%TO.C,D6*%
X160820000Y-45200000D03*
D34*
X170980000Y-45200000D03*
%TD*%
D23*
%TO.C,J8*%
X116000000Y-105500000D03*
%TD*%
D35*
%TO.C,D5*%
X146310000Y-59000000D03*
D36*
X138690000Y-59000000D03*
%TD*%
D13*
%TO.C,J5*%
X175480000Y-126000000D03*
D24*
X172940000Y-126000000D03*
X170400000Y-126000000D03*
X167860000Y-126000000D03*
X165320000Y-126000000D03*
X162780000Y-126000000D03*
X160240000Y-126000000D03*
X157700000Y-126000000D03*
X155160000Y-126000000D03*
X152620000Y-126000000D03*
X150080000Y-126000000D03*
X147540000Y-126000000D03*
X145000000Y-126000000D03*
X142460000Y-126000000D03*
X139920000Y-126000000D03*
%TD*%
D11*
%TO.C,R2*%
X179000000Y-105080000D03*
D12*
X179000000Y-94920000D03*
%TD*%
M02*
